<?xml version="1.0" encoding="utf-8" standalone="no"?>
<!DOCTYPE svg PUBLIC "-//W3C//DTD SVG 1.1//EN"
  "http://www.w3.org/Graphics/SVG/1.1/DTD/svg11.dtd">
<svg xmlns:xlink="http://www.w3.org/1999/xlink" width="864pt" height="576pt" viewBox="0 0 864 576" xmlns="http://www.w3.org/2000/svg" version="1.1">
 <metadata>
  <rdf:RDF xmlns:dc="http://purl.org/dc/elements/1.1/" xmlns:cc="http://creativecommons.org/ns#" xmlns:rdf="http://www.w3.org/1999/02/22-rdf-syntax-ns#">
   <cc:Work>
    <dc:type rdf:resource="http://purl.org/dc/dcmitype/StillImage"/>
    <dc:date>2023-12-21T15:36:33.224513</dc:date>
    <dc:format>image/svg+xml</dc:format>
    <dc:creator>
     <cc:Agent>
      <dc:title>Matplotlib v3.8.2, https://matplotlib.org/</dc:title>
     </cc:Agent>
    </dc:creator>
   </cc:Work>
  </rdf:RDF>
 </metadata>
 <defs>
  <style type="text/css">*{stroke-linejoin: round; stroke-linecap: butt}</style>
 </defs>
 <g id="figure_1">
  <g id="patch_1">
   <path d="M 0 576 
L 864 576 
L 864 0 
L 0 0 
z
" style="fill: #ffffff"/>
  </g>
  <g id="axes_1">
   <g id="patch_2">
    <path d="M 64.28 520.36 
L 849.682662 520.36 
L 849.682662 35.52 
L 64.28 35.52 
z
" style="fill: #ffffff"/>
   </g>
   <g id="matplotlib.axis_1">
    <g id="xtick_1">
     <g id="line2d_1">
      <defs>
       <path id="mb4a4adc7ec" d="M 0 0 
L 0 3.5 
" style="stroke: #000000; stroke-width: 0.8"/>
      </defs>
      <g>
       <use xlink:href="#mb4a4adc7ec" x="99.980121" y="520.36" style="stroke: #000000; stroke-width: 0.8"/>
      </g>
     </g>
     <g id="text_1">
      <!-- 0 -->
      <g transform="translate(95.526371 537.997813) scale(0.14 -0.14)">
       <defs>
        <path id="DejaVuSans-30" d="M 2034 4250 
Q 1547 4250 1301 3770 
Q 1056 3291 1056 2328 
Q 1056 1369 1301 889 
Q 1547 409 2034 409 
Q 2525 409 2770 889 
Q 3016 1369 3016 2328 
Q 3016 3291 2770 3770 
Q 2525 4250 2034 4250 
z
M 2034 4750 
Q 2819 4750 3233 4129 
Q 3647 3509 3647 2328 
Q 3647 1150 3233 529 
Q 2819 -91 2034 -91 
Q 1250 -91 836 529 
Q 422 1150 422 2328 
Q 422 3509 836 4129 
Q 1250 4750 2034 4750 
z
" transform="scale(0.015625)"/>
       </defs>
       <use xlink:href="#DejaVuSans-30"/>
      </g>
     </g>
    </g>
    <g id="xtick_2">
     <g id="line2d_2">
      <g>
       <use xlink:href="#mb4a4adc7ec" x="247.61048" y="520.36" style="stroke: #000000; stroke-width: 0.8"/>
      </g>
     </g>
     <g id="text_2">
      <!-- 50 -->
      <g transform="translate(238.70298 537.997813) scale(0.14 -0.14)">
       <defs>
        <path id="DejaVuSans-35" d="M 691 4666 
L 3169 4666 
L 3169 4134 
L 1269 4134 
L 1269 2991 
Q 1406 3038 1543 3061 
Q 1681 3084 1819 3084 
Q 2600 3084 3056 2656 
Q 3513 2228 3513 1497 
Q 3513 744 3044 326 
Q 2575 -91 1722 -91 
Q 1428 -91 1123 -41 
Q 819 9 494 109 
L 494 744 
Q 775 591 1075 516 
Q 1375 441 1709 441 
Q 2250 441 2565 725 
Q 2881 1009 2881 1497 
Q 2881 1984 2565 2268 
Q 2250 2553 1709 2553 
Q 1456 2553 1204 2497 
Q 953 2441 691 2322 
L 691 4666 
z
" transform="scale(0.015625)"/>
       </defs>
       <use xlink:href="#DejaVuSans-35"/>
       <use xlink:href="#DejaVuSans-30" x="63.623047"/>
      </g>
     </g>
    </g>
    <g id="xtick_3">
     <g id="line2d_3">
      <g>
       <use xlink:href="#mb4a4adc7ec" x="395.240839" y="520.36" style="stroke: #000000; stroke-width: 0.8"/>
      </g>
     </g>
     <g id="text_3">
      <!-- 100 -->
      <g transform="translate(381.879589 537.997813) scale(0.14 -0.14)">
       <defs>
        <path id="DejaVuSans-31" d="M 794 531 
L 1825 531 
L 1825 4091 
L 703 3866 
L 703 4441 
L 1819 4666 
L 2450 4666 
L 2450 531 
L 3481 531 
L 3481 0 
L 794 0 
L 794 531 
z
" transform="scale(0.015625)"/>
       </defs>
       <use xlink:href="#DejaVuSans-31"/>
       <use xlink:href="#DejaVuSans-30" x="63.623047"/>
       <use xlink:href="#DejaVuSans-30" x="127.246094"/>
      </g>
     </g>
    </g>
    <g id="xtick_4">
     <g id="line2d_4">
      <g>
       <use xlink:href="#mb4a4adc7ec" x="542.871198" y="520.36" style="stroke: #000000; stroke-width: 0.8"/>
      </g>
     </g>
     <g id="text_4">
      <!-- 150 -->
      <g transform="translate(529.509948 537.997813) scale(0.14 -0.14)">
       <use xlink:href="#DejaVuSans-31"/>
       <use xlink:href="#DejaVuSans-35" x="63.623047"/>
       <use xlink:href="#DejaVuSans-30" x="127.246094"/>
      </g>
     </g>
    </g>
    <g id="xtick_5">
     <g id="line2d_5">
      <g>
       <use xlink:href="#mb4a4adc7ec" x="690.501556" y="520.36" style="stroke: #000000; stroke-width: 0.8"/>
      </g>
     </g>
     <g id="text_5">
      <!-- 200 -->
      <g transform="translate(677.140306 537.997813) scale(0.14 -0.14)">
       <defs>
        <path id="DejaVuSans-32" d="M 1228 531 
L 3431 531 
L 3431 0 
L 469 0 
L 469 531 
Q 828 903 1448 1529 
Q 2069 2156 2228 2338 
Q 2531 2678 2651 2914 
Q 2772 3150 2772 3378 
Q 2772 3750 2511 3984 
Q 2250 4219 1831 4219 
Q 1534 4219 1204 4116 
Q 875 4013 500 3803 
L 500 4441 
Q 881 4594 1212 4672 
Q 1544 4750 1819 4750 
Q 2544 4750 2975 4387 
Q 3406 4025 3406 3419 
Q 3406 3131 3298 2873 
Q 3191 2616 2906 2266 
Q 2828 2175 2409 1742 
Q 1991 1309 1228 531 
z
" transform="scale(0.015625)"/>
       </defs>
       <use xlink:href="#DejaVuSans-32"/>
       <use xlink:href="#DejaVuSans-30" x="63.623047"/>
       <use xlink:href="#DejaVuSans-30" x="127.246094"/>
      </g>
     </g>
    </g>
    <g id="xtick_6">
     <g id="line2d_6">
      <g>
       <use xlink:href="#mb4a4adc7ec" x="838.131915" y="520.36" style="stroke: #000000; stroke-width: 0.8"/>
      </g>
     </g>
     <g id="text_6">
      <!-- 250 -->
      <g transform="translate(824.770665 537.997813) scale(0.14 -0.14)">
       <use xlink:href="#DejaVuSans-32"/>
       <use xlink:href="#DejaVuSans-35" x="63.623047"/>
       <use xlink:href="#DejaVuSans-30" x="127.246094"/>
      </g>
     </g>
    </g>
    <g id="text_7">
     <!-- Zeit [s] -->
     <g transform="translate(421.089144 560.10625) scale(0.2 -0.2)">
      <defs>
       <path id="DejaVuSans-5a" d="M 359 4666 
L 4025 4666 
L 4025 4184 
L 1075 531 
L 4097 531 
L 4097 0 
L 288 0 
L 288 481 
L 3238 4134 
L 359 4134 
L 359 4666 
z
" transform="scale(0.015625)"/>
       <path id="DejaVuSans-65" d="M 3597 1894 
L 3597 1613 
L 953 1613 
Q 991 1019 1311 708 
Q 1631 397 2203 397 
Q 2534 397 2845 478 
Q 3156 559 3463 722 
L 3463 178 
Q 3153 47 2828 -22 
Q 2503 -91 2169 -91 
Q 1331 -91 842 396 
Q 353 884 353 1716 
Q 353 2575 817 3079 
Q 1281 3584 2069 3584 
Q 2775 3584 3186 3129 
Q 3597 2675 3597 1894 
z
M 3022 2063 
Q 3016 2534 2758 2815 
Q 2500 3097 2075 3097 
Q 1594 3097 1305 2825 
Q 1016 2553 972 2059 
L 3022 2063 
z
" transform="scale(0.015625)"/>
       <path id="DejaVuSans-69" d="M 603 3500 
L 1178 3500 
L 1178 0 
L 603 0 
L 603 3500 
z
M 603 4863 
L 1178 4863 
L 1178 4134 
L 603 4134 
L 603 4863 
z
" transform="scale(0.015625)"/>
       <path id="DejaVuSans-74" d="M 1172 4494 
L 1172 3500 
L 2356 3500 
L 2356 3053 
L 1172 3053 
L 1172 1153 
Q 1172 725 1289 603 
Q 1406 481 1766 481 
L 2356 481 
L 2356 0 
L 1766 0 
Q 1100 0 847 248 
Q 594 497 594 1153 
L 594 3053 
L 172 3053 
L 172 3500 
L 594 3500 
L 594 4494 
L 1172 4494 
z
" transform="scale(0.015625)"/>
       <path id="DejaVuSans-20" transform="scale(0.015625)"/>
       <path id="DejaVuSans-5b" d="M 550 4863 
L 1875 4863 
L 1875 4416 
L 1125 4416 
L 1125 -397 
L 1875 -397 
L 1875 -844 
L 550 -844 
L 550 4863 
z
" transform="scale(0.015625)"/>
       <path id="DejaVuSans-73" d="M 2834 3397 
L 2834 2853 
Q 2591 2978 2328 3040 
Q 2066 3103 1784 3103 
Q 1356 3103 1142 2972 
Q 928 2841 928 2578 
Q 928 2378 1081 2264 
Q 1234 2150 1697 2047 
L 1894 2003 
Q 2506 1872 2764 1633 
Q 3022 1394 3022 966 
Q 3022 478 2636 193 
Q 2250 -91 1575 -91 
Q 1294 -91 989 -36 
Q 684 19 347 128 
L 347 722 
Q 666 556 975 473 
Q 1284 391 1588 391 
Q 1994 391 2212 530 
Q 2431 669 2431 922 
Q 2431 1156 2273 1281 
Q 2116 1406 1581 1522 
L 1381 1569 
Q 847 1681 609 1914 
Q 372 2147 372 2553 
Q 372 3047 722 3315 
Q 1072 3584 1716 3584 
Q 2034 3584 2315 3537 
Q 2597 3491 2834 3397 
z
" transform="scale(0.015625)"/>
       <path id="DejaVuSans-5d" d="M 1947 4863 
L 1947 -844 
L 622 -844 
L 622 -397 
L 1369 -397 
L 1369 4416 
L 622 4416 
L 622 4863 
L 1947 4863 
z
" transform="scale(0.015625)"/>
      </defs>
      <use xlink:href="#DejaVuSans-5a"/>
      <use xlink:href="#DejaVuSans-65" x="68.505859"/>
      <use xlink:href="#DejaVuSans-69" x="130.029297"/>
      <use xlink:href="#DejaVuSans-74" x="157.8125"/>
      <use xlink:href="#DejaVuSans-20" x="197.021484"/>
      <use xlink:href="#DejaVuSans-5b" x="228.808594"/>
      <use xlink:href="#DejaVuSans-73" x="267.822266"/>
      <use xlink:href="#DejaVuSans-5d" x="319.921875"/>
     </g>
    </g>
   </g>
   <g id="matplotlib.axis_2">
    <g id="ytick_1">
     <g id="line2d_7">
      <defs>
       <path id="m174afe37de" d="M 0 0 
L -3.5 0 
" style="stroke: #000000; stroke-width: 0.8"/>
      </defs>
      <g>
       <use xlink:href="#m174afe37de" x="64.28" y="498.321818" style="stroke: #000000; stroke-width: 0.8"/>
      </g>
     </g>
     <g id="text_8">
      <!-- 0.0 -->
      <g transform="translate(35.015625 503.640724) scale(0.14 -0.14)">
       <defs>
        <path id="DejaVuSans-2e" d="M 684 794 
L 1344 794 
L 1344 0 
L 684 0 
L 684 794 
z
" transform="scale(0.015625)"/>
       </defs>
       <use xlink:href="#DejaVuSans-30"/>
       <use xlink:href="#DejaVuSans-2e" x="63.623047"/>
       <use xlink:href="#DejaVuSans-30" x="95.410156"/>
      </g>
     </g>
    </g>
    <g id="ytick_2">
     <g id="line2d_8">
      <g>
       <use xlink:href="#m174afe37de" x="64.28" y="411.897576" style="stroke: #000000; stroke-width: 0.8"/>
      </g>
     </g>
     <g id="text_9">
      <!-- 0.1 -->
      <g transform="translate(35.015625 417.216482) scale(0.14 -0.14)">
       <use xlink:href="#DejaVuSans-30"/>
       <use xlink:href="#DejaVuSans-2e" x="63.623047"/>
       <use xlink:href="#DejaVuSans-31" x="95.410156"/>
      </g>
     </g>
    </g>
    <g id="ytick_3">
     <g id="line2d_9">
      <g>
       <use xlink:href="#m174afe37de" x="64.28" y="325.473333" style="stroke: #000000; stroke-width: 0.8"/>
      </g>
     </g>
     <g id="text_10">
      <!-- 0.2 -->
      <g transform="translate(35.015625 330.79224) scale(0.14 -0.14)">
       <use xlink:href="#DejaVuSans-30"/>
       <use xlink:href="#DejaVuSans-2e" x="63.623047"/>
       <use xlink:href="#DejaVuSans-32" x="95.410156"/>
      </g>
     </g>
    </g>
    <g id="ytick_4">
     <g id="line2d_10">
      <g>
       <use xlink:href="#m174afe37de" x="64.28" y="239.049091" style="stroke: #000000; stroke-width: 0.8"/>
      </g>
     </g>
     <g id="text_11">
      <!-- 0.3 -->
      <g transform="translate(35.015625 244.367997) scale(0.14 -0.14)">
       <defs>
        <path id="DejaVuSans-33" d="M 2597 2516 
Q 3050 2419 3304 2112 
Q 3559 1806 3559 1356 
Q 3559 666 3084 287 
Q 2609 -91 1734 -91 
Q 1441 -91 1130 -33 
Q 819 25 488 141 
L 488 750 
Q 750 597 1062 519 
Q 1375 441 1716 441 
Q 2309 441 2620 675 
Q 2931 909 2931 1356 
Q 2931 1769 2642 2001 
Q 2353 2234 1838 2234 
L 1294 2234 
L 1294 2753 
L 1863 2753 
Q 2328 2753 2575 2939 
Q 2822 3125 2822 3475 
Q 2822 3834 2567 4026 
Q 2313 4219 1838 4219 
Q 1578 4219 1281 4162 
Q 984 4106 628 3988 
L 628 4550 
Q 988 4650 1302 4700 
Q 1616 4750 1894 4750 
Q 2613 4750 3031 4423 
Q 3450 4097 3450 3541 
Q 3450 3153 3228 2886 
Q 3006 2619 2597 2516 
z
" transform="scale(0.015625)"/>
       </defs>
       <use xlink:href="#DejaVuSans-30"/>
       <use xlink:href="#DejaVuSans-2e" x="63.623047"/>
       <use xlink:href="#DejaVuSans-33" x="95.410156"/>
      </g>
     </g>
    </g>
    <g id="ytick_5">
     <g id="line2d_11">
      <g>
       <use xlink:href="#m174afe37de" x="64.28" y="152.624848" style="stroke: #000000; stroke-width: 0.8"/>
      </g>
     </g>
     <g id="text_12">
      <!-- 0.4 -->
      <g transform="translate(35.015625 157.943755) scale(0.14 -0.14)">
       <defs>
        <path id="DejaVuSans-34" d="M 2419 4116 
L 825 1625 
L 2419 1625 
L 2419 4116 
z
M 2253 4666 
L 3047 4666 
L 3047 1625 
L 3713 1625 
L 3713 1100 
L 3047 1100 
L 3047 0 
L 2419 0 
L 2419 1100 
L 313 1100 
L 313 1709 
L 2253 4666 
z
" transform="scale(0.015625)"/>
       </defs>
       <use xlink:href="#DejaVuSans-30"/>
       <use xlink:href="#DejaVuSans-2e" x="63.623047"/>
       <use xlink:href="#DejaVuSans-34" x="95.410156"/>
      </g>
     </g>
    </g>
    <g id="ytick_6">
     <g id="line2d_12">
      <g>
       <use xlink:href="#m174afe37de" x="64.28" y="66.200606" style="stroke: #000000; stroke-width: 0.8"/>
      </g>
     </g>
     <g id="text_13">
      <!-- 0.5 -->
      <g transform="translate(35.015625 71.519512) scale(0.14 -0.14)">
       <use xlink:href="#DejaVuSans-30"/>
       <use xlink:href="#DejaVuSans-2e" x="63.623047"/>
       <use xlink:href="#DejaVuSans-35" x="95.410156"/>
      </g>
     </g>
    </g>
    <g id="text_14">
     <!-- Feinstaubkonzentration [µg/m^3] -->
     <g transform="translate(26.85625 446.835312) rotate(-90) scale(0.2 -0.2)">
      <defs>
       <path id="DejaVuSans-46" d="M 628 4666 
L 3309 4666 
L 3309 4134 
L 1259 4134 
L 1259 2759 
L 3109 2759 
L 3109 2228 
L 1259 2228 
L 1259 0 
L 628 0 
L 628 4666 
z
" transform="scale(0.015625)"/>
       <path id="DejaVuSans-6e" d="M 3513 2113 
L 3513 0 
L 2938 0 
L 2938 2094 
Q 2938 2591 2744 2837 
Q 2550 3084 2163 3084 
Q 1697 3084 1428 2787 
Q 1159 2491 1159 1978 
L 1159 0 
L 581 0 
L 581 3500 
L 1159 3500 
L 1159 2956 
Q 1366 3272 1645 3428 
Q 1925 3584 2291 3584 
Q 2894 3584 3203 3211 
Q 3513 2838 3513 2113 
z
" transform="scale(0.015625)"/>
       <path id="DejaVuSans-61" d="M 2194 1759 
Q 1497 1759 1228 1600 
Q 959 1441 959 1056 
Q 959 750 1161 570 
Q 1363 391 1709 391 
Q 2188 391 2477 730 
Q 2766 1069 2766 1631 
L 2766 1759 
L 2194 1759 
z
M 3341 1997 
L 3341 0 
L 2766 0 
L 2766 531 
Q 2569 213 2275 61 
Q 1981 -91 1556 -91 
Q 1019 -91 701 211 
Q 384 513 384 1019 
Q 384 1609 779 1909 
Q 1175 2209 1959 2209 
L 2766 2209 
L 2766 2266 
Q 2766 2663 2505 2880 
Q 2244 3097 1772 3097 
Q 1472 3097 1187 3025 
Q 903 2953 641 2809 
L 641 3341 
Q 956 3463 1253 3523 
Q 1550 3584 1831 3584 
Q 2591 3584 2966 3190 
Q 3341 2797 3341 1997 
z
" transform="scale(0.015625)"/>
       <path id="DejaVuSans-75" d="M 544 1381 
L 544 3500 
L 1119 3500 
L 1119 1403 
Q 1119 906 1312 657 
Q 1506 409 1894 409 
Q 2359 409 2629 706 
Q 2900 1003 2900 1516 
L 2900 3500 
L 3475 3500 
L 3475 0 
L 2900 0 
L 2900 538 
Q 2691 219 2414 64 
Q 2138 -91 1772 -91 
Q 1169 -91 856 284 
Q 544 659 544 1381 
z
M 1991 3584 
L 1991 3584 
z
" transform="scale(0.015625)"/>
       <path id="DejaVuSans-62" d="M 3116 1747 
Q 3116 2381 2855 2742 
Q 2594 3103 2138 3103 
Q 1681 3103 1420 2742 
Q 1159 2381 1159 1747 
Q 1159 1113 1420 752 
Q 1681 391 2138 391 
Q 2594 391 2855 752 
Q 3116 1113 3116 1747 
z
M 1159 2969 
Q 1341 3281 1617 3432 
Q 1894 3584 2278 3584 
Q 2916 3584 3314 3078 
Q 3713 2572 3713 1747 
Q 3713 922 3314 415 
Q 2916 -91 2278 -91 
Q 1894 -91 1617 61 
Q 1341 213 1159 525 
L 1159 0 
L 581 0 
L 581 4863 
L 1159 4863 
L 1159 2969 
z
" transform="scale(0.015625)"/>
       <path id="DejaVuSans-6b" d="M 581 4863 
L 1159 4863 
L 1159 1991 
L 2875 3500 
L 3609 3500 
L 1753 1863 
L 3688 0 
L 2938 0 
L 1159 1709 
L 1159 0 
L 581 0 
L 581 4863 
z
" transform="scale(0.015625)"/>
       <path id="DejaVuSans-6f" d="M 1959 3097 
Q 1497 3097 1228 2736 
Q 959 2375 959 1747 
Q 959 1119 1226 758 
Q 1494 397 1959 397 
Q 2419 397 2687 759 
Q 2956 1122 2956 1747 
Q 2956 2369 2687 2733 
Q 2419 3097 1959 3097 
z
M 1959 3584 
Q 2709 3584 3137 3096 
Q 3566 2609 3566 1747 
Q 3566 888 3137 398 
Q 2709 -91 1959 -91 
Q 1206 -91 779 398 
Q 353 888 353 1747 
Q 353 2609 779 3096 
Q 1206 3584 1959 3584 
z
" transform="scale(0.015625)"/>
       <path id="DejaVuSans-7a" d="M 353 3500 
L 3084 3500 
L 3084 2975 
L 922 459 
L 3084 459 
L 3084 0 
L 275 0 
L 275 525 
L 2438 3041 
L 353 3041 
L 353 3500 
z
" transform="scale(0.015625)"/>
       <path id="DejaVuSans-72" d="M 2631 2963 
Q 2534 3019 2420 3045 
Q 2306 3072 2169 3072 
Q 1681 3072 1420 2755 
Q 1159 2438 1159 1844 
L 1159 0 
L 581 0 
L 581 3500 
L 1159 3500 
L 1159 2956 
Q 1341 3275 1631 3429 
Q 1922 3584 2338 3584 
Q 2397 3584 2469 3576 
Q 2541 3569 2628 3553 
L 2631 2963 
z
" transform="scale(0.015625)"/>
       <path id="DejaVuSans-b5" d="M 544 -1331 
L 544 3500 
L 1119 3500 
L 1119 1325 
Q 1119 872 1334 640 
Q 1550 409 1972 409 
Q 2434 409 2667 671 
Q 2900 934 2900 1459 
L 2900 3500 
L 3475 3500 
L 3475 806 
Q 3475 619 3529 530 
Q 3584 441 3700 441 
Q 3728 441 3778 458 
Q 3828 475 3916 513 
L 3916 50 
Q 3788 -22 3673 -56 
Q 3559 -91 3450 -91 
Q 3234 -91 3106 31 
Q 2978 153 2931 403 
Q 2775 156 2548 32 
Q 2322 -91 2016 -91 
Q 1697 -91 1473 31 
Q 1250 153 1119 397 
L 1119 -1331 
L 544 -1331 
z
" transform="scale(0.015625)"/>
       <path id="DejaVuSans-67" d="M 2906 1791 
Q 2906 2416 2648 2759 
Q 2391 3103 1925 3103 
Q 1463 3103 1205 2759 
Q 947 2416 947 1791 
Q 947 1169 1205 825 
Q 1463 481 1925 481 
Q 2391 481 2648 825 
Q 2906 1169 2906 1791 
z
M 3481 434 
Q 3481 -459 3084 -895 
Q 2688 -1331 1869 -1331 
Q 1566 -1331 1297 -1286 
Q 1028 -1241 775 -1147 
L 775 -588 
Q 1028 -725 1275 -790 
Q 1522 -856 1778 -856 
Q 2344 -856 2625 -561 
Q 2906 -266 2906 331 
L 2906 616 
Q 2728 306 2450 153 
Q 2172 0 1784 0 
Q 1141 0 747 490 
Q 353 981 353 1791 
Q 353 2603 747 3093 
Q 1141 3584 1784 3584 
Q 2172 3584 2450 3431 
Q 2728 3278 2906 2969 
L 2906 3500 
L 3481 3500 
L 3481 434 
z
" transform="scale(0.015625)"/>
       <path id="DejaVuSans-2f" d="M 1625 4666 
L 2156 4666 
L 531 -594 
L 0 -594 
L 1625 4666 
z
" transform="scale(0.015625)"/>
       <path id="DejaVuSans-6d" d="M 3328 2828 
Q 3544 3216 3844 3400 
Q 4144 3584 4550 3584 
Q 5097 3584 5394 3201 
Q 5691 2819 5691 2113 
L 5691 0 
L 5113 0 
L 5113 2094 
Q 5113 2597 4934 2840 
Q 4756 3084 4391 3084 
Q 3944 3084 3684 2787 
Q 3425 2491 3425 1978 
L 3425 0 
L 2847 0 
L 2847 2094 
Q 2847 2600 2669 2842 
Q 2491 3084 2119 3084 
Q 1678 3084 1418 2786 
Q 1159 2488 1159 1978 
L 1159 0 
L 581 0 
L 581 3500 
L 1159 3500 
L 1159 2956 
Q 1356 3278 1631 3431 
Q 1906 3584 2284 3584 
Q 2666 3584 2933 3390 
Q 3200 3197 3328 2828 
z
" transform="scale(0.015625)"/>
       <path id="DejaVuSans-5e" d="M 2988 4666 
L 4684 2925 
L 4056 2925 
L 2681 4159 
L 1306 2925 
L 678 2925 
L 2375 4666 
L 2988 4666 
z
" transform="scale(0.015625)"/>
      </defs>
      <use xlink:href="#DejaVuSans-46"/>
      <use xlink:href="#DejaVuSans-65" x="52.019531"/>
      <use xlink:href="#DejaVuSans-69" x="113.542969"/>
      <use xlink:href="#DejaVuSans-6e" x="141.326172"/>
      <use xlink:href="#DejaVuSans-73" x="204.705078"/>
      <use xlink:href="#DejaVuSans-74" x="256.804688"/>
      <use xlink:href="#DejaVuSans-61" x="296.013672"/>
      <use xlink:href="#DejaVuSans-75" x="357.292969"/>
      <use xlink:href="#DejaVuSans-62" x="420.671875"/>
      <use xlink:href="#DejaVuSans-6b" x="484.148438"/>
      <use xlink:href="#DejaVuSans-6f" x="538.433594"/>
      <use xlink:href="#DejaVuSans-6e" x="599.615234"/>
      <use xlink:href="#DejaVuSans-7a" x="662.994141"/>
      <use xlink:href="#DejaVuSans-65" x="715.484375"/>
      <use xlink:href="#DejaVuSans-6e" x="777.007812"/>
      <use xlink:href="#DejaVuSans-74" x="840.386719"/>
      <use xlink:href="#DejaVuSans-72" x="879.595703"/>
      <use xlink:href="#DejaVuSans-61" x="920.708984"/>
      <use xlink:href="#DejaVuSans-74" x="981.988281"/>
      <use xlink:href="#DejaVuSans-69" x="1021.197266"/>
      <use xlink:href="#DejaVuSans-6f" x="1048.980469"/>
      <use xlink:href="#DejaVuSans-6e" x="1110.162109"/>
      <use xlink:href="#DejaVuSans-20" x="1173.541016"/>
      <use xlink:href="#DejaVuSans-5b" x="1205.328125"/>
      <use xlink:href="#DejaVuSans-b5" x="1244.341797"/>
      <use xlink:href="#DejaVuSans-67" x="1307.964844"/>
      <use xlink:href="#DejaVuSans-2f" x="1371.441406"/>
      <use xlink:href="#DejaVuSans-6d" x="1405.132812"/>
      <use xlink:href="#DejaVuSans-5e" x="1502.544922"/>
      <use xlink:href="#DejaVuSans-33" x="1586.333984"/>
      <use xlink:href="#DejaVuSans-5d" x="1649.957031"/>
     </g>
    </g>
   </g>
   <g id="line2d_13">
    <path d="M 99.980121 221.764242 
L 106.27508 256.333939 
L 109.416654 264.976364 
L 112.56118 282.261212 
L 121.99476 308.188485 
L 125.139287 308.188485 
L 131.431293 325.473333 
L 134.572867 325.473333 
L 137.720346 316.830909 
L 140.864873 316.830909 
L 150.298453 290.903636 
L 153.445932 273.618788 
L 156.590458 247.691515 
L 159.737938 239.049091 
L 162.879512 221.764242 
L 169.171518 221.764242 
L 175.460571 204.479394 
L 178.605098 204.479394 
L 181.752577 213.121818 
L 194.330683 213.121818 
L 197.47521 221.764242 
L 200.619737 221.764242 
L 213.200796 256.333939 
L 216.345322 256.333939 
L 219.489849 264.976364 
L 222.634376 264.976364 
L 232.070908 290.903636 
L 235.215435 308.188485 
L 238.359962 308.188485 
L 241.504488 316.830909 
L 250.938068 316.830909 
L 254.082595 325.473333 
L 276.106092 325.473333 
L 279.250618 316.830909 
L 282.395145 290.903636 
L 288.687151 273.618788 
L 291.831678 247.691515 
L 301.26821 221.764242 
L 310.704743 221.764242 
L 313.849269 230.406667 
L 320.138323 230.406667 
L 326.427376 247.691515 
L 329.577808 264.976364 
L 332.725287 264.976364 
L 339.01434 282.261212 
L 342.158867 282.261212 
L 345.303394 290.903636 
L 351.595399 290.903636 
L 354.739926 299.546061 
L 357.887405 299.546061 
L 361.031932 308.188485 
L 364.179411 308.188485 
L 367.323938 316.830909 
L 370.468465 316.830909 
L 373.612991 334.115758 
L 376.76047 342.758182 
L 379.904997 342.758182 
L 386.197003 360.04303 
L 405.073021 360.04303 
L 408.217547 351.400606 
L 411.365027 351.400606 
L 414.506601 360.04303 
L 417.65408 351.400606 
L 420.798606 334.115758 
L 427.090612 282.261212 
L 430.235139 264.976364 
L 433.382618 221.764242 
L 436.527145 204.479394 
L 442.822103 187.194545 
L 449.114109 187.194545 
L 452.261589 161.267273 
L 458.553594 143.982424 
L 471.137606 143.982424 
L 474.282133 152.624848 
L 477.429612 169.909697 
L 483.715713 187.194545 
L 486.860239 204.479394 
L 493.152245 221.764242 
L 496.296772 213.121818 
L 505.73921 213.121818 
L 508.883736 221.764242 
L 512.031216 213.121818 
L 521.467748 213.121818 
L 527.756801 178.552121 
L 534.045855 161.267273 
L 543.482387 161.267273 
L 552.915967 135.34 
L 556.060494 118.055152 
L 559.207973 92.127879 
L 562.3525 83.485455 
L 565.499979 83.485455 
L 568.644506 66.200606 
L 571.789032 57.558182 
L 574.936512 57.558182 
L 578.083991 66.200606 
L 581.225565 66.200606 
L 590.66505 92.127879 
L 593.809577 109.412727 
L 596.957056 118.055152 
L 600.104535 118.055152 
L 625.269606 187.194545 
L 628.417085 187.194545 
L 637.847713 213.121818 
L 640.992239 230.406667 
L 647.284245 230.406667 
L 653.573298 247.691515 
L 656.720778 239.049091 
L 666.15731 239.049091 
L 669.301837 230.406667 
L 678.732464 230.406667 
L 681.879943 239.049091 
L 685.02447 239.049091 
L 691.313523 256.333939 
L 694.45805 273.618788 
L 707.036157 308.188485 
L 710.180683 325.473333 
L 713.32521 325.473333 
L 719.617216 342.758182 
L 725.906269 342.758182 
L 729.050796 351.400606 
L 735.339849 351.400606 
L 738.487328 334.115758 
L 741.631855 308.188485 
L 744.776382 299.546061 
L 747.920908 282.261212 
L 757.360393 256.333939 
L 763.649447 221.764242 
L 766.793973 213.121818 
L 773.088932 178.552121 
L 782.525464 152.624848 
L 788.814518 169.909697 
L 798.254003 169.909697 
L 801.401482 178.552121 
L 804.546009 169.909697 
L 813.982541 169.909697 
L 813.982541 169.909697 
" clip-path="url(#pf46b92476a)" style="fill: none; stroke: #1f77b4; stroke-width: 1.5; stroke-linecap: square"/>
   </g>
   <g id="line2d_14">
    <path d="M 99.980121 481.03697 
L 121.99476 481.03697 
L 125.139287 489.679394 
L 140.864873 489.679394 
L 144.009399 481.03697 
L 232.070908 481.03697 
L 235.215435 489.679394 
L 279.250618 489.679394 
L 282.395145 481.03697 
L 364.179411 481.03697 
L 367.323938 489.679394 
L 420.798606 489.679394 
L 423.946086 481.03697 
L 439.674624 481.03697 
L 442.822103 472.394545 
L 483.715713 472.394545 
L 486.860239 481.03697 
L 521.467748 481.03697 
L 524.612275 472.394545 
L 565.499979 472.394545 
L 568.644506 463.752121 
L 584.375997 463.752121 
L 587.520523 472.394545 
L 631.561612 472.394545 
L 634.703186 481.03697 
L 710.180683 481.03697 
L 713.32521 489.679394 
L 738.487328 489.679394 
L 741.631855 481.03697 
L 766.793973 481.03697 
L 769.941453 472.394545 
L 813.982541 472.394545 
L 813.982541 472.394545 
" clip-path="url(#pf46b92476a)" style="fill: none; stroke: #ff7f0e; stroke-width: 1.5; stroke-linecap: square"/>
   </g>
   <g id="line2d_15">
    <path d="M 99.980121 498.321818 
L 549.768488 498.321818 
L 552.915967 489.679394 
L 612.688547 489.679394 
L 615.836026 498.321818 
L 769.941453 498.321818 
L 773.088932 489.679394 
L 813.982541 489.679394 
L 813.982541 489.679394 
" clip-path="url(#pf46b92476a)" style="fill: none; stroke: #2ca02c; stroke-width: 1.5; stroke-linecap: square"/>
   </g>
   <g id="line2d_16">
    <path d="M 99.980121 498.321818 
L 813.982541 498.321818 
L 813.982541 498.321818 
" clip-path="url(#pf46b92476a)" style="fill: none; stroke: #d62728; stroke-width: 1.5; stroke-linecap: square"/>
   </g>
   <g id="patch_3">
    <path d="M 64.28 520.36 
L 64.28 35.52 
" style="fill: none; stroke: #000000; stroke-width: 0.8; stroke-linejoin: miter; stroke-linecap: square"/>
   </g>
   <g id="patch_4">
    <path d="M 849.682662 520.36 
L 849.682662 35.52 
" style="fill: none; stroke: #000000; stroke-width: 0.8; stroke-linejoin: miter; stroke-linecap: square"/>
   </g>
   <g id="patch_5">
    <path d="M 64.28 520.36 
L 849.682662 520.36 
" style="fill: none; stroke: #000000; stroke-width: 0.8; stroke-linejoin: miter; stroke-linecap: square"/>
   </g>
   <g id="patch_6">
    <path d="M 64.28 35.52 
L 849.682662 35.52 
" style="fill: none; stroke: #000000; stroke-width: 0.8; stroke-linejoin: miter; stroke-linecap: square"/>
   </g>
   <g id="text_15">
    <!-- Feinstaubkonzentration auf dem Balkon -->
    <g transform="translate(218.462581 29.52) scale(0.24 -0.24)">
     <defs>
      <path id="DejaVuSans-66" d="M 2375 4863 
L 2375 4384 
L 1825 4384 
Q 1516 4384 1395 4259 
Q 1275 4134 1275 3809 
L 1275 3500 
L 2222 3500 
L 2222 3053 
L 1275 3053 
L 1275 0 
L 697 0 
L 697 3053 
L 147 3053 
L 147 3500 
L 697 3500 
L 697 3744 
Q 697 4328 969 4595 
Q 1241 4863 1831 4863 
L 2375 4863 
z
" transform="scale(0.015625)"/>
      <path id="DejaVuSans-64" d="M 2906 2969 
L 2906 4863 
L 3481 4863 
L 3481 0 
L 2906 0 
L 2906 525 
Q 2725 213 2448 61 
Q 2172 -91 1784 -91 
Q 1150 -91 751 415 
Q 353 922 353 1747 
Q 353 2572 751 3078 
Q 1150 3584 1784 3584 
Q 2172 3584 2448 3432 
Q 2725 3281 2906 2969 
z
M 947 1747 
Q 947 1113 1208 752 
Q 1469 391 1925 391 
Q 2381 391 2643 752 
Q 2906 1113 2906 1747 
Q 2906 2381 2643 2742 
Q 2381 3103 1925 3103 
Q 1469 3103 1208 2742 
Q 947 2381 947 1747 
z
" transform="scale(0.015625)"/>
      <path id="DejaVuSans-42" d="M 1259 2228 
L 1259 519 
L 2272 519 
Q 2781 519 3026 730 
Q 3272 941 3272 1375 
Q 3272 1813 3026 2020 
Q 2781 2228 2272 2228 
L 1259 2228 
z
M 1259 4147 
L 1259 2741 
L 2194 2741 
Q 2656 2741 2882 2914 
Q 3109 3088 3109 3444 
Q 3109 3797 2882 3972 
Q 2656 4147 2194 4147 
L 1259 4147 
z
M 628 4666 
L 2241 4666 
Q 2963 4666 3353 4366 
Q 3744 4066 3744 3513 
Q 3744 3084 3544 2831 
Q 3344 2578 2956 2516 
Q 3422 2416 3680 2098 
Q 3938 1781 3938 1306 
Q 3938 681 3513 340 
Q 3088 0 2303 0 
L 628 0 
L 628 4666 
z
" transform="scale(0.015625)"/>
      <path id="DejaVuSans-6c" d="M 603 4863 
L 1178 4863 
L 1178 0 
L 603 0 
L 603 4863 
z
" transform="scale(0.015625)"/>
     </defs>
     <use xlink:href="#DejaVuSans-46"/>
     <use xlink:href="#DejaVuSans-65" x="52.019531"/>
     <use xlink:href="#DejaVuSans-69" x="113.542969"/>
     <use xlink:href="#DejaVuSans-6e" x="141.326172"/>
     <use xlink:href="#DejaVuSans-73" x="204.705078"/>
     <use xlink:href="#DejaVuSans-74" x="256.804688"/>
     <use xlink:href="#DejaVuSans-61" x="296.013672"/>
     <use xlink:href="#DejaVuSans-75" x="357.292969"/>
     <use xlink:href="#DejaVuSans-62" x="420.671875"/>
     <use xlink:href="#DejaVuSans-6b" x="484.148438"/>
     <use xlink:href="#DejaVuSans-6f" x="538.433594"/>
     <use xlink:href="#DejaVuSans-6e" x="599.615234"/>
     <use xlink:href="#DejaVuSans-7a" x="662.994141"/>
     <use xlink:href="#DejaVuSans-65" x="715.484375"/>
     <use xlink:href="#DejaVuSans-6e" x="777.007812"/>
     <use xlink:href="#DejaVuSans-74" x="840.386719"/>
     <use xlink:href="#DejaVuSans-72" x="879.595703"/>
     <use xlink:href="#DejaVuSans-61" x="920.708984"/>
     <use xlink:href="#DejaVuSans-74" x="981.988281"/>
     <use xlink:href="#DejaVuSans-69" x="1021.197266"/>
     <use xlink:href="#DejaVuSans-6f" x="1048.980469"/>
     <use xlink:href="#DejaVuSans-6e" x="1110.162109"/>
     <use xlink:href="#DejaVuSans-20" x="1173.541016"/>
     <use xlink:href="#DejaVuSans-61" x="1205.328125"/>
     <use xlink:href="#DejaVuSans-75" x="1266.607422"/>
     <use xlink:href="#DejaVuSans-66" x="1329.986328"/>
     <use xlink:href="#DejaVuSans-20" x="1365.191406"/>
     <use xlink:href="#DejaVuSans-64" x="1396.978516"/>
     <use xlink:href="#DejaVuSans-65" x="1460.455078"/>
     <use xlink:href="#DejaVuSans-6d" x="1521.978516"/>
     <use xlink:href="#DejaVuSans-20" x="1619.390625"/>
     <use xlink:href="#DejaVuSans-42" x="1651.177734"/>
     <use xlink:href="#DejaVuSans-61" x="1719.78125"/>
     <use xlink:href="#DejaVuSans-6c" x="1781.060547"/>
     <use xlink:href="#DejaVuSans-6b" x="1808.84375"/>
     <use xlink:href="#DejaVuSans-6f" x="1863.128906"/>
     <use xlink:href="#DejaVuSans-6e" x="1924.310547"/>
    </g>
   </g>
   <g id="legend_1">
    <g id="patch_7">
     <path d="M 78.28 168.945 
L 262.42375 168.945 
Q 266.42375 168.945 266.42375 164.945 
L 266.42375 49.52 
Q 266.42375 45.52 262.42375 45.52 
L 78.28 45.52 
Q 74.28 45.52 74.28 49.52 
L 74.28 164.945 
Q 74.28 168.945 78.28 168.945 
z
" style="fill: #ffffff; opacity: 0.8; stroke: #cccccc; stroke-linejoin: miter"/>
    </g>
    <g id="line2d_17">
     <path d="M 82.28 61.716875 
L 102.28 61.716875 
L 122.28 61.716875 
" style="fill: none; stroke: #1f77b4; stroke-width: 1.5; stroke-linecap: square"/>
    </g>
    <g id="text_16">
     <!-- Bucket0,3-1 -->
     <g transform="translate(138.28 68.716875) scale(0.2 -0.2)">
      <defs>
       <path id="DejaVuSans-63" d="M 3122 3366 
L 3122 2828 
Q 2878 2963 2633 3030 
Q 2388 3097 2138 3097 
Q 1578 3097 1268 2742 
Q 959 2388 959 1747 
Q 959 1106 1268 751 
Q 1578 397 2138 397 
Q 2388 397 2633 464 
Q 2878 531 3122 666 
L 3122 134 
Q 2881 22 2623 -34 
Q 2366 -91 2075 -91 
Q 1284 -91 818 406 
Q 353 903 353 1747 
Q 353 2603 823 3093 
Q 1294 3584 2113 3584 
Q 2378 3584 2631 3529 
Q 2884 3475 3122 3366 
z
" transform="scale(0.015625)"/>
       <path id="DejaVuSans-2c" d="M 750 794 
L 1409 794 
L 1409 256 
L 897 -744 
L 494 -744 
L 750 256 
L 750 794 
z
" transform="scale(0.015625)"/>
       <path id="DejaVuSans-2d" d="M 313 2009 
L 1997 2009 
L 1997 1497 
L 313 1497 
L 313 2009 
z
" transform="scale(0.015625)"/>
      </defs>
      <use xlink:href="#DejaVuSans-42"/>
      <use xlink:href="#DejaVuSans-75" x="68.603516"/>
      <use xlink:href="#DejaVuSans-63" x="131.982422"/>
      <use xlink:href="#DejaVuSans-6b" x="186.962891"/>
      <use xlink:href="#DejaVuSans-65" x="241.248047"/>
      <use xlink:href="#DejaVuSans-74" x="302.771484"/>
      <use xlink:href="#DejaVuSans-30" x="341.980469"/>
      <use xlink:href="#DejaVuSans-2c" x="405.603516"/>
      <use xlink:href="#DejaVuSans-33" x="437.390625"/>
      <use xlink:href="#DejaVuSans-2d" x="501.013672"/>
      <use xlink:href="#DejaVuSans-31" x="537.097656"/>
     </g>
    </g>
    <g id="line2d_18">
     <path d="M 82.28 91.073125 
L 102.28 91.073125 
L 122.28 91.073125 
" style="fill: none; stroke: #ff7f0e; stroke-width: 1.5; stroke-linecap: square"/>
    </g>
    <g id="text_17">
     <!-- Bucket1-2,5 -->
     <g transform="translate(138.28 98.073125) scale(0.2 -0.2)">
      <use xlink:href="#DejaVuSans-42"/>
      <use xlink:href="#DejaVuSans-75" x="68.603516"/>
      <use xlink:href="#DejaVuSans-63" x="131.982422"/>
      <use xlink:href="#DejaVuSans-6b" x="186.962891"/>
      <use xlink:href="#DejaVuSans-65" x="241.248047"/>
      <use xlink:href="#DejaVuSans-74" x="302.771484"/>
      <use xlink:href="#DejaVuSans-31" x="341.980469"/>
      <use xlink:href="#DejaVuSans-2d" x="405.603516"/>
      <use xlink:href="#DejaVuSans-32" x="441.6875"/>
      <use xlink:href="#DejaVuSans-2c" x="505.310547"/>
      <use xlink:href="#DejaVuSans-35" x="537.097656"/>
     </g>
    </g>
    <g id="line2d_19">
     <path d="M 82.28 120.429375 
L 102.28 120.429375 
L 122.28 120.429375 
" style="fill: none; stroke: #2ca02c; stroke-width: 1.5; stroke-linecap: square"/>
    </g>
    <g id="text_18">
     <!-- Bucket2,5-4 -->
     <g transform="translate(138.28 127.429375) scale(0.2 -0.2)">
      <use xlink:href="#DejaVuSans-42"/>
      <use xlink:href="#DejaVuSans-75" x="68.603516"/>
      <use xlink:href="#DejaVuSans-63" x="131.982422"/>
      <use xlink:href="#DejaVuSans-6b" x="186.962891"/>
      <use xlink:href="#DejaVuSans-65" x="241.248047"/>
      <use xlink:href="#DejaVuSans-74" x="302.771484"/>
      <use xlink:href="#DejaVuSans-32" x="341.980469"/>
      <use xlink:href="#DejaVuSans-2c" x="405.603516"/>
      <use xlink:href="#DejaVuSans-35" x="437.390625"/>
      <use xlink:href="#DejaVuSans-2d" x="501.013672"/>
      <use xlink:href="#DejaVuSans-34" x="537.097656"/>
     </g>
    </g>
    <g id="line2d_20">
     <path d="M 82.28 149.785625 
L 102.28 149.785625 
L 122.28 149.785625 
" style="fill: none; stroke: #d62728; stroke-width: 1.5; stroke-linecap: square"/>
    </g>
    <g id="text_19">
     <!-- Bucket4-10 -->
     <g transform="translate(138.28 156.785625) scale(0.2 -0.2)">
      <use xlink:href="#DejaVuSans-42"/>
      <use xlink:href="#DejaVuSans-75" x="68.603516"/>
      <use xlink:href="#DejaVuSans-63" x="131.982422"/>
      <use xlink:href="#DejaVuSans-6b" x="186.962891"/>
      <use xlink:href="#DejaVuSans-65" x="241.248047"/>
      <use xlink:href="#DejaVuSans-74" x="302.771484"/>
      <use xlink:href="#DejaVuSans-34" x="341.980469"/>
      <use xlink:href="#DejaVuSans-2d" x="405.603516"/>
      <use xlink:href="#DejaVuSans-31" x="441.6875"/>
      <use xlink:href="#DejaVuSans-30" x="505.310547"/>
     </g>
    </g>
   </g>
  </g>
 </g>
 <defs>
  <clipPath id="pf46b92476a">
   <rect x="64.28" y="35.52" width="785.402662" height="484.84"/>
  </clipPath>
 </defs>
</svg>
