<?xml version="1.0" encoding="utf-8" standalone="no"?>
<!DOCTYPE svg PUBLIC "-//W3C//DTD SVG 1.1//EN"
  "http://www.w3.org/Graphics/SVG/1.1/DTD/svg11.dtd">
<svg xmlns:xlink="http://www.w3.org/1999/xlink" width="864pt" height="576pt" viewBox="0 0 864 576" xmlns="http://www.w3.org/2000/svg" version="1.1">
 <metadata>
  <rdf:RDF xmlns:dc="http://purl.org/dc/elements/1.1/" xmlns:cc="http://creativecommons.org/ns#" xmlns:rdf="http://www.w3.org/1999/02/22-rdf-syntax-ns#">
   <cc:Work>
    <dc:type rdf:resource="http://purl.org/dc/dcmitype/StillImage"/>
    <dc:date>2023-12-21T20:37:07.632809</dc:date>
    <dc:format>image/svg+xml</dc:format>
    <dc:creator>
     <cc:Agent>
      <dc:title>Matplotlib v3.8.2, https://matplotlib.org/</dc:title>
     </cc:Agent>
    </dc:creator>
   </cc:Work>
  </rdf:RDF>
 </metadata>
 <defs>
  <style type="text/css">*{stroke-linejoin: round; stroke-linecap: butt}</style>
 </defs>
 <g id="figure_1">
  <g id="patch_1">
   <path d="M 0 576 
L 864 576 
L 864 0 
L 0 0 
z
" style="fill: #ffffff"/>
  </g>
  <g id="axes_1">
   <g id="patch_2">
    <path d="M 73.1 486.552772 
L 853.2 486.552772 
L 853.2 36.24 
L 73.1 36.24 
z
" style="fill: #ffffff"/>
   </g>
   <g id="matplotlib.axis_1">
    <g id="xtick_1">
     <g id="line2d_1">
      <defs>
       <path id="mcd01c50abf" d="M 0 0 
L 0 3.5 
" style="stroke: #000000; stroke-width: 0.8"/>
      </defs>
      <g>
       <use xlink:href="#mcd01c50abf" x="129.500896" y="486.552772" style="stroke: #000000; stroke-width: 0.8"/>
      </g>
     </g>
     <g id="text_1">
      <!-- 20 22:00 -->
      <g transform="translate(73.822723 534.070701) rotate(-30) scale(0.14 -0.14)">
       <defs>
        <path id="DejaVuSans-32" d="M 1228 531 
L 3431 531 
L 3431 0 
L 469 0 
L 469 531 
Q 828 903 1448 1529 
Q 2069 2156 2228 2338 
Q 2531 2678 2651 2914 
Q 2772 3150 2772 3378 
Q 2772 3750 2511 3984 
Q 2250 4219 1831 4219 
Q 1534 4219 1204 4116 
Q 875 4013 500 3803 
L 500 4441 
Q 881 4594 1212 4672 
Q 1544 4750 1819 4750 
Q 2544 4750 2975 4387 
Q 3406 4025 3406 3419 
Q 3406 3131 3298 2873 
Q 3191 2616 2906 2266 
Q 2828 2175 2409 1742 
Q 1991 1309 1228 531 
z
" transform="scale(0.015625)"/>
        <path id="DejaVuSans-30" d="M 2034 4250 
Q 1547 4250 1301 3770 
Q 1056 3291 1056 2328 
Q 1056 1369 1301 889 
Q 1547 409 2034 409 
Q 2525 409 2770 889 
Q 3016 1369 3016 2328 
Q 3016 3291 2770 3770 
Q 2525 4250 2034 4250 
z
M 2034 4750 
Q 2819 4750 3233 4129 
Q 3647 3509 3647 2328 
Q 3647 1150 3233 529 
Q 2819 -91 2034 -91 
Q 1250 -91 836 529 
Q 422 1150 422 2328 
Q 422 3509 836 4129 
Q 1250 4750 2034 4750 
z
" transform="scale(0.015625)"/>
        <path id="DejaVuSans-20" transform="scale(0.015625)"/>
        <path id="DejaVuSans-3a" d="M 750 794 
L 1409 794 
L 1409 0 
L 750 0 
L 750 794 
z
M 750 3309 
L 1409 3309 
L 1409 2516 
L 750 2516 
L 750 3309 
z
" transform="scale(0.015625)"/>
       </defs>
       <use xlink:href="#DejaVuSans-32"/>
       <use xlink:href="#DejaVuSans-30" x="63.623047"/>
       <use xlink:href="#DejaVuSans-20" x="127.246094"/>
       <use xlink:href="#DejaVuSans-32" x="159.033203"/>
       <use xlink:href="#DejaVuSans-32" x="222.65625"/>
       <use xlink:href="#DejaVuSans-3a" x="286.279297"/>
       <use xlink:href="#DejaVuSans-30" x="319.970703"/>
       <use xlink:href="#DejaVuSans-30" x="383.59375"/>
      </g>
     </g>
    </g>
    <g id="xtick_2">
     <g id="line2d_2">
      <g>
       <use xlink:href="#mcd01c50abf" x="209.363714" y="486.552772" style="stroke: #000000; stroke-width: 0.8"/>
      </g>
     </g>
     <g id="text_2">
      <!-- 20 22:15 -->
      <g transform="translate(153.685541 534.070701) rotate(-30) scale(0.14 -0.14)">
       <defs>
        <path id="DejaVuSans-31" d="M 794 531 
L 1825 531 
L 1825 4091 
L 703 3866 
L 703 4441 
L 1819 4666 
L 2450 4666 
L 2450 531 
L 3481 531 
L 3481 0 
L 794 0 
L 794 531 
z
" transform="scale(0.015625)"/>
        <path id="DejaVuSans-35" d="M 691 4666 
L 3169 4666 
L 3169 4134 
L 1269 4134 
L 1269 2991 
Q 1406 3038 1543 3061 
Q 1681 3084 1819 3084 
Q 2600 3084 3056 2656 
Q 3513 2228 3513 1497 
Q 3513 744 3044 326 
Q 2575 -91 1722 -91 
Q 1428 -91 1123 -41 
Q 819 9 494 109 
L 494 744 
Q 775 591 1075 516 
Q 1375 441 1709 441 
Q 2250 441 2565 725 
Q 2881 1009 2881 1497 
Q 2881 1984 2565 2268 
Q 2250 2553 1709 2553 
Q 1456 2553 1204 2497 
Q 953 2441 691 2322 
L 691 4666 
z
" transform="scale(0.015625)"/>
       </defs>
       <use xlink:href="#DejaVuSans-32"/>
       <use xlink:href="#DejaVuSans-30" x="63.623047"/>
       <use xlink:href="#DejaVuSans-20" x="127.246094"/>
       <use xlink:href="#DejaVuSans-32" x="159.033203"/>
       <use xlink:href="#DejaVuSans-32" x="222.65625"/>
       <use xlink:href="#DejaVuSans-3a" x="286.279297"/>
       <use xlink:href="#DejaVuSans-31" x="319.970703"/>
       <use xlink:href="#DejaVuSans-35" x="383.59375"/>
      </g>
     </g>
    </g>
    <g id="xtick_3">
     <g id="line2d_3">
      <g>
       <use xlink:href="#mcd01c50abf" x="289.226531" y="486.552772" style="stroke: #000000; stroke-width: 0.8"/>
      </g>
     </g>
     <g id="text_3">
      <!-- 20 22:30 -->
      <g transform="translate(233.548358 534.070701) rotate(-30) scale(0.14 -0.14)">
       <defs>
        <path id="DejaVuSans-33" d="M 2597 2516 
Q 3050 2419 3304 2112 
Q 3559 1806 3559 1356 
Q 3559 666 3084 287 
Q 2609 -91 1734 -91 
Q 1441 -91 1130 -33 
Q 819 25 488 141 
L 488 750 
Q 750 597 1062 519 
Q 1375 441 1716 441 
Q 2309 441 2620 675 
Q 2931 909 2931 1356 
Q 2931 1769 2642 2001 
Q 2353 2234 1838 2234 
L 1294 2234 
L 1294 2753 
L 1863 2753 
Q 2328 2753 2575 2939 
Q 2822 3125 2822 3475 
Q 2822 3834 2567 4026 
Q 2313 4219 1838 4219 
Q 1578 4219 1281 4162 
Q 984 4106 628 3988 
L 628 4550 
Q 988 4650 1302 4700 
Q 1616 4750 1894 4750 
Q 2613 4750 3031 4423 
Q 3450 4097 3450 3541 
Q 3450 3153 3228 2886 
Q 3006 2619 2597 2516 
z
" transform="scale(0.015625)"/>
       </defs>
       <use xlink:href="#DejaVuSans-32"/>
       <use xlink:href="#DejaVuSans-30" x="63.623047"/>
       <use xlink:href="#DejaVuSans-20" x="127.246094"/>
       <use xlink:href="#DejaVuSans-32" x="159.033203"/>
       <use xlink:href="#DejaVuSans-32" x="222.65625"/>
       <use xlink:href="#DejaVuSans-3a" x="286.279297"/>
       <use xlink:href="#DejaVuSans-33" x="319.970703"/>
       <use xlink:href="#DejaVuSans-30" x="383.59375"/>
      </g>
     </g>
    </g>
    <g id="xtick_4">
     <g id="line2d_4">
      <g>
       <use xlink:href="#mcd01c50abf" x="369.089348" y="486.552772" style="stroke: #000000; stroke-width: 0.8"/>
      </g>
     </g>
     <g id="text_4">
      <!-- 20 22:45 -->
      <g transform="translate(313.411175 534.070701) rotate(-30) scale(0.14 -0.14)">
       <defs>
        <path id="DejaVuSans-34" d="M 2419 4116 
L 825 1625 
L 2419 1625 
L 2419 4116 
z
M 2253 4666 
L 3047 4666 
L 3047 1625 
L 3713 1625 
L 3713 1100 
L 3047 1100 
L 3047 0 
L 2419 0 
L 2419 1100 
L 313 1100 
L 313 1709 
L 2253 4666 
z
" transform="scale(0.015625)"/>
       </defs>
       <use xlink:href="#DejaVuSans-32"/>
       <use xlink:href="#DejaVuSans-30" x="63.623047"/>
       <use xlink:href="#DejaVuSans-20" x="127.246094"/>
       <use xlink:href="#DejaVuSans-32" x="159.033203"/>
       <use xlink:href="#DejaVuSans-32" x="222.65625"/>
       <use xlink:href="#DejaVuSans-3a" x="286.279297"/>
       <use xlink:href="#DejaVuSans-34" x="319.970703"/>
       <use xlink:href="#DejaVuSans-35" x="383.59375"/>
      </g>
     </g>
    </g>
    <g id="xtick_5">
     <g id="line2d_5">
      <g>
       <use xlink:href="#mcd01c50abf" x="448.952166" y="486.552772" style="stroke: #000000; stroke-width: 0.8"/>
      </g>
     </g>
     <g id="text_5">
      <!-- 20 23:00 -->
      <g transform="translate(393.273993 534.070701) rotate(-30) scale(0.14 -0.14)">
       <use xlink:href="#DejaVuSans-32"/>
       <use xlink:href="#DejaVuSans-30" x="63.623047"/>
       <use xlink:href="#DejaVuSans-20" x="127.246094"/>
       <use xlink:href="#DejaVuSans-32" x="159.033203"/>
       <use xlink:href="#DejaVuSans-33" x="222.65625"/>
       <use xlink:href="#DejaVuSans-3a" x="286.279297"/>
       <use xlink:href="#DejaVuSans-30" x="319.970703"/>
       <use xlink:href="#DejaVuSans-30" x="383.59375"/>
      </g>
     </g>
    </g>
    <g id="xtick_6">
     <g id="line2d_6">
      <g>
       <use xlink:href="#mcd01c50abf" x="528.814983" y="486.552772" style="stroke: #000000; stroke-width: 0.8"/>
      </g>
     </g>
     <g id="text_6">
      <!-- 20 23:15 -->
      <g transform="translate(473.13681 534.070701) rotate(-30) scale(0.14 -0.14)">
       <use xlink:href="#DejaVuSans-32"/>
       <use xlink:href="#DejaVuSans-30" x="63.623047"/>
       <use xlink:href="#DejaVuSans-20" x="127.246094"/>
       <use xlink:href="#DejaVuSans-32" x="159.033203"/>
       <use xlink:href="#DejaVuSans-33" x="222.65625"/>
       <use xlink:href="#DejaVuSans-3a" x="286.279297"/>
       <use xlink:href="#DejaVuSans-31" x="319.970703"/>
       <use xlink:href="#DejaVuSans-35" x="383.59375"/>
      </g>
     </g>
    </g>
    <g id="xtick_7">
     <g id="line2d_7">
      <g>
       <use xlink:href="#mcd01c50abf" x="608.677801" y="486.552772" style="stroke: #000000; stroke-width: 0.8"/>
      </g>
     </g>
     <g id="text_7">
      <!-- 20 23:30 -->
      <g transform="translate(552.999627 534.070701) rotate(-30) scale(0.14 -0.14)">
       <use xlink:href="#DejaVuSans-32"/>
       <use xlink:href="#DejaVuSans-30" x="63.623047"/>
       <use xlink:href="#DejaVuSans-20" x="127.246094"/>
       <use xlink:href="#DejaVuSans-32" x="159.033203"/>
       <use xlink:href="#DejaVuSans-33" x="222.65625"/>
       <use xlink:href="#DejaVuSans-3a" x="286.279297"/>
       <use xlink:href="#DejaVuSans-33" x="319.970703"/>
       <use xlink:href="#DejaVuSans-30" x="383.59375"/>
      </g>
     </g>
    </g>
    <g id="xtick_8">
     <g id="line2d_8">
      <g>
       <use xlink:href="#mcd01c50abf" x="688.540618" y="486.552772" style="stroke: #000000; stroke-width: 0.8"/>
      </g>
     </g>
     <g id="text_8">
      <!-- 20 23:45 -->
      <g transform="translate(632.862445 534.070701) rotate(-30) scale(0.14 -0.14)">
       <use xlink:href="#DejaVuSans-32"/>
       <use xlink:href="#DejaVuSans-30" x="63.623047"/>
       <use xlink:href="#DejaVuSans-20" x="127.246094"/>
       <use xlink:href="#DejaVuSans-32" x="159.033203"/>
       <use xlink:href="#DejaVuSans-33" x="222.65625"/>
       <use xlink:href="#DejaVuSans-3a" x="286.279297"/>
       <use xlink:href="#DejaVuSans-34" x="319.970703"/>
       <use xlink:href="#DejaVuSans-35" x="383.59375"/>
      </g>
     </g>
    </g>
    <g id="xtick_9">
     <g id="line2d_9">
      <g>
       <use xlink:href="#mcd01c50abf" x="768.403435" y="486.552772" style="stroke: #000000; stroke-width: 0.8"/>
      </g>
     </g>
     <g id="text_9">
      <!-- 21 00:00 -->
      <g transform="translate(712.725262 534.070701) rotate(-30) scale(0.14 -0.14)">
       <use xlink:href="#DejaVuSans-32"/>
       <use xlink:href="#DejaVuSans-31" x="63.623047"/>
       <use xlink:href="#DejaVuSans-20" x="127.246094"/>
       <use xlink:href="#DejaVuSans-30" x="159.033203"/>
       <use xlink:href="#DejaVuSans-30" x="222.65625"/>
       <use xlink:href="#DejaVuSans-3a" x="286.279297"/>
       <use xlink:href="#DejaVuSans-30" x="319.970703"/>
       <use xlink:href="#DejaVuSans-30" x="383.59375"/>
      </g>
     </g>
    </g>
    <g id="xtick_10">
     <g id="line2d_10">
      <g>
       <use xlink:href="#mcd01c50abf" x="848.266253" y="486.552772" style="stroke: #000000; stroke-width: 0.8"/>
      </g>
     </g>
     <g id="text_10">
      <!-- 21 00:15 -->
      <g transform="translate(792.58808 534.070701) rotate(-30) scale(0.14 -0.14)">
       <use xlink:href="#DejaVuSans-32"/>
       <use xlink:href="#DejaVuSans-31" x="63.623047"/>
       <use xlink:href="#DejaVuSans-20" x="127.246094"/>
       <use xlink:href="#DejaVuSans-30" x="159.033203"/>
       <use xlink:href="#DejaVuSans-30" x="222.65625"/>
       <use xlink:href="#DejaVuSans-3a" x="286.279297"/>
       <use xlink:href="#DejaVuSans-31" x="319.970703"/>
       <use xlink:href="#DejaVuSans-35" x="383.59375"/>
      </g>
     </g>
    </g>
    <g id="text_11">
     <!-- Tag und Uhrzeit -->
     <g transform="translate(361.514375 560.348125) scale(0.26 -0.26)">
      <defs>
       <path id="DejaVuSans-54" d="M -19 4666 
L 3928 4666 
L 3928 4134 
L 2272 4134 
L 2272 0 
L 1638 0 
L 1638 4134 
L -19 4134 
L -19 4666 
z
" transform="scale(0.015625)"/>
       <path id="DejaVuSans-61" d="M 2194 1759 
Q 1497 1759 1228 1600 
Q 959 1441 959 1056 
Q 959 750 1161 570 
Q 1363 391 1709 391 
Q 2188 391 2477 730 
Q 2766 1069 2766 1631 
L 2766 1759 
L 2194 1759 
z
M 3341 1997 
L 3341 0 
L 2766 0 
L 2766 531 
Q 2569 213 2275 61 
Q 1981 -91 1556 -91 
Q 1019 -91 701 211 
Q 384 513 384 1019 
Q 384 1609 779 1909 
Q 1175 2209 1959 2209 
L 2766 2209 
L 2766 2266 
Q 2766 2663 2505 2880 
Q 2244 3097 1772 3097 
Q 1472 3097 1187 3025 
Q 903 2953 641 2809 
L 641 3341 
Q 956 3463 1253 3523 
Q 1550 3584 1831 3584 
Q 2591 3584 2966 3190 
Q 3341 2797 3341 1997 
z
" transform="scale(0.015625)"/>
       <path id="DejaVuSans-67" d="M 2906 1791 
Q 2906 2416 2648 2759 
Q 2391 3103 1925 3103 
Q 1463 3103 1205 2759 
Q 947 2416 947 1791 
Q 947 1169 1205 825 
Q 1463 481 1925 481 
Q 2391 481 2648 825 
Q 2906 1169 2906 1791 
z
M 3481 434 
Q 3481 -459 3084 -895 
Q 2688 -1331 1869 -1331 
Q 1566 -1331 1297 -1286 
Q 1028 -1241 775 -1147 
L 775 -588 
Q 1028 -725 1275 -790 
Q 1522 -856 1778 -856 
Q 2344 -856 2625 -561 
Q 2906 -266 2906 331 
L 2906 616 
Q 2728 306 2450 153 
Q 2172 0 1784 0 
Q 1141 0 747 490 
Q 353 981 353 1791 
Q 353 2603 747 3093 
Q 1141 3584 1784 3584 
Q 2172 3584 2450 3431 
Q 2728 3278 2906 2969 
L 2906 3500 
L 3481 3500 
L 3481 434 
z
" transform="scale(0.015625)"/>
       <path id="DejaVuSans-75" d="M 544 1381 
L 544 3500 
L 1119 3500 
L 1119 1403 
Q 1119 906 1312 657 
Q 1506 409 1894 409 
Q 2359 409 2629 706 
Q 2900 1003 2900 1516 
L 2900 3500 
L 3475 3500 
L 3475 0 
L 2900 0 
L 2900 538 
Q 2691 219 2414 64 
Q 2138 -91 1772 -91 
Q 1169 -91 856 284 
Q 544 659 544 1381 
z
M 1991 3584 
L 1991 3584 
z
" transform="scale(0.015625)"/>
       <path id="DejaVuSans-6e" d="M 3513 2113 
L 3513 0 
L 2938 0 
L 2938 2094 
Q 2938 2591 2744 2837 
Q 2550 3084 2163 3084 
Q 1697 3084 1428 2787 
Q 1159 2491 1159 1978 
L 1159 0 
L 581 0 
L 581 3500 
L 1159 3500 
L 1159 2956 
Q 1366 3272 1645 3428 
Q 1925 3584 2291 3584 
Q 2894 3584 3203 3211 
Q 3513 2838 3513 2113 
z
" transform="scale(0.015625)"/>
       <path id="DejaVuSans-64" d="M 2906 2969 
L 2906 4863 
L 3481 4863 
L 3481 0 
L 2906 0 
L 2906 525 
Q 2725 213 2448 61 
Q 2172 -91 1784 -91 
Q 1150 -91 751 415 
Q 353 922 353 1747 
Q 353 2572 751 3078 
Q 1150 3584 1784 3584 
Q 2172 3584 2448 3432 
Q 2725 3281 2906 2969 
z
M 947 1747 
Q 947 1113 1208 752 
Q 1469 391 1925 391 
Q 2381 391 2643 752 
Q 2906 1113 2906 1747 
Q 2906 2381 2643 2742 
Q 2381 3103 1925 3103 
Q 1469 3103 1208 2742 
Q 947 2381 947 1747 
z
" transform="scale(0.015625)"/>
       <path id="DejaVuSans-55" d="M 556 4666 
L 1191 4666 
L 1191 1831 
Q 1191 1081 1462 751 
Q 1734 422 2344 422 
Q 2950 422 3222 751 
Q 3494 1081 3494 1831 
L 3494 4666 
L 4128 4666 
L 4128 1753 
Q 4128 841 3676 375 
Q 3225 -91 2344 -91 
Q 1459 -91 1007 375 
Q 556 841 556 1753 
L 556 4666 
z
" transform="scale(0.015625)"/>
       <path id="DejaVuSans-68" d="M 3513 2113 
L 3513 0 
L 2938 0 
L 2938 2094 
Q 2938 2591 2744 2837 
Q 2550 3084 2163 3084 
Q 1697 3084 1428 2787 
Q 1159 2491 1159 1978 
L 1159 0 
L 581 0 
L 581 4863 
L 1159 4863 
L 1159 2956 
Q 1366 3272 1645 3428 
Q 1925 3584 2291 3584 
Q 2894 3584 3203 3211 
Q 3513 2838 3513 2113 
z
" transform="scale(0.015625)"/>
       <path id="DejaVuSans-72" d="M 2631 2963 
Q 2534 3019 2420 3045 
Q 2306 3072 2169 3072 
Q 1681 3072 1420 2755 
Q 1159 2438 1159 1844 
L 1159 0 
L 581 0 
L 581 3500 
L 1159 3500 
L 1159 2956 
Q 1341 3275 1631 3429 
Q 1922 3584 2338 3584 
Q 2397 3584 2469 3576 
Q 2541 3569 2628 3553 
L 2631 2963 
z
" transform="scale(0.015625)"/>
       <path id="DejaVuSans-7a" d="M 353 3500 
L 3084 3500 
L 3084 2975 
L 922 459 
L 3084 459 
L 3084 0 
L 275 0 
L 275 525 
L 2438 3041 
L 353 3041 
L 353 3500 
z
" transform="scale(0.015625)"/>
       <path id="DejaVuSans-65" d="M 3597 1894 
L 3597 1613 
L 953 1613 
Q 991 1019 1311 708 
Q 1631 397 2203 397 
Q 2534 397 2845 478 
Q 3156 559 3463 722 
L 3463 178 
Q 3153 47 2828 -22 
Q 2503 -91 2169 -91 
Q 1331 -91 842 396 
Q 353 884 353 1716 
Q 353 2575 817 3079 
Q 1281 3584 2069 3584 
Q 2775 3584 3186 3129 
Q 3597 2675 3597 1894 
z
M 3022 2063 
Q 3016 2534 2758 2815 
Q 2500 3097 2075 3097 
Q 1594 3097 1305 2825 
Q 1016 2553 972 2059 
L 3022 2063 
z
" transform="scale(0.015625)"/>
       <path id="DejaVuSans-69" d="M 603 3500 
L 1178 3500 
L 1178 0 
L 603 0 
L 603 3500 
z
M 603 4863 
L 1178 4863 
L 1178 4134 
L 603 4134 
L 603 4863 
z
" transform="scale(0.015625)"/>
       <path id="DejaVuSans-74" d="M 1172 4494 
L 1172 3500 
L 2356 3500 
L 2356 3053 
L 1172 3053 
L 1172 1153 
Q 1172 725 1289 603 
Q 1406 481 1766 481 
L 2356 481 
L 2356 0 
L 1766 0 
Q 1100 0 847 248 
Q 594 497 594 1153 
L 594 3053 
L 172 3053 
L 172 3500 
L 594 3500 
L 594 4494 
L 1172 4494 
z
" transform="scale(0.015625)"/>
      </defs>
      <use xlink:href="#DejaVuSans-54"/>
      <use xlink:href="#DejaVuSans-61" x="44.583984"/>
      <use xlink:href="#DejaVuSans-67" x="105.863281"/>
      <use xlink:href="#DejaVuSans-20" x="169.339844"/>
      <use xlink:href="#DejaVuSans-75" x="201.126953"/>
      <use xlink:href="#DejaVuSans-6e" x="264.505859"/>
      <use xlink:href="#DejaVuSans-64" x="327.884766"/>
      <use xlink:href="#DejaVuSans-20" x="391.361328"/>
      <use xlink:href="#DejaVuSans-55" x="423.148438"/>
      <use xlink:href="#DejaVuSans-68" x="496.341797"/>
      <use xlink:href="#DejaVuSans-72" x="559.720703"/>
      <use xlink:href="#DejaVuSans-7a" x="600.833984"/>
      <use xlink:href="#DejaVuSans-65" x="653.324219"/>
      <use xlink:href="#DejaVuSans-69" x="714.847656"/>
      <use xlink:href="#DejaVuSans-74" x="742.630859"/>
     </g>
    </g>
   </g>
   <g id="matplotlib.axis_2">
    <g id="ytick_1">
     <g id="line2d_11">
      <defs>
       <path id="m4ac12e296a" d="M 0 0 
L -3.5 0 
" style="stroke: #000000; stroke-width: 0.8"/>
      </defs>
      <g>
       <use xlink:href="#m4ac12e296a" x="73.1" y="466.248782" style="stroke: #000000; stroke-width: 0.8"/>
      </g>
     </g>
     <g id="text_12">
      <!-- 0 -->
      <g transform="translate(57.1925 471.567688) scale(0.14 -0.14)">
       <use xlink:href="#DejaVuSans-30"/>
      </g>
     </g>
    </g>
    <g id="ytick_2">
     <g id="line2d_12">
      <g>
       <use xlink:href="#m4ac12e296a" x="73.1" y="414.757631" style="stroke: #000000; stroke-width: 0.8"/>
      </g>
     </g>
     <g id="text_13">
      <!-- 25 -->
      <g transform="translate(48.285 420.076537) scale(0.14 -0.14)">
       <use xlink:href="#DejaVuSans-32"/>
       <use xlink:href="#DejaVuSans-35" x="63.623047"/>
      </g>
     </g>
    </g>
    <g id="ytick_3">
     <g id="line2d_13">
      <g>
       <use xlink:href="#m4ac12e296a" x="73.1" y="363.26648" style="stroke: #000000; stroke-width: 0.8"/>
      </g>
     </g>
     <g id="text_14">
      <!-- 50 -->
      <g transform="translate(48.285 368.585386) scale(0.14 -0.14)">
       <use xlink:href="#DejaVuSans-35"/>
       <use xlink:href="#DejaVuSans-30" x="63.623047"/>
      </g>
     </g>
    </g>
    <g id="ytick_4">
     <g id="line2d_14">
      <g>
       <use xlink:href="#m4ac12e296a" x="73.1" y="311.775328" style="stroke: #000000; stroke-width: 0.8"/>
      </g>
     </g>
     <g id="text_15">
      <!-- 75 -->
      <g transform="translate(48.285 317.094235) scale(0.14 -0.14)">
       <defs>
        <path id="DejaVuSans-37" d="M 525 4666 
L 3525 4666 
L 3525 4397 
L 1831 0 
L 1172 0 
L 2766 4134 
L 525 4134 
L 525 4666 
z
" transform="scale(0.015625)"/>
       </defs>
       <use xlink:href="#DejaVuSans-37"/>
       <use xlink:href="#DejaVuSans-35" x="63.623047"/>
      </g>
     </g>
    </g>
    <g id="ytick_5">
     <g id="line2d_15">
      <g>
       <use xlink:href="#m4ac12e296a" x="73.1" y="260.284177" style="stroke: #000000; stroke-width: 0.8"/>
      </g>
     </g>
     <g id="text_16">
      <!-- 100 -->
      <g transform="translate(39.3775 265.603084) scale(0.14 -0.14)">
       <use xlink:href="#DejaVuSans-31"/>
       <use xlink:href="#DejaVuSans-30" x="63.623047"/>
       <use xlink:href="#DejaVuSans-30" x="127.246094"/>
      </g>
     </g>
    </g>
    <g id="ytick_6">
     <g id="line2d_16">
      <g>
       <use xlink:href="#m4ac12e296a" x="73.1" y="208.793026" style="stroke: #000000; stroke-width: 0.8"/>
      </g>
     </g>
     <g id="text_17">
      <!-- 125 -->
      <g transform="translate(39.3775 214.111933) scale(0.14 -0.14)">
       <use xlink:href="#DejaVuSans-31"/>
       <use xlink:href="#DejaVuSans-32" x="63.623047"/>
       <use xlink:href="#DejaVuSans-35" x="127.246094"/>
      </g>
     </g>
    </g>
    <g id="ytick_7">
     <g id="line2d_17">
      <g>
       <use xlink:href="#m4ac12e296a" x="73.1" y="157.301875" style="stroke: #000000; stroke-width: 0.8"/>
      </g>
     </g>
     <g id="text_18">
      <!-- 150 -->
      <g transform="translate(39.3775 162.620781) scale(0.14 -0.14)">
       <use xlink:href="#DejaVuSans-31"/>
       <use xlink:href="#DejaVuSans-35" x="63.623047"/>
       <use xlink:href="#DejaVuSans-30" x="127.246094"/>
      </g>
     </g>
    </g>
    <g id="ytick_8">
     <g id="line2d_18">
      <g>
       <use xlink:href="#m4ac12e296a" x="73.1" y="105.810724" style="stroke: #000000; stroke-width: 0.8"/>
      </g>
     </g>
     <g id="text_19">
      <!-- 175 -->
      <g transform="translate(39.3775 111.12963) scale(0.14 -0.14)">
       <use xlink:href="#DejaVuSans-31"/>
       <use xlink:href="#DejaVuSans-37" x="63.623047"/>
       <use xlink:href="#DejaVuSans-35" x="127.246094"/>
      </g>
     </g>
    </g>
    <g id="ytick_9">
     <g id="line2d_19">
      <g>
       <use xlink:href="#m4ac12e296a" x="73.1" y="54.319573" style="stroke: #000000; stroke-width: 0.8"/>
      </g>
     </g>
     <g id="text_20">
      <!-- 200 -->
      <g transform="translate(39.3775 59.638479) scale(0.14 -0.14)">
       <use xlink:href="#DejaVuSans-32"/>
       <use xlink:href="#DejaVuSans-30" x="63.623047"/>
       <use xlink:href="#DejaVuSans-30" x="127.246094"/>
      </g>
     </g>
    </g>
    <g id="text_21">
     <!-- Konzentration in μg/m^3 -->
     <g transform="translate(29.970312 424.678417) rotate(-90) scale(0.26 -0.26)">
      <defs>
       <path id="DejaVuSans-4b" d="M 628 4666 
L 1259 4666 
L 1259 2694 
L 3353 4666 
L 4166 4666 
L 1850 2491 
L 4331 0 
L 3500 0 
L 1259 2247 
L 1259 0 
L 628 0 
L 628 4666 
z
" transform="scale(0.015625)"/>
       <path id="DejaVuSans-6f" d="M 1959 3097 
Q 1497 3097 1228 2736 
Q 959 2375 959 1747 
Q 959 1119 1226 758 
Q 1494 397 1959 397 
Q 2419 397 2687 759 
Q 2956 1122 2956 1747 
Q 2956 2369 2687 2733 
Q 2419 3097 1959 3097 
z
M 1959 3584 
Q 2709 3584 3137 3096 
Q 3566 2609 3566 1747 
Q 3566 888 3137 398 
Q 2709 -91 1959 -91 
Q 1206 -91 779 398 
Q 353 888 353 1747 
Q 353 2609 779 3096 
Q 1206 3584 1959 3584 
z
" transform="scale(0.015625)"/>
       <path id="DejaVuSans-3bc" d="M 544 -1331 
L 544 3500 
L 1119 3500 
L 1119 1325 
Q 1119 872 1334 640 
Q 1550 409 1972 409 
Q 2434 409 2667 671 
Q 2900 934 2900 1459 
L 2900 3500 
L 3475 3500 
L 3475 806 
Q 3475 619 3529 530 
Q 3584 441 3700 441 
Q 3728 441 3778 458 
Q 3828 475 3916 513 
L 3916 50 
Q 3788 -22 3673 -56 
Q 3559 -91 3450 -91 
Q 3234 -91 3106 31 
Q 2978 153 2931 403 
Q 2775 156 2548 32 
Q 2322 -91 2016 -91 
Q 1697 -91 1473 31 
Q 1250 153 1119 397 
L 1119 -1331 
L 544 -1331 
z
" transform="scale(0.015625)"/>
       <path id="DejaVuSans-2f" d="M 1625 4666 
L 2156 4666 
L 531 -594 
L 0 -594 
L 1625 4666 
z
" transform="scale(0.015625)"/>
       <path id="DejaVuSans-6d" d="M 3328 2828 
Q 3544 3216 3844 3400 
Q 4144 3584 4550 3584 
Q 5097 3584 5394 3201 
Q 5691 2819 5691 2113 
L 5691 0 
L 5113 0 
L 5113 2094 
Q 5113 2597 4934 2840 
Q 4756 3084 4391 3084 
Q 3944 3084 3684 2787 
Q 3425 2491 3425 1978 
L 3425 0 
L 2847 0 
L 2847 2094 
Q 2847 2600 2669 2842 
Q 2491 3084 2119 3084 
Q 1678 3084 1418 2786 
Q 1159 2488 1159 1978 
L 1159 0 
L 581 0 
L 581 3500 
L 1159 3500 
L 1159 2956 
Q 1356 3278 1631 3431 
Q 1906 3584 2284 3584 
Q 2666 3584 2933 3390 
Q 3200 3197 3328 2828 
z
" transform="scale(0.015625)"/>
       <path id="DejaVuSans-5e" d="M 2988 4666 
L 4684 2925 
L 4056 2925 
L 2681 4159 
L 1306 2925 
L 678 2925 
L 2375 4666 
L 2988 4666 
z
" transform="scale(0.015625)"/>
      </defs>
      <use xlink:href="#DejaVuSans-4b"/>
      <use xlink:href="#DejaVuSans-6f" x="60.576172"/>
      <use xlink:href="#DejaVuSans-6e" x="121.757812"/>
      <use xlink:href="#DejaVuSans-7a" x="185.136719"/>
      <use xlink:href="#DejaVuSans-65" x="237.626953"/>
      <use xlink:href="#DejaVuSans-6e" x="299.150391"/>
      <use xlink:href="#DejaVuSans-74" x="362.529297"/>
      <use xlink:href="#DejaVuSans-72" x="401.738281"/>
      <use xlink:href="#DejaVuSans-61" x="442.851562"/>
      <use xlink:href="#DejaVuSans-74" x="504.130859"/>
      <use xlink:href="#DejaVuSans-69" x="543.339844"/>
      <use xlink:href="#DejaVuSans-6f" x="571.123047"/>
      <use xlink:href="#DejaVuSans-6e" x="632.304688"/>
      <use xlink:href="#DejaVuSans-20" x="695.683594"/>
      <use xlink:href="#DejaVuSans-69" x="727.470703"/>
      <use xlink:href="#DejaVuSans-6e" x="755.253906"/>
      <use xlink:href="#DejaVuSans-20" x="818.632812"/>
      <use xlink:href="#DejaVuSans-3bc" x="850.419922"/>
      <use xlink:href="#DejaVuSans-67" x="914.042969"/>
      <use xlink:href="#DejaVuSans-2f" x="977.519531"/>
      <use xlink:href="#DejaVuSans-6d" x="1011.210938"/>
      <use xlink:href="#DejaVuSans-5e" x="1108.623047"/>
      <use xlink:href="#DejaVuSans-33" x="1192.412109"/>
     </g>
    </g>
   </g>
   <g id="line2d_20">
    <path d="M 108.736564 460.111037 
L 109.357719 459.554932 
L 109.890138 459.534336 
L 110.422557 459.822686 
L 111.043712 459.863879 
L 111.576131 459.781493 
L 112.640968 460.605352 
L 113.262123 460.378791 
L 114.326961 459.637318 
L 116.012954 459.328371 
L 116.545373 459.513739 
L 117.166528 459.287178 
L 117.698947 459.45195 
L 118.231365 459.925668 
L 118.852521 460.152229 
L 119.384939 460.069844 
L 119.917358 459.616722 
L 122.13577 458.978231 
L 122.756925 459.328371 
L 124.354181 459.616722 
L 125.507755 460.193422 
L 126.66133 460.131633 
L 128.258586 459.863879 
L 128.879741 459.760897 
L 129.41216 459.513739 
L 129.944579 459.019424 
L 132.16299 459.925668 
L 132.784146 460.317001 
L 133.316564 460.378791 
L 133.848983 460.049247 
L 134.470138 459.822686 
L 136.067395 459.7403 
L 136.68855 459.39016 
L 137.220969 459.45195 
L 137.753387 459.266582 
L 138.374543 459.410757 
L 139.971799 460.955491 
L 140.592954 460.893702 
L 141.125373 460.584755 
L 141.657792 460.131633 
L 142.278947 460.152229 
L 142.811366 459.987458 
L 144.497359 460.069844 
L 145.562196 458.854652 
L 146.71577 459.163599 
L 147.248189 459.575529 
L 148.934182 459.266582 
L 149.466601 458.669284 
L 150.087756 458.566302 
L 150.620175 458.957635 
L 151.152593 459.122406 
L 151.685012 459.143003 
L 152.306168 459.348968 
L 152.838586 459.39016 
L 153.371005 459.616722 
L 153.99216 460.028651 
L 154.524579 459.80209 
L 155.056998 459.80209 
L 156.210572 460.255212 
L 156.742991 460.44058 
L 157.275409 460.193422 
L 157.896565 460.811316 
L 158.428984 461.71756 
L 158.961402 462.108893 
L 159.493821 461.964718 
L 160.114976 462.314858 
L 160.647395 462.76798 
L 161.179814 462.603208 
L 161.800969 462.562015 
L 162.865807 462.870962 
L 163.398226 463.200506 
L 165.705374 462.726787 
L 166.770211 463.05633 
L 167.30263 462.541419 
L 167.923785 462.397244 
L 168.456204 462.459033 
L 168.988623 462.314858 
L 169.609778 462.685594 
L 170.142197 450.327718 
L 170.674616 422.357725 
L 171.82819 386.087358 
L 172.360608 378.116528 
L 172.893027 377.107301 
L 173.514182 380.114384 
L 175.111439 405.983539 
L 176.265013 416.879066 
L 176.797431 420.256886 
L 179.015843 429.504696 
L 179.636998 431.152413 
L 180.169417 432.017465 
L 180.701836 431.790903 
L 181.322991 433.232656 
L 182.387829 436.75465 
L 182.920248 438.381771 
L 183.541403 439.699944 
L 184.073822 439.885312 
L 184.60624 438.834893 
L 185.227396 438.834893 
L 185.759814 439.473383 
L 186.292233 440.48261 
L 187.978226 442.830606 
L 189.664219 448.226879 
L 190.196638 449.895192 
L 190.729056 450.863226 
L 191.350212 451.666488 
L 191.88263 452.696311 
L 192.415049 446.270215 
L 193.036204 369.466014 
L 193.568623 321.620437 
L 194.101042 318.63395 
L 194.633461 325.204221 
L 195.254616 356.181297 
L 195.787035 370.475241 
L 196.319454 377.16909 
L 197.473028 386.458094 
L 198.005446 391.257069 
L 198.537865 393.749241 
L 199.691439 396.715131 
L 200.223858 397.394815 
L 201.377432 400.566669 
L 201.909851 400.875616 
L 202.44227 401.575896 
L 203.063425 402.935262 
L 203.595844 403.697331 
L 204.128262 404.17105 
L 204.749418 405.283259 
L 205.281836 406.601432 
L 205.814255 406.374871 
L 206.346674 407.590062 
L 208.032667 407.590062 
L 208.653822 407.878413 
L 209.71866 408.104974 
L 210.251078 409.073008 
L 211.404652 413.48065 
L 211.937071 412.883353 
L 212.558226 411.647565 
L 213.090645 411.132654 
L 213.623064 413.233493 
L 214.155483 414.263316 
L 214.776638 413.666018 
L 215.309057 412.759774 
L 215.841476 413.377668 
L 216.99505 417.908889 
L 217.527468 417.929486 
L 218.148624 416.034611 
L 218.681042 415.004788 
L 219.213461 415.190156 
L 219.74588 416.425944 
L 220.367035 420.256886 
L 220.899454 421.224919 
L 221.431873 419.803763 
L 221.964292 416.384751 
L 222.585447 413.769001 
L 223.117866 412.265459 
L 223.650284 412.430231 
L 224.803858 415.190156 
L 225.336277 415.416717 
L 225.868696 413.501247 
L 226.489851 413.006932 
L 227.02227 414.53107 
L 227.554689 416.590716 
L 228.175844 420.009728 
L 228.708263 423.943652 
L 229.240682 425.282422 
L 229.861837 425.488387 
L 230.394256 426.497613 
L 231.459093 429.216346 
L 232.080248 426.641788 
L 233.145086 421.039551 
L 233.677505 419.494817 
L 234.29866 419.165273 
L 234.831079 420.1745 
L 235.363498 422.192953 
L 235.984653 423.366951 
L 236.517072 423.77888 
L 237.04949 423.614109 
L 237.581909 424.870493 
L 238.203064 426.80656 
L 238.735483 426.085684 
L 239.267902 425.81793 
L 239.889057 427.774594 
L 240.421476 430.307958 
L 240.953895 431.214203 
L 241.486314 431.028834 
L 242.639888 429.072171 
L 243.172306 428.84561 
L 243.793462 428.371891 
L 244.32588 428.886803 
L 244.858299 429.669468 
L 245.479454 431.17301 
L 246.544292 430.76108 
L 247.697866 429.813643 
L 248.230285 429.175153 
L 248.762704 428.969188 
L 249.383859 429.422311 
L 249.916278 428.289505 
L 250.448696 429.195749 
L 250.981115 431.523149 
L 251.60227 433.665181 
L 252.134689 433.768164 
L 252.667108 434.097707 
L 253.288263 434.097707 
L 253.820682 435.971985 
L 254.88552 436.610475 
L 255.506675 436.322125 
L 256.039094 435.539459 
L 256.571512 435.12753 
L 257.192668 435.106934 
L 257.725086 434.571426 
L 258.257505 433.459217 
L 259.411079 435.148127 
L 259.943498 435.12753 
L 261.097072 437.331351 
L 262.16191 440.194259 
L 262.694328 439.720541 
L 263.315484 439.638155 
L 263.847902 439.185033 
L 264.380321 438.196403 
L 265.001476 437.351948 
L 265.533895 437.784473 
L 266.066314 437.640298 
L 267.219888 438.340578 
L 267.752307 438.114017 
L 268.284726 438.587735 
L 268.905881 438.114017 
L 269.4383 437.043001 
L 269.970718 436.383914 
L 270.503137 436.054371 
L 271.124292 435.518863 
L 271.656711 435.642442 
L 272.18913 437.043001 
L 272.810285 437.187176 
L 273.342704 437.145983 
L 273.875123 437.784473 
L 274.407542 438.15521 
L 275.028697 439.020261 
L 275.561116 438.814296 
L 276.093534 438.134613 
L 276.71469 439.040858 
L 277.247108 440.256049 
L 277.779527 439.617558 
L 278.311946 438.608332 
L 278.933101 439.123243 
L 279.46552 439.102647 
L 279.997939 438.340578 
L 280.619094 438.422964 
L 281.151513 439.658751 
L 282.21635 438.7937 
L 283.369924 436.425107 
L 283.902343 436.569282 
L 284.523498 437.475527 
L 285.055917 438.999665 
L 285.588336 441.594819 
L 286.120755 441.862573 
L 286.74191 440.709171 
L 287.274329 439.226226 
L 288.427903 438.072824 
L 288.960322 438.464157 
L 289.581477 439.473383 
L 290.025159 440.667978 
L 290.646314 441.986151 
L 291.178733 442.562852 
L 291.711152 441.553626 
L 292.332307 441.347661 
L 292.864726 441.738994 
L 293.397145 441.615415 
L 293.929564 441.265275 
L 295.615556 438.7937 
L 296.236712 439.617558 
L 297.301549 441.450643 
L 297.833968 441.965555 
L 298.455123 442.851203 
L 298.987542 443.283728 
L 300.141116 443.530886 
L 301.205954 441.82138 
L 301.738372 442.212712 
L 302.359528 442.933589 
L 302.891946 442.130327 
L 304.045521 439.102647 
L 304.577939 440.153066 
L 305.110358 440.791557 
L 305.642777 441.986151 
L 306.263932 442.336291 
L 307.32877 441.265275 
L 307.949925 441.965555 
L 308.482344 441.368258 
L 309.014762 442.295098 
L 309.547181 442.912992 
L 310.168336 443.427904 
L 310.700755 444.457727 
L 311.854329 445.260989 
L 312.386748 445.260989 
L 312.919167 445.508146 
L 314.072741 443.469097 
L 315.137578 443.469097 
L 315.758734 442.727624 
L 317.35599 443.530886 
L 317.977145 442.933589 
L 318.509564 442.253905 
L 319.041983 443.139553 
L 319.663138 444.540112 
L 320.195557 444.313551 
L 320.727976 444.395937 
L 321.260394 445.055024 
L 321.88155 445.178603 
L 322.413969 446.002461 
L 322.946387 445.405164 
L 323.567543 443.963412 
L 324.099961 442.418677 
L 324.63238 442.521659 
L 325.785954 442.480466 
L 326.318373 442.789413 
L 326.850792 443.263132 
L 327.471947 443.324921 
L 328.004366 443.263132 
L 329.069203 444.643095 
L 329.690359 445.446357 
L 330.755196 444.807866 
L 331.376351 445.302182 
L 331.90877 444.292955 
L 332.441189 444.457727 
L 332.973608 444.849059 
L 333.594763 445.055024 
L 334.127182 445.549339 
L 334.6596 445.116813 
L 335.280756 444.972638 
L 336.345593 445.940672 
L 336.878012 445.878882 
L 337.499167 447.11467 
L 338.031586 447.526599 
L 338.564005 447.279442 
L 339.717579 444.457727 
L 340.249998 443.057167 
L 340.782416 443.633868 
L 341.403572 444.807866 
L 341.935991 446.270215 
L 342.468409 446.805723 
L 343.089565 446.82632 
L 343.621983 446.002461 
L 344.154402 445.528743 
L 344.686821 446.867513 
L 345.307976 447.629582 
L 345.840395 447.46481 
L 346.372814 446.620355 
L 347.526388 447.629582 
L 348.591225 445.878882 
L 349.212381 445.796497 
L 349.744799 446.12604 
L 350.277218 446.290812 
L 350.898373 446.270215 
L 351.430792 446.455583 
L 351.963211 445.549339 
L 352.49563 446.187829 
L 353.116785 447.155863 
L 353.649204 447.300038 
L 354.181623 446.991091 
L 354.802778 447.650178 
L 355.867615 447.794353 
L 356.400034 448.041511 
L 357.021189 447.217652 
L 357.553608 447.423617 
L 358.086027 449.009544 
L 359.239601 451.254559 
L 359.77202 451.316348 
L 360.925594 453.005258 
L 361.458013 452.861082 
L 361.990431 452.057821 
L 362.611587 452.346171 
L 363.676424 451.748874 
L 364.208843 452.572732 
L 364.829998 453.80852 
L 365.362417 453.829116 
L 366.515991 455.044307 
L 367.04841 455.209079 
L 368.113247 454.73536 
L 368.734403 454.900132 
L 369.266821 454.838343 
L 369.79924 454.570589 
L 370.420395 453.932098 
L 370.952814 453.087644 
L 371.485233 453.375994 
L 373.171226 453.726134 
L 373.703645 453.829116 
L 374.857219 454.879536 
L 375.389637 455.003114 
L 376.543211 454.302835 
L 377.07563 454.302835 
L 377.608049 454.838343 
L 378.229204 455.126693 
L 378.761623 454.920729 
L 379.294042 454.570589 
L 379.915197 454.982518 
L 380.980035 456.177113 
L 381.512453 456.795006 
L 382.133609 457.021567 
L 382.666027 457.000971 
L 383.198446 456.733217 
L 383.819601 456.630235 
L 384.35202 456.897989 
L 385.416858 457.927812 
L 386.038013 457.804233 
L 387.102851 457.866022 
L 387.724006 458.772267 
L 388.256425 459.10181 
L 389.321262 459.019424 
L 389.942417 459.184196 
L 390.474836 459.534336 
L 391.007255 460.028651 
L 391.62841 460.152229 
L 392.160829 460.749527 
L 392.693248 460.914299 
L 393.225667 460.914299 
L 393.846822 460.749527 
L 394.379241 460.934895 
L 394.911659 460.72893 
L 395.532815 460.008054 
L 396.597652 459.513739 
L 397.130071 459.884475 
L 398.283645 459.863879 
L 398.816064 460.008054 
L 399.437219 460.543562 
L 400.502057 460.378791 
L 401.034475 460.543562 
L 401.655631 460.502369 
L 402.188049 460.914299 
L 402.720468 461.017281 
L 403.874042 461.037877 
L 404.406461 460.543562 
L 404.93888 460.317001 
L 405.560035 460.522966 
L 406.092454 460.522966 
L 407.246028 461.264438 
L 407.778447 461.676368 
L 408.310865 461.552789 
L 411.682851 463.653628 
L 412.747689 463.736014 
L 413.901263 463.11812 
L 415.054837 462.891559 
L 415.587255 463.05633 
L 416.119674 462.912155 
L 416.652093 462.459033 
L 417.273248 446.105443 
L 417.805667 409.773287 
L 418.338086 344.770858 
L 418.959241 333.092665 
L 419.49166 332.536561 
L 420.024079 335.193504 
L 420.556497 340.816338 
L 421.177653 359.25017 
L 421.710071 370.969556 
L 422.863645 370.969556 
L 423.928483 388.909073 
L 424.460902 397.147657 
L 425.082057 403.203016 
L 426.146895 406.004135 
L 427.300469 411.441601 
L 427.832887 412.862756 
L 428.365306 415.931629 
L 428.986461 418.83573 
L 429.51888 422.007585 
L 430.051299 423.552319 
L 431.204873 425.735544 
L 431.737292 427.877576 
L 432.269711 431.914482 
L 433.423285 437.887456 
L 433.955703 439.164436 
L 434.576859 439.638155 
L 435.109277 435.47767 
L 435.641696 345.57412 
L 436.174115 319.354826 
L 436.79527 307.717826 
L 437.327689 312.557994 
L 437.860108 354.059862 
L 439.013682 357.746628 
L 439.546101 365.284933 
L 440.078519 371.154924 
L 440.699675 376.715968 
L 441.232093 384.56322 
L 441.764512 394.119977 
L 442.385667 392.925383 
L 442.918086 389.444581 
L 443.450505 390.041878 
L 444.604079 395.582326 
L 445.136498 401.823054 
L 445.757653 400.381301 
L 446.290072 394.305345 
L 446.822491 389.980089 
L 447.354909 393.790434 
L 447.887328 399.619232 
L 448.508483 401.266949 
L 449.040902 403.841507 
L 449.573321 407.672448 
L 450.726895 414.551666 
L 451.259314 415.766857 
L 451.791733 415.416717 
L 452.412888 414.18093 
L 452.945307 412.553809 
L 453.477725 412.78037 
L 454.098881 412.739178 
L 454.631299 412.945142 
L 455.163718 413.48065 
L 455.696137 412.759774 
L 456.849711 411.812337 
L 457.38213 411.688758 
L 458.535704 412.615599 
L 459.068123 412.636195 
L 459.600541 410.288199 
L 460.221697 408.82585 
L 460.754115 407.054554 
L 461.907689 407.033958 
L 462.440108 404.80954 
L 462.972527 403.285402 
L 463.504946 403.388385 
L 464.126101 406.024731 
L 465.190939 411.750547 
L 466.344513 415.375524 
L 466.876931 415.602086 
L 467.40935 415.128367 
L 468.030505 417.332188 
L 468.562924 421.121937 
L 469.095343 422.85204 
L 469.716498 423.058004 
L 470.248917 422.192953 
L 470.781336 419.989132 
L 471.313755 419.536009 
L 471.93491 419.309448 
L 472.467329 420.52464 
L 473.620903 420.52464 
L 474.68574 421.760427 
L 475.218159 423.119794 
L 475.839314 423.572916 
L 476.371733 422.378321 
L 476.904152 422.522496 
L 477.525307 422.955022 
L 478.057726 422.275339 
L 478.590145 421.10134 
L 479.122563 420.854183 
L 480.276138 419.741974 
L 480.808556 421.348498 
L 481.429711 421.719234 
L 481.96213 422.543093 
L 482.494549 422.275339 
L 483.026968 422.172356 
L 483.648123 422.584286 
L 484.712961 423.717091 
L 485.334116 423.284565 
L 486.931372 425.611965 
L 487.552528 426.044491 
L 488.084946 425.550176 
L 488.617365 425.364808 
L 489.23852 425.859123 
L 489.770939 426.765367 
L 490.303358 426.80656 
L 490.835777 426.147473 
L 491.456932 425.591369 
L 491.989351 426.003298 
L 492.521769 426.579999 
L 493.142925 426.51821 
L 494.207762 427.259682 
L 494.740181 426.085684 
L 495.361336 425.508983 
L 496.426174 426.744771 
L 497.047329 426.435824 
L 497.579748 426.662385 
L 498.112167 426.724174 
L 498.644585 425.797333 
L 499.265741 425.220633 
L 499.79816 425.200036 
L 500.330578 426.10628 
L 500.951734 425.838526 
L 501.484152 426.10628 
L 503.170145 428.907399 
L 503.702564 428.866206 
L 504.856138 429.978415 
L 505.388557 431.234799 
L 505.920976 431.090624 
L 506.453394 429.545889 
L 507.07455 429.545889 
L 507.606968 430.12259 
L 508.760542 429.957818 
L 509.292961 429.587082 
L 509.82538 429.607679 
L 510.357799 430.534519 
L 510.978954 430.843466 
L 511.511373 431.420167 
L 512.043792 431.790903 
L 512.664947 432.388201 
L 513.197366 432.491183 
L 513.729784 433.50041 
L 514.262203 435.642442 
L 514.883358 436.425107 
L 515.948196 434.859776 
L 516.569351 433.335638 
L 517.10177 433.315042 
L 517.634189 432.079254 
L 518.166607 432.120447 
L 518.787763 435.230512 
L 519.320182 436.548686 
L 519.8526 436.198546 
L 520.473756 435.086337 
L 521.006174 432.861919 
L 521.538593 431.131817 
L 522.159748 430.452134 
L 522.692167 428.84561 
L 523.224586 428.763224 
L 524.37816 429.937222 
L 524.910579 431.955675 
L 525.442998 433.521006 
L 526.064153 434.386057 
L 526.596572 434.900969 
L 527.12899 434.1389 
L 527.661409 433.726971 
L 528.282564 433.768164 
L 528.814983 432.964902 
L 530.500976 432.985498 
L 531.033395 432.51178 
L 531.565814 431.399571 
L 532.186969 431.17301 
L 532.719388 431.935079 
L 533.251806 432.09985 
L 534.40538 434.097707 
L 534.937799 435.333495 
L 535.470218 435.498266 
L 536.091373 434.962758 
L 536.623792 434.035918 
L 537.156211 433.665181 
L 538.309785 436.548686 
L 539.374622 435.333495 
L 539.995778 436.610475 
L 540.528196 436.322125 
L 541.060615 436.322125 
L 541.68177 435.292302 
L 542.214189 434.633215 
L 542.746608 434.406654 
L 543.279027 434.48904 
L 544.432601 435.374688 
L 544.96502 436.219142 
L 545.586175 436.981211 
L 546.118594 438.340578 
L 546.651012 438.587735 
L 547.183431 437.45493 
L 547.804586 434.880373 
L 548.337005 433.50041 
L 548.869424 433.026691 
L 550.022998 432.80013 
L 550.555417 432.573569 
L 551.087836 431.914482 
L 551.708991 432.532376 
L 552.24141 435.76602 
L 553.927402 448.412247 
L 554.459821 451.336944 
L 554.99224 450.059964 
L 555.613395 446.785127 
L 556.145814 430.266765 
L 556.678233 405.242066 
L 557.299388 405.571609 
L 557.831807 404.80954 
L 558.364226 378.940386 
L 558.896644 377.910563 
L 559.5178 380.176174 
L 560.050218 349.137308 
L 560.582637 328.376076 
L 561.203792 328.520251 
L 561.736211 335.028732 
L 562.26863 339.395182 
L 562.801049 341.022302 
L 563.422204 341.90795 
L 564.487042 347.942713 
L 565.108197 350.723235 
L 565.640616 350.764428 
L 566.705453 272.085949 
L 567.326608 251.571875 
L 567.859027 254.908501 
L 568.391446 264.218101 
L 569.012601 301.538888 
L 569.54502 322.114752 
L 570.077439 256.37085 
L 570.609858 56.708762 
L 571.231013 64.720785 
L 571.763432 73.165334 
L 572.29585 74.710069 
L 572.917006 84.678756 
L 573.449424 97.345579 
L 573.981843 101.258906 
L 574.514262 103.194974 
L 575.667836 119.095441 
L 576.82141 123.647259 
L 577.353829 128.919953 
L 577.886248 131.988825 
L 578.418666 132.400755 
L 579.039822 137.529273 
L 579.57224 140.659935 
L 580.104659 143.007932 
L 580.725814 149.413431 
L 581.258233 152.5029 
L 581.790652 152.15276 
L 582.323071 153.84167 
L 583.476645 164.943162 
L 584.009064 170.071681 
L 585.162638 177.198056 
L 585.695056 182.182399 
L 586.227475 183.562362 
L 586.84863 184.303835 
L 587.381049 186.157516 
L 587.913468 187.455093 
L 588.534623 191.471403 
L 589.067042 193.448663 
L 589.599461 196.599922 
L 590.13188 201.707844 
L 591.285454 209.246148 
L 591.817872 209.101973 
L 592.971446 207.062924 
L 593.503865 207.001134 
L 594.657439 209.678674 
L 595.189858 212.067863 
L 595.722277 212.850529 
L 596.343432 212.541582 
L 596.875851 211.552952 
L 597.40827 213.36544 
L 597.940688 213.962738 
L 598.561844 216.516699 
L 599.094262 216.290138 
L 599.626681 215.507472 
L 600.247836 216.413717 
L 600.780255 218.988274 
L 601.312674 220.533009 
L 601.845093 222.983988 
L 602.466248 228.38026 
L 602.998667 237.133756 
L 603.531086 243.889395 
L 604.152241 244.074763 
L 604.68466 243.127326 
L 605.217078 237.978211 
L 605.749497 233.941304 
L 606.370652 230.295731 
L 606.903071 225.476159 
L 607.43549 223.478303 
L 608.056645 226.279421 
L 608.589064 230.872432 
L 609.121483 230.831239 
L 609.653902 228.133103 
L 610.275057 224.157986 
L 610.807476 223.066373 
L 611.339894 223.128163 
L 611.96105 225.455563 
L 612.493468 228.38026 
L 614.179461 233.282218 
L 614.71188 236.289301 
L 615.244299 235.959758 
L 615.865454 236.268705 
L 616.397873 236.927791 
L 616.930292 237.937018 
L 617.46271 238.534315 
L 618.083866 240.42919 
L 618.616284 240.140839 
L 619.148703 241.294241 
L 619.769858 241.70617 
L 620.302277 242.75659 
L 620.834696 239.008034 
L 621.367115 236.845405 
L 622.520689 235.877372 
L 623.053108 236.927791 
L 623.674263 238.863859 
L 624.206682 241.314837 
L 625.271519 251.07756 
L 625.892674 253.446153 
L 626.425093 259.027793 
L 626.957512 256.988744 
L 627.578667 252.848855 
L 628.111086 253.816889 
L 628.643505 254.146432 
L 629.175924 252.189768 
L 629.797079 254.929098 
L 630.329498 259.377933 
L 630.861916 262.590981 
L 631.483072 261.870105 
L 632.01549 258.389303 
L 632.547909 256.988744 
L 633.169064 259.625091 
L 633.701483 261.314 
L 634.322639 261.72593 
L 635.919895 254.187625 
L 636.452314 254.949694 
L 636.984732 254.39359 
L 638.138306 254.434783 
L 638.670725 256.02071 
L 639.29188 260.881475 
L 639.824299 259.954634 
L 640.356718 258.574671 
L 640.977873 255.897131 
L 641.510292 258.69825 
L 642.042711 263.950347 
L 642.57513 270.808969 
L 643.196285 277.152678 
L 643.728704 278.409063 
L 644.261122 279.129939 
L 644.882278 283.331617 
L 645.414696 285.370666 
L 645.947115 286.235718 
L 646.479534 297.872718 
L 647.100689 304.525374 
L 648.165527 290.231431 
L 648.786682 294.082969 
L 649.319101 290.560974 
L 649.85152 283.37281 
L 650.383938 279.480079 
L 651.537512 272.539071 
L 652.069931 276.761346 
L 652.691087 278.903378 
L 653.223505 284.093686 
L 653.755924 286.091542 
L 654.288343 286.029753 
L 654.909498 282.32239 
L 655.441917 275.05184 
L 655.974336 275.422576 
L 656.595491 276.164048 
L 657.12791 276.617171 
L 657.660328 282.507758 
L 658.192747 285.391263 
L 658.813902 283.31102 
L 659.346321 284.073089 
L 659.87874 285.473648 
L 660.499895 286.462279 
L 661.032314 286.3387 
L 661.564733 291.384833 
L 662.097152 297.996296 
L 662.718307 307.656036 
L 663.250726 302.424535 
L 663.783144 290.725746 
L 664.4043 281.477935 
L 664.936718 281.045409 
L 666.001556 286.050349 
L 666.622711 284.979333 
L 667.15513 282.116425 
L 667.687549 281.519128 
L 668.308704 289.922484 
L 668.841123 289.469362 
L 669.373542 287.656873 
L 669.905961 289.469362 
L 670.527116 298.078682 
L 671.059535 302.300957 
L 671.591953 308.047369 
L 672.213109 310.271787 
L 672.745527 310.148208 
L 673.277946 322.485488 
L 673.810365 327.037306 
L 674.43152 322.959206 
L 674.963939 313.649606 
L 675.496358 312.537398 
L 676.117513 317.707109 
L 677.182351 312.393222 
L 677.714769 313.464238 
L 680.021917 291.69378 
L 680.554336 289.922484 
L 681.086755 294.700863 
L 681.619174 288.933854 
L 682.240329 287.203751 
L 682.772748 289.345783 
L 683.305166 300.550258 
L 683.926322 319.931527 
L 684.458741 326.522394 
L 684.991159 313.97915 
L 685.523578 309.571507 
L 686.144733 317.212794 
L 686.677152 318.119038 
L 687.209571 315.915217 
L 687.830726 323.5771 
L 688.363145 326.645973 
L 688.895564 322.773838 
L 689.427983 315.111955 
L 690.581557 305.143268 
L 691.113975 307.264704 
L 691.735131 307.223511 
L 692.267549 303.351376 
L 692.799968 300.467872 
L 693.332387 299.644013 
L 693.953542 307.511861 
L 694.485961 325.368992 
L 695.01838 361.86592 
L 695.639535 331.074212 
L 696.704373 316.94504 
L 697.236791 311.960697 
L 697.857947 311.610557 
L 698.390365 311.486978 
L 698.922784 310.621927 
L 699.543939 305.987723 
L 700.076358 303.763305 
L 701.762351 312.455012 
L 702.29477 312.537398 
L 702.827189 309.818665 
L 703.980763 307.347089 
L 704.513181 308.191544 
L 705.0456 309.942243 
L 705.666755 310.539541 
L 706.199174 311.404592 
L 706.731593 308.788842 
L 707.352748 309.489121 
L 707.885167 310.395366 
L 708.417586 312.146065 
L 708.950005 312.434415 
L 710.103579 314.555851 
L 710.635997 314.535254 
L 711.257153 313.567221 
L 711.789571 311.445785 
L 712.32199 311.239821 
L 712.854409 310.848488 
L 714.007983 311.260417 
L 714.540402 311.095645 
L 715.161557 309.983436 
L 715.693976 311.919504 
L 716.226395 310.045226 
L 716.758813 309.777472 
L 717.379969 313.711396 
L 717.912387 319.169458 
L 718.444806 318.57216 
L 719.065961 313.175888 
L 719.59838 309.921647 
L 720.130799 310.415962 
L 720.663218 313.093502 
L 721.284373 314.164518 
L 721.816792 314.700026 
L 722.349211 315.709252 
L 723.502785 322.320716 
L 724.656359 321.94998 
L 725.188777 322.011769 
L 725.721196 326.069272 
L 726.253615 334.390242 
L 726.87477 330.641686 
L 727.407189 328.726215 
L 727.939608 325.163028 
L 728.472027 325.286607 
L 729.093182 328.376076 
L 729.625601 334.719785 
L 730.158019 336.61466 
L 730.779175 332.94849 
L 731.311593 331.197791 
L 732.376431 325.801518 
L 732.997586 322.773838 
L 733.530005 321.290893 
L 734.062424 320.425842 
L 734.683579 319.128265 
L 735.215998 319.849141 
L 736.901991 319.210651 
L 737.966828 318.427985 
L 738.587983 320.055106 
L 739.120402 320.446438 
L 739.652821 321.579244 
L 740.18524 324.936467 
L 741.338814 325.060045 
L 741.871233 324.194994 
L 742.492388 324.174398 
L 743.024807 326.913727 
L 743.557225 330.662283 
L 744.089644 331.465545 
L 744.710799 330.003196 
L 745.243218 330.003196 
L 745.775637 329.817828 
L 746.396792 328.664426 
L 746.929211 330.538704 
L 747.46163 331.424352 
L 747.994049 329.838424 
L 749.680041 327.160884 
L 750.301197 328.520251 
L 750.833615 329.035162 
L 751.366034 329.900214 
L 751.898453 329.323513 
L 752.519608 329.426495 
L 753.052027 329.385302 
L 753.584446 328.025936 
L 754.73802 328.890987 
L 755.270439 328.911584 
L 755.802857 329.138145 
L 756.424013 332.330596 
L 756.956431 336.099748 
L 758.110005 332.783718 
L 758.642424 332.804315 
L 759.174843 335.749608 
L 759.795998 334.946346 
L 760.328417 332.866104 
L 760.949572 332.8867 
L 761.393255 334.657996 
L 762.01441 334.905154 
L 763.700403 333.483998 
L 764.232821 332.557157 
L 764.76524 338.200587 
L 765.297659 338.468341 
L 765.918814 338.633113 
L 766.451233 340.239637 
L 766.983652 339.477568 
L 767.604807 335.770205 
L 768.137226 336.861817 
L 768.669645 338.509534 
L 769.202063 338.612516 
L 769.823219 339.395182 
L 770.888056 345.471138 
L 771.509211 343.493878 
L 772.574049 341.125285 
L 773.106468 337.747465 
L 773.727623 335.749608 
L 774.792461 335.111118 
L 775.946035 331.012423 
L 776.478453 335.91438 
L 777.010872 337.95343 
L 777.720764 338.056412 
L 778.164446 341.042899 
L 778.696865 341.90795 
L 779.31802 342.464055 
L 779.850439 342.525844 
L 780.915277 340.033672 
L 781.536432 337.088378 
L 782.068851 338.921463 
L 782.601269 342.402265 
L 783.222425 345.162191 
L 783.754843 345.903663 
L 784.287262 343.658649 
L 784.819681 343.473281 
L 785.440836 344.276543 
L 786.505674 338.694902 
L 787.126829 337.871044 
L 787.747984 337.912237 
L 788.191667 336.841221 
L 788.724085 337.623886 
L 789.345241 338.077008 
L 789.877659 338.179991 
L 790.410078 340.301426 
L 791.031233 341.145881 
L 791.563652 339.271603 
L 792.096071 337.829851 
L 792.62849 339.065639 
L 793.249645 339.23041 
L 793.782064 339.724725 
L 794.314483 340.466198 
L 794.935638 340.898724 
L 795.468057 342.381669 
L 796.000475 342.834791 
L 796.532894 345.326963 
L 797.154049 350.702639 
L 797.686468 357.499471 
L 799.372461 372.761448 
L 799.90488 375.356602 
L 800.437299 376.963126 
L 801.058454 381.226593 
L 802.123291 393.399101 
L 803.276865 400.978599 
L 804.341703 404.747751 
L 805.495277 406.951572 
L 806.027696 409.690901 
L 807.18127 416.776084 
L 807.713689 419.268256 
L 808.246107 421.018955 
L 808.867263 421.410287 
L 809.399681 422.234146 
L 809.9321 424.046634 
L 810.553255 423.243372 
L 812.150512 419.247659 
L 812.771667 328.746812 
L 813.304086 315.132552 
L 813.836505 292.352866 
L 814.45766 292.229288 
L 814.990079 303.804498 
L 815.522497 332.104035 
L 816.054916 350.57906 
L 816.676071 365.655669 
L 817.20849 373.173377 
L 817.740909 376.777758 
L 817.740909 376.777758 
" clip-path="url(#p10b94d390e)" style="fill: none; stroke: #1f77b4; stroke-width: 1.5; stroke-linecap: square"/>
   </g>
   <g id="line2d_21">
    <path d="M 108.559091 465.651484 
L 118.053893 465.754467 
L 119.739885 465.73387 
L 123.111871 465.692677 
L 128.081113 465.775063 
L 131.985517 465.754467 
L 134.825084 465.754467 
L 138.108333 465.73387 
L 142.012738 465.754467 
L 146.538297 465.692677 
L 148.22429 465.713274 
L 151.507539 465.672081 
L 163.841908 465.981028 
L 169.343569 465.939835 
L 169.964724 464.848222 
L 170.497143 462.562015 
L 171.029561 461.552789 
L 171.650717 460.893702 
L 172.183135 460.914299 
L 173.247973 461.285035 
L 173.869128 461.820543 
L 174.401547 461.923525 
L 174.933966 462.500226 
L 175.555121 462.706191 
L 176.08754 463.221102 
L 177.152377 463.736014 
L 177.773533 463.859592 
L 178.305951 463.674224 
L 179.459525 464.189136 
L 180.524363 463.859592 
L 182.210356 464.498083 
L 183.36393 464.724644 
L 186.647179 464.80703 
L 187.800753 464.910012 
L 188.865591 464.848222 
L 191.705157 465.136573 
L 192.237576 464.704047 
L 192.769995 459.060617 
L 193.39115 455.044307 
L 193.923569 453.767327 
L 194.455988 453.870309 
L 195.077143 456.506656 
L 195.609562 457.886619 
L 196.141981 458.545706 
L 197.295555 459.307775 
L 197.827973 459.719704 
L 198.981547 460.172826 
L 200.046385 460.502369 
L 200.578804 460.811316 
L 201.199959 460.996684 
L 203.950789 461.182053 
L 206.790356 461.696964 
L 209.008768 461.758753 
L 210.073605 461.985314 
L 211.227179 462.438437 
L 212.292017 462.273665 
L 212.913172 462.747383 
L 213.97801 462.932752 
L 214.599165 463.159313 
L 215.664003 463.076927 
L 216.817577 463.447663 
L 217.349995 463.46826 
L 217.882414 463.262295 
L 219.035988 463.303488 
L 220.189562 463.550645 
L 220.721981 463.40647 
L 221.2544 463.097523 
L 221.786819 462.623805 
L 222.940393 461.985314 
L 223.472811 461.820543 
L 224.626385 461.799946 
L 226.312378 461.676368 
L 227.998371 462.356051 
L 228.53079 462.685594 
L 231.28162 463.303488 
L 233.500032 462.500226 
L 234.121187 462.500226 
L 235.186025 463.46826 
L 237.404436 463.035734 
L 238.025591 463.530049 
L 239.090429 463.200506 
L 240.776422 463.241699 
L 242.994833 462.788576 
L 243.615989 462.809173 
L 245.8344 463.324084 
L 246.899238 463.344681 
L 248.585231 463.365277 
L 249.738805 463.962575 
L 250.803642 464.044961 
L 251.424798 464.292118 
L 253.643209 464.518679 
L 254.708047 464.436293 
L 255.329202 464.292118 
L 257.547614 464.415697 
L 259.233606 464.250925 
L 260.298444 464.230329 
L 261.984437 464.477486 
L 264.202848 464.312714 
L 264.735267 464.209732 
L 265.888841 464.189136 
L 266.42126 464.539276 
L 268.107253 464.662854 
L 269.793246 464.45689 
L 270.94682 464.230329 
L 273.69765 464.230329 
L 276.44848 464.312714 
L 277.069636 464.3951 
L 280.352885 463.859592 
L 281.506459 464.024364 
L 283.72487 463.983171 
L 284.878444 464.209732 
L 285.410863 464.436293 
L 286.564437 464.374504 
L 287.629275 464.230329 
L 288.782849 464.271522 
L 290.468842 464.80703 
L 291.533679 464.704047 
L 292.066098 464.621661 
L 292.687253 464.786433 
L 295.438084 464.642258 
L 298.27765 464.868819 
L 299.342488 464.910012 
L 300.496062 464.889415 
L 303.779311 464.436293 
L 304.932885 464.765837 
L 305.465304 464.848222 
L 306.618878 464.683451 
L 307.151297 464.559872 
L 310.523282 464.662854 
L 313.274113 464.662854 
L 314.960106 464.642258 
L 315.492524 464.724644 
L 317.178517 464.765837 
L 318.332091 464.848222 
L 319.396929 464.930608 
L 320.550503 464.80703 
L 322.236496 465.074784 
L 323.301333 464.971801 
L 324.987326 464.80703 
L 327.205738 464.930608 
L 328.89173 465.012994 
L 330.045304 465.033591 
L 335.103283 464.930608 
L 336.16812 465.074784 
L 339.540106 464.992398 
L 340.072525 464.910012 
L 343.44451 465.074784 
L 350.7209 464.889415 
L 351.253319 464.992398 
L 352.318157 464.951205 
L 353.471731 465.09538 
L 355.157724 464.992398 
L 357.908554 464.992398 
L 360.126966 465.260152 
L 361.28054 465.321941 
L 363.498951 465.260152 
L 367.935774 465.507309 
L 369.621767 465.507309 
L 371.840179 465.424923 
L 378.051731 465.548502 
L 380.270143 465.548502 
L 382.488554 465.630888 
L 384.174547 465.610292 
L 393.669349 465.878045 
L 409.286967 465.981028 
L 413.191371 466.042817 
L 416.47462 465.981028 
L 417.095775 464.827626 
L 417.628194 462.356051 
L 418.160613 457.907215 
L 418.693032 456.795006 
L 419.314187 455.991744 
L 419.846606 455.559219 
L 420.379024 455.662201 
L 421.00018 456.856796 
L 421.532598 457.557075 
L 422.597436 457.557075 
L 423.75101 458.792863 
L 424.904584 460.275808 
L 425.969422 460.687737 
L 428.808989 461.841139 
L 429.341407 462.211876 
L 431.559819 462.953348 
L 432.092238 463.365277 
L 433.245812 463.921382 
L 434.310649 464.10675 
L 434.931805 463.777207 
L 435.464223 456.383077 
L 435.996642 453.911502 
L 436.617797 452.016628 
L 437.150216 451.542909 
L 437.682635 455.023711 
L 438.836209 455.43564 
L 439.901046 456.856796 
L 440.522202 457.433497 
L 441.587039 459.225389 
L 442.119458 458.998828 
L 442.740613 458.504513 
L 443.273032 458.380934 
L 444.426606 459.184196 
L 444.959025 459.966861 
L 445.491444 459.987458 
L 446.645018 461.573385 
L 447.709855 462.397244 
L 449.395848 462.726787 
L 453.832671 461.490999 
L 454.986245 461.42921 
L 455.518664 462.438437 
L 456.139819 462.994541 
L 456.672238 463.015137 
L 459.423069 461.14086 
L 460.576643 460.770123 
L 461.109061 461.985314 
L 461.64148 462.623805 
L 462.262635 462.356051 
L 463.327473 462.623805 
L 464.481047 462.211876 
L 465.013466 462.294261 
L 465.545884 462.603208 
L 466.16704 462.603208 
L 467.853033 463.40647 
L 470.071444 463.674224 
L 472.822275 462.294261 
L 473.354693 462.108893 
L 474.508267 462.0677 
L 475.040686 462.150086 
L 478.412672 461.799946 
L 479.566246 461.841139 
L 480.187401 461.820543 
L 481.163502 463.324084 
L 481.784657 463.653628 
L 484.003069 463.777207 
L 484.535488 463.550645 
L 485.067907 463.015137 
L 485.689062 462.809173 
L 486.221481 463.509453 
L 486.753899 463.818399 
L 487.907473 463.900785 
L 501.839098 463.859592 
L 502.992672 463.427067 
L 503.525091 463.859592 
L 504.05751 464.065557 
L 505.743503 464.230329 
L 506.897077 464.147943 
L 507.429495 464.168539 
L 507.961914 464.003768 
L 508.583069 464.044961 
L 509.115488 463.941978 
L 509.647907 463.694821 
L 511.866319 463.262295 
L 513.552311 463.221102 
L 514.08473 463.385874 
L 514.705885 463.427067 
L 515.770723 464.292118 
L 517.456716 463.385874 
L 517.989135 464.044961 
L 518.61029 464.415697 
L 519.675127 464.518679 
L 520.828701 464.333311 
L 522.514694 464.086153 
L 523.579532 464.10675 
L 524.200687 464.168539 
L 525.797943 463.633031 
L 527.483936 464.353907 
L 529.702348 464.333311 
L 534.227907 464.3951 
L 535.292745 464.477486 
L 536.446319 463.694821 
L 536.978738 463.509453 
L 538.132312 464.3951 
L 539.197149 464.45689 
L 540.350723 464.518679 
L 541.415561 464.477486 
L 543.101554 464.415697 
L 547.005958 464.601065 
L 548.159532 464.374504 
L 551.531518 464.024364 
L 552.063937 463.941978 
L 552.596355 464.065557 
L 554.282348 464.848222 
L 554.814767 464.704047 
L 555.435922 464.333311 
L 556.50076 461.923525 
L 557.654334 462.582612 
L 558.186753 461.182053 
L 558.719171 461.161456 
L 559.340327 461.305631 
L 559.872745 459.513739 
L 560.405164 458.319145 
L 560.937583 458.092583 
L 561.558738 457.330514 
L 562.623576 458.422127 
L 563.77715 456.177113 
L 564.309569 456.341884 
L 564.841987 456.218306 
L 565.463143 457.371707 
L 565.995561 456.177113 
L 566.52798 451.831259 
L 567.149135 450.4307 
L 567.681554 449.833403 
L 568.213973 449.79221 
L 568.746392 452.181399 
L 569.367547 453.211222 
L 569.899966 446.290812 
L 570.432385 425.611965 
L 571.05354 429.154557 
L 571.585959 439.246822 
L 573.271951 433.232656 
L 573.80437 434.900969 
L 574.336789 439.699944 
L 574.957944 443.778043 
L 575.490363 440.379627 
L 576.022782 437.784473 
L 576.555201 444.313551 
L 577.176356 444.292955 
L 577.708775 440.667978 
L 578.241193 438.381771 
L 578.862349 436.280932 
L 579.394767 435.292302 
L 579.927186 438.876086 
L 580.459605 437.331351 
L 581.169497 439.535173 
L 581.613179 441.841976 
L 582.145598 441.306468 
L 582.766753 441.841976 
L 583.299172 440.338435 
L 583.831591 439.555769 
L 584.364009 446.929302 
L 584.985165 444.49892 
L 585.517583 448.16509 
L 586.050002 447.979721 
L 586.671157 444.890252 
L 587.735995 441.285872 
L 588.268414 442.768817 
L 588.889569 445.920075 
L 589.421988 444.004604 
L 589.954407 447.217652 
L 590.575562 447.629582 
L 591.640399 443.551482 
L 592.172818 444.045797 
L 592.793974 448.721194 
L 593.326392 450.801436 
L 593.858811 451.275155 
L 595.544804 451.687084 
L 597.230797 451.707681 
L 597.763215 451.460523 
L 598.384371 450.307121 
L 598.916789 447.46481 
L 599.449208 448.16509 
L 600.070364 450.925015 
L 600.602782 451.213366 
L 601.135201 451.954838 
L 601.66762 450.616068 
L 602.288775 450.410104 
L 602.821194 451.913645 
L 603.353613 451.316348 
L 603.886031 449.339088 
L 604.507187 447.526599 
L 605.039605 449.689228 
L 605.572024 448.082704 
L 606.193179 451.357541 
L 606.725598 452.057821 
L 607.258017 452.201996 
L 607.879172 451.831259 
L 608.411591 450.307121 
L 608.94401 447.856143 
L 610.097584 451.707681 
L 610.630003 452.099013 
L 612.315996 452.572732 
L 612.848414 452.078417 
L 613.380833 450.08056 
L 614.001988 451.439927 
L 614.534407 452.201996 
L 615.066826 452.572732 
L 615.687981 452.7581 
L 616.2204 449.977578 
L 616.752819 449.956982 
L 617.285237 450.719051 
L 618.438812 452.922872 
L 618.97123 453.252415 
L 619.592386 453.334801 
L 620.124804 452.099013 
L 621.189642 452.943468 
L 622.343216 453.005258 
L 622.875635 451.398734 
L 624.029209 445.899479 
L 624.561628 444.890252 
L 625.715202 451.954838 
L 626.24762 452.160803 
L 627.401194 448.680001 
L 627.933613 447.11467 
L 628.466032 446.249619 
L 628.998451 448.123897 
L 629.619606 447.11467 
L 630.152025 452.057821 
L 630.684444 453.952695 
L 631.305599 454.344028 
L 631.838018 454.076274 
L 632.370436 454.158659 
L 632.902855 453.829116 
L 633.52401 453.293608 
L 634.056429 454.179256 
L 634.588848 454.261642 
L 635.210003 454.199852 
L 635.742422 453.602555 
L 636.274841 453.334801 
L 636.80726 453.767327 
L 637.960834 453.829116 
L 639.114408 454.426413 
L 640.179245 454.323431 
L 640.711664 454.158659 
L 641.332819 453.849713 
L 641.865238 454.014484 
L 642.397657 453.767327 
L 643.018812 452.40796 
L 643.551231 452.902275 
L 644.08365 454.961921 
L 644.616068 455.600412 
L 645.237224 455.826973 
L 645.769642 455.888762 
L 646.302061 455.415044 
L 646.923216 455.538622 
L 647.455635 454.241045 
L 647.988054 455.415044 
L 648.520473 456.177113 
L 649.141628 456.094727 
L 649.674047 454.920729 
L 650.206466 455.291465 
L 650.827621 452.284382 
L 651.36004 452.428557 
L 651.892458 454.817746 
L 652.424877 453.128836 
L 653.578451 455.641605 
L 654.11087 455.826973 
L 654.732025 455.662201 
L 655.264444 455.250272 
L 655.796863 455.291465 
L 656.329282 453.314205 
L 656.950437 454.055677 
L 657.482856 455.353254 
L 659.701267 455.847569 
L 660.233686 454.405817 
L 660.854841 455.600412 
L 661.38726 456.115323 
L 661.919679 455.765183 
L 662.540834 456.980375 
L 663.073253 456.795006 
L 664.13809 455.621008 
L 664.759246 455.14729 
L 665.291664 455.621008 
L 665.824083 455.868166 
L 666.445238 455.579815 
L 666.977657 455.600412 
L 667.510076 455.0855 
L 668.042495 456.012341 
L 668.66365 456.053534 
L 669.196069 455.0855 
L 669.728488 455.394447 
L 670.349643 456.444867 
L 670.882062 456.383077 
L 671.41448 454.941325 
L 671.946899 456.630235 
L 672.568054 457.103953 
L 673.100473 457.948408 
L 673.632892 458.236759 
L 674.254047 458.010198 
L 674.786466 457.083357 
L 675.318885 454.673571 
L 675.851304 457.021567 
L 676.472459 457.351111 
L 677.004878 456.836199 
L 677.537296 457.351111 
L 679.312026 456.465463 
L 679.755708 455.868166 
L 680.376863 455.806376 
L 680.909282 456.321288 
L 681.441701 456.032937 
L 682.062856 455.950552 
L 682.595275 456.07413 
L 683.127694 456.733217 
L 683.748849 457.845426 
L 684.281268 458.216162 
L 684.813686 457.495286 
L 685.346105 457.248129 
L 685.96726 457.680654 
L 686.499679 457.742444 
L 687.032098 457.618865 
L 687.564517 458.051391 
L 688.185672 458.216162 
L 688.718091 458.010198 
L 689.25051 455.415044 
L 689.871665 454.055677 
L 690.404084 456.300691 
L 690.936502 456.939182 
L 691.468921 457.06276 
L 693.154914 456.671428 
L 693.776069 457.12455 
L 694.308488 458.154373 
L 694.840907 460.255212 
L 695.373326 458.483916 
L 695.994481 458.071987 
L 696.5269 457.330514 
L 697.059318 456.980375 
L 698.212892 457.083357 
L 698.745311 457.227532 
L 699.27773 457.021567 
L 699.987622 456.897989 
L 701.584878 457.4129 
L 702.117297 457.4129 
L 702.649716 456.980375 
L 703.182134 457.12455 
L 704.335708 457.021567 
L 704.868127 457.248129 
L 705.489282 456.362481 
L 706.55412 457.06276 
L 707.707694 457.289321 
L 708.772532 457.4129 
L 709.393687 457.47469 
L 709.926106 457.227532 
L 710.458524 457.47469 
L 716.58134 457.248129 
L 717.202496 457.47469 
L 717.734914 457.804233 
L 718.267333 457.76304 
L 718.799752 457.454093 
L 719.420907 457.268725 
L 720.485745 455.044307 
L 721.1069 456.48606 
L 721.639319 456.733217 
L 722.171738 456.156516 
L 722.704156 457.536479 
L 723.325312 457.907215 
L 725.011304 457.969005 
L 725.543723 458.195566 
L 726.076142 458.669284 
L 726.608561 457.392304 
L 727.229716 458.071987 
L 728.294554 458.133776 
L 728.915709 458.319145 
L 729.448128 458.689881 
L 729.980546 458.442723 
L 730.512965 456.465463 
L 731.13412 457.927812 
L 731.666539 458.174969 
L 732.198958 458.154373 
L 732.820113 457.248129 
L 733.352532 457.557075 
L 733.884951 457.577672 
L 734.41737 457.309918 
L 736.103362 457.783637 
L 737.256936 457.371707 
L 737.789355 457.660058 
L 738.942929 457.866022 
L 739.475348 457.927812 
L 740.007767 457.392304 
L 740.628922 457.927812 
L 741.161341 458.092583 
L 742.847334 457.969005 
L 743.379752 458.380934 
L 743.912171 458.483916 
L 745.065745 458.40153 
L 745.598164 458.40153 
L 746.219319 457.969005 
L 746.751738 457.866022 
L 747.284157 458.339741 
L 748.437731 457.454093 
L 748.97015 458.071987 
L 750.656142 458.360337 
L 751.188561 458.422127 
L 751.72098 457.907215 
L 752.342135 456.053534 
L 752.874554 457.248129 
L 753.406973 458.010198 
L 754.028128 457.721847 
L 754.560547 458.195566 
L 755.625384 458.360337 
L 756.24654 458.40153 
L 757.311377 457.145146 
L 757.932533 458.174969 
L 758.464951 456.238902 
L 758.99737 455.064904 
L 759.529789 454.900132 
L 760.683363 458.11318 
L 761.215782 458.586898 
L 762.369356 458.669284 
L 764.055348 458.566302 
L 764.587767 458.195566 
L 765.120186 458.360337 
L 765.741341 458.772267 
L 766.27376 458.978231 
L 766.806179 458.957635 
L 767.338598 458.75167 
L 770.178164 459.143003 
L 770.710583 459.307775 
L 771.243002 458.195566 
L 771.864157 458.607495 
L 772.928995 458.772267 
L 773.55015 458.319145 
L 774.082569 455.868166 
L 775.147406 453.170029 
L 775.768562 452.222592 
L 776.300981 455.579815 
L 776.833399 456.053534 
L 777.454555 458.298548 
L 777.986973 458.895845 
L 780.205385 459.060617 
L 781.891378 458.937038 
L 782.956215 459.287178 
L 783.577371 459.328371 
L 784.642208 459.184196 
L 785.263363 459.245985 
L 786.328201 458.916442 
L 788.014194 458.81346 
L 788.546612 458.195566 
L 789.167768 458.051391 
L 789.700187 458.669284 
L 790.232605 458.957635 
L 790.765024 459.040021 
L 791.918598 458.875249 
L 793.604591 458.978231 
L 795.823003 459.163599 
L 796.355421 459.307775 
L 796.976577 459.616722 
L 798.041414 460.275808 
L 798.573833 460.358194 
L 800.259826 458.11318 
L 800.880981 457.969005 
L 801.4134 461.099667 
L 801.945819 461.902929 
L 802.478237 462.253068 
L 803.631811 462.603208 
L 804.785385 462.500226 
L 805.317804 462.788576 
L 805.850223 462.829769 
L 806.382642 462.314858 
L 807.536216 463.159313 
L 809.754627 463.797803 
L 810.287046 463.509453 
L 811.44062 462.520822 
L 811.973039 463.159313 
L 812.594194 458.11318 
L 813.126613 456.856796 
L 813.659032 453.870309 
L 814.191451 452.387364 
L 814.812606 452.325575 
L 815.877443 455.126693 
L 816.498599 456.218306 
L 817.031017 456.918585 
L 817.563436 458.174969 
L 817.563436 458.174969 
" clip-path="url(#p10b94d390e)" style="fill: none; stroke: #ff7f0e; stroke-width: 1.5; stroke-linecap: square"/>
   </g>
   <g id="patch_3">
    <path d="M 73.1 486.552772 
L 73.1 36.24 
" style="fill: none; stroke: #000000; stroke-width: 0.8; stroke-linejoin: miter; stroke-linecap: square"/>
   </g>
   <g id="patch_4">
    <path d="M 853.2 486.552772 
L 853.2 36.24 
" style="fill: none; stroke: #000000; stroke-width: 0.8; stroke-linejoin: miter; stroke-linecap: square"/>
   </g>
   <g id="patch_5">
    <path d="M 73.1 486.552772 
L 853.2 486.552772 
" style="fill: none; stroke: #000000; stroke-width: 0.8; stroke-linejoin: miter; stroke-linecap: square"/>
   </g>
   <g id="patch_6">
    <path d="M 73.1 36.24 
L 853.2 36.24 
" style="fill: none; stroke: #000000; stroke-width: 0.8; stroke-linejoin: miter; stroke-linecap: square"/>
   </g>
   <g id="text_22">
    <!-- Feinstaubkonzentration beim Rauchen im Außenbereich -->
    <g transform="translate(98.837188 30.24) scale(0.26 -0.26)">
     <defs>
      <path id="DejaVuSans-46" d="M 628 4666 
L 3309 4666 
L 3309 4134 
L 1259 4134 
L 1259 2759 
L 3109 2759 
L 3109 2228 
L 1259 2228 
L 1259 0 
L 628 0 
L 628 4666 
z
" transform="scale(0.015625)"/>
      <path id="DejaVuSans-73" d="M 2834 3397 
L 2834 2853 
Q 2591 2978 2328 3040 
Q 2066 3103 1784 3103 
Q 1356 3103 1142 2972 
Q 928 2841 928 2578 
Q 928 2378 1081 2264 
Q 1234 2150 1697 2047 
L 1894 2003 
Q 2506 1872 2764 1633 
Q 3022 1394 3022 966 
Q 3022 478 2636 193 
Q 2250 -91 1575 -91 
Q 1294 -91 989 -36 
Q 684 19 347 128 
L 347 722 
Q 666 556 975 473 
Q 1284 391 1588 391 
Q 1994 391 2212 530 
Q 2431 669 2431 922 
Q 2431 1156 2273 1281 
Q 2116 1406 1581 1522 
L 1381 1569 
Q 847 1681 609 1914 
Q 372 2147 372 2553 
Q 372 3047 722 3315 
Q 1072 3584 1716 3584 
Q 2034 3584 2315 3537 
Q 2597 3491 2834 3397 
z
" transform="scale(0.015625)"/>
      <path id="DejaVuSans-62" d="M 3116 1747 
Q 3116 2381 2855 2742 
Q 2594 3103 2138 3103 
Q 1681 3103 1420 2742 
Q 1159 2381 1159 1747 
Q 1159 1113 1420 752 
Q 1681 391 2138 391 
Q 2594 391 2855 752 
Q 3116 1113 3116 1747 
z
M 1159 2969 
Q 1341 3281 1617 3432 
Q 1894 3584 2278 3584 
Q 2916 3584 3314 3078 
Q 3713 2572 3713 1747 
Q 3713 922 3314 415 
Q 2916 -91 2278 -91 
Q 1894 -91 1617 61 
Q 1341 213 1159 525 
L 1159 0 
L 581 0 
L 581 4863 
L 1159 4863 
L 1159 2969 
z
" transform="scale(0.015625)"/>
      <path id="DejaVuSans-6b" d="M 581 4863 
L 1159 4863 
L 1159 1991 
L 2875 3500 
L 3609 3500 
L 1753 1863 
L 3688 0 
L 2938 0 
L 1159 1709 
L 1159 0 
L 581 0 
L 581 4863 
z
" transform="scale(0.015625)"/>
      <path id="DejaVuSans-52" d="M 2841 2188 
Q 3044 2119 3236 1894 
Q 3428 1669 3622 1275 
L 4263 0 
L 3584 0 
L 2988 1197 
Q 2756 1666 2539 1819 
Q 2322 1972 1947 1972 
L 1259 1972 
L 1259 0 
L 628 0 
L 628 4666 
L 2053 4666 
Q 2853 4666 3247 4331 
Q 3641 3997 3641 3322 
Q 3641 2881 3436 2590 
Q 3231 2300 2841 2188 
z
M 1259 4147 
L 1259 2491 
L 2053 2491 
Q 2509 2491 2742 2702 
Q 2975 2913 2975 3322 
Q 2975 3731 2742 3939 
Q 2509 4147 2053 4147 
L 1259 4147 
z
" transform="scale(0.015625)"/>
      <path id="DejaVuSans-63" d="M 3122 3366 
L 3122 2828 
Q 2878 2963 2633 3030 
Q 2388 3097 2138 3097 
Q 1578 3097 1268 2742 
Q 959 2388 959 1747 
Q 959 1106 1268 751 
Q 1578 397 2138 397 
Q 2388 397 2633 464 
Q 2878 531 3122 666 
L 3122 134 
Q 2881 22 2623 -34 
Q 2366 -91 2075 -91 
Q 1284 -91 818 406 
Q 353 903 353 1747 
Q 353 2603 823 3093 
Q 1294 3584 2113 3584 
Q 2378 3584 2631 3529 
Q 2884 3475 3122 3366 
z
" transform="scale(0.015625)"/>
      <path id="DejaVuSans-41" d="M 2188 4044 
L 1331 1722 
L 3047 1722 
L 2188 4044 
z
M 1831 4666 
L 2547 4666 
L 4325 0 
L 3669 0 
L 3244 1197 
L 1141 1197 
L 716 0 
L 50 0 
L 1831 4666 
z
" transform="scale(0.015625)"/>
      <path id="DejaVuSans-df" d="M 581 3553 
Q 581 4178 954 4520 
Q 1328 4863 2009 4863 
Q 2659 4863 3001 4500 
Q 3344 4138 3353 3438 
Q 2881 3413 2618 3233 
Q 2356 3053 2356 2753 
Q 2356 2606 2447 2479 
Q 2538 2353 2741 2222 
L 2919 2106 
Q 3438 1775 3588 1553 
Q 3738 1331 3738 1019 
Q 3738 481 3386 195 
Q 3034 -91 2375 -91 
Q 2175 -91 1962 -52 
Q 1750 -13 1522 63 
L 1522 575 
Q 1772 481 1990 436 
Q 2209 391 2413 391 
Q 2775 391 2962 539 
Q 3150 688 3150 972 
Q 3150 1169 3058 1300 
Q 2966 1431 2650 1625 
L 2363 1797 
Q 2063 1981 1927 2192 
Q 1791 2403 1791 2688 
Q 1791 3084 2052 3353 
Q 2313 3622 2784 3713 
Q 2759 4034 2554 4209 
Q 2350 4384 1997 4384 
Q 1591 4384 1378 4167 
Q 1166 3950 1166 3541 
L 1166 0 
L 581 0 
L 581 3553 
z
" transform="scale(0.015625)"/>
     </defs>
     <use xlink:href="#DejaVuSans-46"/>
     <use xlink:href="#DejaVuSans-65" x="52.019531"/>
     <use xlink:href="#DejaVuSans-69" x="113.542969"/>
     <use xlink:href="#DejaVuSans-6e" x="141.326172"/>
     <use xlink:href="#DejaVuSans-73" x="204.705078"/>
     <use xlink:href="#DejaVuSans-74" x="256.804688"/>
     <use xlink:href="#DejaVuSans-61" x="296.013672"/>
     <use xlink:href="#DejaVuSans-75" x="357.292969"/>
     <use xlink:href="#DejaVuSans-62" x="420.671875"/>
     <use xlink:href="#DejaVuSans-6b" x="484.148438"/>
     <use xlink:href="#DejaVuSans-6f" x="538.433594"/>
     <use xlink:href="#DejaVuSans-6e" x="599.615234"/>
     <use xlink:href="#DejaVuSans-7a" x="662.994141"/>
     <use xlink:href="#DejaVuSans-65" x="715.484375"/>
     <use xlink:href="#DejaVuSans-6e" x="777.007812"/>
     <use xlink:href="#DejaVuSans-74" x="840.386719"/>
     <use xlink:href="#DejaVuSans-72" x="879.595703"/>
     <use xlink:href="#DejaVuSans-61" x="920.708984"/>
     <use xlink:href="#DejaVuSans-74" x="981.988281"/>
     <use xlink:href="#DejaVuSans-69" x="1021.197266"/>
     <use xlink:href="#DejaVuSans-6f" x="1048.980469"/>
     <use xlink:href="#DejaVuSans-6e" x="1110.162109"/>
     <use xlink:href="#DejaVuSans-20" x="1173.541016"/>
     <use xlink:href="#DejaVuSans-62" x="1205.328125"/>
     <use xlink:href="#DejaVuSans-65" x="1268.804688"/>
     <use xlink:href="#DejaVuSans-69" x="1330.328125"/>
     <use xlink:href="#DejaVuSans-6d" x="1358.111328"/>
     <use xlink:href="#DejaVuSans-20" x="1455.523438"/>
     <use xlink:href="#DejaVuSans-52" x="1487.310547"/>
     <use xlink:href="#DejaVuSans-61" x="1554.542969"/>
     <use xlink:href="#DejaVuSans-75" x="1615.822266"/>
     <use xlink:href="#DejaVuSans-63" x="1679.201172"/>
     <use xlink:href="#DejaVuSans-68" x="1734.181641"/>
     <use xlink:href="#DejaVuSans-65" x="1797.560547"/>
     <use xlink:href="#DejaVuSans-6e" x="1859.083984"/>
     <use xlink:href="#DejaVuSans-20" x="1922.462891"/>
     <use xlink:href="#DejaVuSans-69" x="1954.25"/>
     <use xlink:href="#DejaVuSans-6d" x="1982.033203"/>
     <use xlink:href="#DejaVuSans-20" x="2079.445312"/>
     <use xlink:href="#DejaVuSans-41" x="2111.232422"/>
     <use xlink:href="#DejaVuSans-75" x="2179.640625"/>
     <use xlink:href="#DejaVuSans-df" x="2243.019531"/>
     <use xlink:href="#DejaVuSans-65" x="2306.007812"/>
     <use xlink:href="#DejaVuSans-6e" x="2367.53125"/>
     <use xlink:href="#DejaVuSans-62" x="2430.910156"/>
     <use xlink:href="#DejaVuSans-65" x="2494.386719"/>
     <use xlink:href="#DejaVuSans-72" x="2555.910156"/>
     <use xlink:href="#DejaVuSans-65" x="2594.773438"/>
     <use xlink:href="#DejaVuSans-69" x="2656.296875"/>
     <use xlink:href="#DejaVuSans-63" x="2684.080078"/>
     <use xlink:href="#DejaVuSans-68" x="2739.060547"/>
    </g>
   </g>
   <g id="legend_1">
    <g id="patch_7">
     <path d="M 643.7875 110.9525 
L 839.2 110.9525 
Q 843.2 110.9525 843.2 106.9525 
L 843.2 50.24 
Q 843.2 46.24 839.2 46.24 
L 643.7875 46.24 
Q 639.7875 46.24 639.7875 50.24 
L 639.7875 106.9525 
Q 639.7875 110.9525 643.7875 110.9525 
z
" style="fill: #ffffff; opacity: 0.8; stroke: #cccccc; stroke-linejoin: miter"/>
    </g>
    <g id="line2d_22">
     <path d="M 647.7875 62.436875 
L 667.7875 62.436875 
L 687.7875 62.436875 
" style="fill: none; stroke: #1f77b4; stroke-width: 1.5; stroke-linecap: square"/>
    </g>
    <g id="text_23">
     <!-- PM1 Außen -->
     <g transform="translate(703.7875 69.436875) scale(0.2 -0.2)">
      <defs>
       <path id="DejaVuSans-50" d="M 1259 4147 
L 1259 2394 
L 2053 2394 
Q 2494 2394 2734 2622 
Q 2975 2850 2975 3272 
Q 2975 3691 2734 3919 
Q 2494 4147 2053 4147 
L 1259 4147 
z
M 628 4666 
L 2053 4666 
Q 2838 4666 3239 4311 
Q 3641 3956 3641 3272 
Q 3641 2581 3239 2228 
Q 2838 1875 2053 1875 
L 1259 1875 
L 1259 0 
L 628 0 
L 628 4666 
z
" transform="scale(0.015625)"/>
       <path id="DejaVuSans-4d" d="M 628 4666 
L 1569 4666 
L 2759 1491 
L 3956 4666 
L 4897 4666 
L 4897 0 
L 4281 0 
L 4281 4097 
L 3078 897 
L 2444 897 
L 1241 4097 
L 1241 0 
L 628 0 
L 628 4666 
z
" transform="scale(0.015625)"/>
      </defs>
      <use xlink:href="#DejaVuSans-50"/>
      <use xlink:href="#DejaVuSans-4d" x="60.302734"/>
      <use xlink:href="#DejaVuSans-31" x="146.582031"/>
      <use xlink:href="#DejaVuSans-20" x="210.205078"/>
      <use xlink:href="#DejaVuSans-41" x="241.992188"/>
      <use xlink:href="#DejaVuSans-75" x="310.400391"/>
      <use xlink:href="#DejaVuSans-df" x="373.779297"/>
      <use xlink:href="#DejaVuSans-65" x="436.767578"/>
      <use xlink:href="#DejaVuSans-6e" x="498.291016"/>
     </g>
    </g>
    <g id="line2d_23">
     <path d="M 647.7875 91.793125 
L 667.7875 91.793125 
L 687.7875 91.793125 
" style="fill: none; stroke: #ff7f0e; stroke-width: 1.5; stroke-linecap: square"/>
    </g>
    <g id="text_24">
     <!-- PM2,5 Außen -->
     <g transform="translate(703.7875 98.793125) scale(0.2 -0.2)">
      <defs>
       <path id="DejaVuSans-2c" d="M 750 794 
L 1409 794 
L 1409 256 
L 897 -744 
L 494 -744 
L 750 256 
L 750 794 
z
" transform="scale(0.015625)"/>
      </defs>
      <use xlink:href="#DejaVuSans-50"/>
      <use xlink:href="#DejaVuSans-4d" x="60.302734"/>
      <use xlink:href="#DejaVuSans-32" x="146.582031"/>
      <use xlink:href="#DejaVuSans-2c" x="210.205078"/>
      <use xlink:href="#DejaVuSans-35" x="241.992188"/>
      <use xlink:href="#DejaVuSans-20" x="305.615234"/>
      <use xlink:href="#DejaVuSans-41" x="337.402344"/>
      <use xlink:href="#DejaVuSans-75" x="405.810547"/>
      <use xlink:href="#DejaVuSans-df" x="469.189453"/>
      <use xlink:href="#DejaVuSans-65" x="532.177734"/>
      <use xlink:href="#DejaVuSans-6e" x="593.701172"/>
     </g>
    </g>
   </g>
  </g>
 </g>
 <defs>
  <clipPath id="p10b94d390e">
   <rect x="73.1" y="36.24" width="780.1" height="450.312772"/>
  </clipPath>
 </defs>
</svg>
