<?xml version="1.0" encoding="utf-8" standalone="no"?>
<!DOCTYPE svg PUBLIC "-//W3C//DTD SVG 1.1//EN"
  "http://www.w3.org/Graphics/SVG/1.1/DTD/svg11.dtd">
<svg xmlns:xlink="http://www.w3.org/1999/xlink" width="864pt" height="576pt" viewBox="0 0 864 576" xmlns="http://www.w3.org/2000/svg" version="1.1">
 <metadata>
  <rdf:RDF xmlns:dc="http://purl.org/dc/elements/1.1/" xmlns:cc="http://creativecommons.org/ns#" xmlns:rdf="http://www.w3.org/1999/02/22-rdf-syntax-ns#">
   <cc:Work>
    <dc:type rdf:resource="http://purl.org/dc/dcmitype/StillImage"/>
    <dc:date>2023-12-21T21:38:52.386592</dc:date>
    <dc:format>image/svg+xml</dc:format>
    <dc:creator>
     <cc:Agent>
      <dc:title>Matplotlib v3.8.2, https://matplotlib.org/</dc:title>
     </cc:Agent>
    </dc:creator>
   </cc:Work>
  </rdf:RDF>
 </metadata>
 <defs>
  <style type="text/css">*{stroke-linejoin: round; stroke-linecap: butt}</style>
 </defs>
 <g id="figure_1">
  <g id="patch_1">
   <path d="M 0 576 
L 864 576 
L 864 0 
L 0 0 
z
" style="fill: #ffffff"/>
  </g>
  <g id="axes_1">
   <g id="patch_2">
    <path d="M 64.28 520.36 
L 853.2 520.36 
L 853.2 35.52 
L 64.28 35.52 
z
" style="fill: #ffffff"/>
   </g>
   <g id="matplotlib.axis_1">
    <g id="xtick_1">
     <g id="line2d_1">
      <defs>
       <path id="m67b8826add" d="M 0 0 
L 0 3.5 
" style="stroke: #000000; stroke-width: 0.8"/>
      </defs>
      <g>
       <use xlink:href="#m67b8826add" x="100.14" y="520.36" style="stroke: #000000; stroke-width: 0.8"/>
      </g>
     </g>
     <g id="text_1">
      <!-- 0 -->
      <g transform="translate(95.68625 537.997813) scale(0.14 -0.14)">
       <defs>
        <path id="DejaVuSans-30" d="M 2034 4250 
Q 1547 4250 1301 3770 
Q 1056 3291 1056 2328 
Q 1056 1369 1301 889 
Q 1547 409 2034 409 
Q 2525 409 2770 889 
Q 3016 1369 3016 2328 
Q 3016 3291 2770 3770 
Q 2525 4250 2034 4250 
z
M 2034 4750 
Q 2819 4750 3233 4129 
Q 3647 3509 3647 2328 
Q 3647 1150 3233 529 
Q 2819 -91 2034 -91 
Q 1250 -91 836 529 
Q 422 1150 422 2328 
Q 422 3509 836 4129 
Q 1250 4750 2034 4750 
z
" transform="scale(0.015625)"/>
       </defs>
       <use xlink:href="#DejaVuSans-30"/>
      </g>
     </g>
    </g>
    <g id="xtick_2">
     <g id="line2d_2">
      <g>
       <use xlink:href="#m67b8826add" x="273.239573" y="520.36" style="stroke: #000000; stroke-width: 0.8"/>
      </g>
     </g>
     <g id="text_2">
      <!-- 100 -->
      <g transform="translate(259.878323 537.997813) scale(0.14 -0.14)">
       <defs>
        <path id="DejaVuSans-31" d="M 794 531 
L 1825 531 
L 1825 4091 
L 703 3866 
L 703 4441 
L 1819 4666 
L 2450 4666 
L 2450 531 
L 3481 531 
L 3481 0 
L 794 0 
L 794 531 
z
" transform="scale(0.015625)"/>
       </defs>
       <use xlink:href="#DejaVuSans-31"/>
       <use xlink:href="#DejaVuSans-30" x="63.623047"/>
       <use xlink:href="#DejaVuSans-30" x="127.246094"/>
      </g>
     </g>
    </g>
    <g id="xtick_3">
     <g id="line2d_3">
      <g>
       <use xlink:href="#m67b8826add" x="446.339147" y="520.36" style="stroke: #000000; stroke-width: 0.8"/>
      </g>
     </g>
     <g id="text_3">
      <!-- 200 -->
      <g transform="translate(432.977897 537.997813) scale(0.14 -0.14)">
       <defs>
        <path id="DejaVuSans-32" d="M 1228 531 
L 3431 531 
L 3431 0 
L 469 0 
L 469 531 
Q 828 903 1448 1529 
Q 2069 2156 2228 2338 
Q 2531 2678 2651 2914 
Q 2772 3150 2772 3378 
Q 2772 3750 2511 3984 
Q 2250 4219 1831 4219 
Q 1534 4219 1204 4116 
Q 875 4013 500 3803 
L 500 4441 
Q 881 4594 1212 4672 
Q 1544 4750 1819 4750 
Q 2544 4750 2975 4387 
Q 3406 4025 3406 3419 
Q 3406 3131 3298 2873 
Q 3191 2616 2906 2266 
Q 2828 2175 2409 1742 
Q 1991 1309 1228 531 
z
" transform="scale(0.015625)"/>
       </defs>
       <use xlink:href="#DejaVuSans-32"/>
       <use xlink:href="#DejaVuSans-30" x="63.623047"/>
       <use xlink:href="#DejaVuSans-30" x="127.246094"/>
      </g>
     </g>
    </g>
    <g id="xtick_4">
     <g id="line2d_4">
      <g>
       <use xlink:href="#m67b8826add" x="619.43872" y="520.36" style="stroke: #000000; stroke-width: 0.8"/>
      </g>
     </g>
     <g id="text_4">
      <!-- 300 -->
      <g transform="translate(606.07747 537.997813) scale(0.14 -0.14)">
       <defs>
        <path id="DejaVuSans-33" d="M 2597 2516 
Q 3050 2419 3304 2112 
Q 3559 1806 3559 1356 
Q 3559 666 3084 287 
Q 2609 -91 1734 -91 
Q 1441 -91 1130 -33 
Q 819 25 488 141 
L 488 750 
Q 750 597 1062 519 
Q 1375 441 1716 441 
Q 2309 441 2620 675 
Q 2931 909 2931 1356 
Q 2931 1769 2642 2001 
Q 2353 2234 1838 2234 
L 1294 2234 
L 1294 2753 
L 1863 2753 
Q 2328 2753 2575 2939 
Q 2822 3125 2822 3475 
Q 2822 3834 2567 4026 
Q 2313 4219 1838 4219 
Q 1578 4219 1281 4162 
Q 984 4106 628 3988 
L 628 4550 
Q 988 4650 1302 4700 
Q 1616 4750 1894 4750 
Q 2613 4750 3031 4423 
Q 3450 4097 3450 3541 
Q 3450 3153 3228 2886 
Q 3006 2619 2597 2516 
z
" transform="scale(0.015625)"/>
       </defs>
       <use xlink:href="#DejaVuSans-33"/>
       <use xlink:href="#DejaVuSans-30" x="63.623047"/>
       <use xlink:href="#DejaVuSans-30" x="127.246094"/>
      </g>
     </g>
    </g>
    <g id="xtick_5">
     <g id="line2d_5">
      <g>
       <use xlink:href="#m67b8826add" x="792.538293" y="520.36" style="stroke: #000000; stroke-width: 0.8"/>
      </g>
     </g>
     <g id="text_5">
      <!-- 400 -->
      <g transform="translate(779.177043 537.997813) scale(0.14 -0.14)">
       <defs>
        <path id="DejaVuSans-34" d="M 2419 4116 
L 825 1625 
L 2419 1625 
L 2419 4116 
z
M 2253 4666 
L 3047 4666 
L 3047 1625 
L 3713 1625 
L 3713 1100 
L 3047 1100 
L 3047 0 
L 2419 0 
L 2419 1100 
L 313 1100 
L 313 1709 
L 2253 4666 
z
" transform="scale(0.015625)"/>
       </defs>
       <use xlink:href="#DejaVuSans-34"/>
       <use xlink:href="#DejaVuSans-30" x="63.623047"/>
       <use xlink:href="#DejaVuSans-30" x="127.246094"/>
      </g>
     </g>
    </g>
    <g id="text_6">
     <!-- Zeit [s] -->
     <g transform="translate(422.847813 560.10625) scale(0.2 -0.2)">
      <defs>
       <path id="DejaVuSans-5a" d="M 359 4666 
L 4025 4666 
L 4025 4184 
L 1075 531 
L 4097 531 
L 4097 0 
L 288 0 
L 288 481 
L 3238 4134 
L 359 4134 
L 359 4666 
z
" transform="scale(0.015625)"/>
       <path id="DejaVuSans-65" d="M 3597 1894 
L 3597 1613 
L 953 1613 
Q 991 1019 1311 708 
Q 1631 397 2203 397 
Q 2534 397 2845 478 
Q 3156 559 3463 722 
L 3463 178 
Q 3153 47 2828 -22 
Q 2503 -91 2169 -91 
Q 1331 -91 842 396 
Q 353 884 353 1716 
Q 353 2575 817 3079 
Q 1281 3584 2069 3584 
Q 2775 3584 3186 3129 
Q 3597 2675 3597 1894 
z
M 3022 2063 
Q 3016 2534 2758 2815 
Q 2500 3097 2075 3097 
Q 1594 3097 1305 2825 
Q 1016 2553 972 2059 
L 3022 2063 
z
" transform="scale(0.015625)"/>
       <path id="DejaVuSans-69" d="M 603 3500 
L 1178 3500 
L 1178 0 
L 603 0 
L 603 3500 
z
M 603 4863 
L 1178 4863 
L 1178 4134 
L 603 4134 
L 603 4863 
z
" transform="scale(0.015625)"/>
       <path id="DejaVuSans-74" d="M 1172 4494 
L 1172 3500 
L 2356 3500 
L 2356 3053 
L 1172 3053 
L 1172 1153 
Q 1172 725 1289 603 
Q 1406 481 1766 481 
L 2356 481 
L 2356 0 
L 1766 0 
Q 1100 0 847 248 
Q 594 497 594 1153 
L 594 3053 
L 172 3053 
L 172 3500 
L 594 3500 
L 594 4494 
L 1172 4494 
z
" transform="scale(0.015625)"/>
       <path id="DejaVuSans-20" transform="scale(0.015625)"/>
       <path id="DejaVuSans-5b" d="M 550 4863 
L 1875 4863 
L 1875 4416 
L 1125 4416 
L 1125 -397 
L 1875 -397 
L 1875 -844 
L 550 -844 
L 550 4863 
z
" transform="scale(0.015625)"/>
       <path id="DejaVuSans-73" d="M 2834 3397 
L 2834 2853 
Q 2591 2978 2328 3040 
Q 2066 3103 1784 3103 
Q 1356 3103 1142 2972 
Q 928 2841 928 2578 
Q 928 2378 1081 2264 
Q 1234 2150 1697 2047 
L 1894 2003 
Q 2506 1872 2764 1633 
Q 3022 1394 3022 966 
Q 3022 478 2636 193 
Q 2250 -91 1575 -91 
Q 1294 -91 989 -36 
Q 684 19 347 128 
L 347 722 
Q 666 556 975 473 
Q 1284 391 1588 391 
Q 1994 391 2212 530 
Q 2431 669 2431 922 
Q 2431 1156 2273 1281 
Q 2116 1406 1581 1522 
L 1381 1569 
Q 847 1681 609 1914 
Q 372 2147 372 2553 
Q 372 3047 722 3315 
Q 1072 3584 1716 3584 
Q 2034 3584 2315 3537 
Q 2597 3491 2834 3397 
z
" transform="scale(0.015625)"/>
       <path id="DejaVuSans-5d" d="M 1947 4863 
L 1947 -844 
L 622 -844 
L 622 -397 
L 1369 -397 
L 1369 4416 
L 622 4416 
L 622 4863 
L 1947 4863 
z
" transform="scale(0.015625)"/>
      </defs>
      <use xlink:href="#DejaVuSans-5a"/>
      <use xlink:href="#DejaVuSans-65" x="68.505859"/>
      <use xlink:href="#DejaVuSans-69" x="130.029297"/>
      <use xlink:href="#DejaVuSans-74" x="157.8125"/>
      <use xlink:href="#DejaVuSans-20" x="197.021484"/>
      <use xlink:href="#DejaVuSans-5b" x="228.808594"/>
      <use xlink:href="#DejaVuSans-73" x="267.822266"/>
      <use xlink:href="#DejaVuSans-5d" x="319.921875"/>
     </g>
    </g>
   </g>
   <g id="matplotlib.axis_2">
    <g id="ytick_1">
     <g id="line2d_6">
      <defs>
       <path id="ma92662ed74" d="M 0 0 
L -3.5 0 
" style="stroke: #000000; stroke-width: 0.8"/>
      </defs>
      <g>
       <use xlink:href="#ma92662ed74" x="64.28" y="510.234349" style="stroke: #000000; stroke-width: 0.8"/>
      </g>
     </g>
     <g id="text_7">
      <!-- 0.0 -->
      <g transform="translate(35.015625 515.553255) scale(0.14 -0.14)">
       <defs>
        <path id="DejaVuSans-2e" d="M 684 794 
L 1344 794 
L 1344 0 
L 684 0 
L 684 794 
z
" transform="scale(0.015625)"/>
       </defs>
       <use xlink:href="#DejaVuSans-30"/>
       <use xlink:href="#DejaVuSans-2e" x="63.623047"/>
       <use xlink:href="#DejaVuSans-30" x="95.410156"/>
      </g>
     </g>
    </g>
    <g id="ytick_2">
     <g id="line2d_7">
      <g>
       <use xlink:href="#ma92662ed74" x="64.28" y="450.671695" style="stroke: #000000; stroke-width: 0.8"/>
      </g>
     </g>
     <g id="text_8">
      <!-- 0.2 -->
      <g transform="translate(35.015625 455.990602) scale(0.14 -0.14)">
       <use xlink:href="#DejaVuSans-30"/>
       <use xlink:href="#DejaVuSans-2e" x="63.623047"/>
       <use xlink:href="#DejaVuSans-32" x="95.410156"/>
      </g>
     </g>
    </g>
    <g id="ytick_3">
     <g id="line2d_8">
      <g>
       <use xlink:href="#ma92662ed74" x="64.28" y="391.109042" style="stroke: #000000; stroke-width: 0.8"/>
      </g>
     </g>
     <g id="text_9">
      <!-- 0.4 -->
      <g transform="translate(35.015625 396.427948) scale(0.14 -0.14)">
       <use xlink:href="#DejaVuSans-30"/>
       <use xlink:href="#DejaVuSans-2e" x="63.623047"/>
       <use xlink:href="#DejaVuSans-34" x="95.410156"/>
      </g>
     </g>
    </g>
    <g id="ytick_4">
     <g id="line2d_9">
      <g>
       <use xlink:href="#ma92662ed74" x="64.28" y="331.546388" style="stroke: #000000; stroke-width: 0.8"/>
      </g>
     </g>
     <g id="text_10">
      <!-- 0.6 -->
      <g transform="translate(35.015625 336.865294) scale(0.14 -0.14)">
       <defs>
        <path id="DejaVuSans-36" d="M 2113 2584 
Q 1688 2584 1439 2293 
Q 1191 2003 1191 1497 
Q 1191 994 1439 701 
Q 1688 409 2113 409 
Q 2538 409 2786 701 
Q 3034 994 3034 1497 
Q 3034 2003 2786 2293 
Q 2538 2584 2113 2584 
z
M 3366 4563 
L 3366 3988 
Q 3128 4100 2886 4159 
Q 2644 4219 2406 4219 
Q 1781 4219 1451 3797 
Q 1122 3375 1075 2522 
Q 1259 2794 1537 2939 
Q 1816 3084 2150 3084 
Q 2853 3084 3261 2657 
Q 3669 2231 3669 1497 
Q 3669 778 3244 343 
Q 2819 -91 2113 -91 
Q 1303 -91 875 529 
Q 447 1150 447 2328 
Q 447 3434 972 4092 
Q 1497 4750 2381 4750 
Q 2619 4750 2861 4703 
Q 3103 4656 3366 4563 
z
" transform="scale(0.015625)"/>
       </defs>
       <use xlink:href="#DejaVuSans-30"/>
       <use xlink:href="#DejaVuSans-2e" x="63.623047"/>
       <use xlink:href="#DejaVuSans-36" x="95.410156"/>
      </g>
     </g>
    </g>
    <g id="ytick_5">
     <g id="line2d_10">
      <g>
       <use xlink:href="#ma92662ed74" x="64.28" y="271.983735" style="stroke: #000000; stroke-width: 0.8"/>
      </g>
     </g>
     <g id="text_11">
      <!-- 0.8 -->
      <g transform="translate(35.015625 277.302641) scale(0.14 -0.14)">
       <defs>
        <path id="DejaVuSans-38" d="M 2034 2216 
Q 1584 2216 1326 1975 
Q 1069 1734 1069 1313 
Q 1069 891 1326 650 
Q 1584 409 2034 409 
Q 2484 409 2743 651 
Q 3003 894 3003 1313 
Q 3003 1734 2745 1975 
Q 2488 2216 2034 2216 
z
M 1403 2484 
Q 997 2584 770 2862 
Q 544 3141 544 3541 
Q 544 4100 942 4425 
Q 1341 4750 2034 4750 
Q 2731 4750 3128 4425 
Q 3525 4100 3525 3541 
Q 3525 3141 3298 2862 
Q 3072 2584 2669 2484 
Q 3125 2378 3379 2068 
Q 3634 1759 3634 1313 
Q 3634 634 3220 271 
Q 2806 -91 2034 -91 
Q 1263 -91 848 271 
Q 434 634 434 1313 
Q 434 1759 690 2068 
Q 947 2378 1403 2484 
z
M 1172 3481 
Q 1172 3119 1398 2916 
Q 1625 2713 2034 2713 
Q 2441 2713 2670 2916 
Q 2900 3119 2900 3481 
Q 2900 3844 2670 4047 
Q 2441 4250 2034 4250 
Q 1625 4250 1398 4047 
Q 1172 3844 1172 3481 
z
" transform="scale(0.015625)"/>
       </defs>
       <use xlink:href="#DejaVuSans-30"/>
       <use xlink:href="#DejaVuSans-2e" x="63.623047"/>
       <use xlink:href="#DejaVuSans-38" x="95.410156"/>
      </g>
     </g>
    </g>
    <g id="ytick_6">
     <g id="line2d_11">
      <g>
       <use xlink:href="#ma92662ed74" x="64.28" y="212.421081" style="stroke: #000000; stroke-width: 0.8"/>
      </g>
     </g>
     <g id="text_12">
      <!-- 1.0 -->
      <g transform="translate(35.015625 217.739987) scale(0.14 -0.14)">
       <use xlink:href="#DejaVuSans-31"/>
       <use xlink:href="#DejaVuSans-2e" x="63.623047"/>
       <use xlink:href="#DejaVuSans-30" x="95.410156"/>
      </g>
     </g>
    </g>
    <g id="ytick_7">
     <g id="line2d_12">
      <g>
       <use xlink:href="#ma92662ed74" x="64.28" y="152.858428" style="stroke: #000000; stroke-width: 0.8"/>
      </g>
     </g>
     <g id="text_13">
      <!-- 1.2 -->
      <g transform="translate(35.015625 158.177334) scale(0.14 -0.14)">
       <use xlink:href="#DejaVuSans-31"/>
       <use xlink:href="#DejaVuSans-2e" x="63.623047"/>
       <use xlink:href="#DejaVuSans-32" x="95.410156"/>
      </g>
     </g>
    </g>
    <g id="ytick_8">
     <g id="line2d_13">
      <g>
       <use xlink:href="#ma92662ed74" x="64.28" y="93.295774" style="stroke: #000000; stroke-width: 0.8"/>
      </g>
     </g>
     <g id="text_14">
      <!-- 1.4 -->
      <g transform="translate(35.015625 98.61468) scale(0.14 -0.14)">
       <use xlink:href="#DejaVuSans-31"/>
       <use xlink:href="#DejaVuSans-2e" x="63.623047"/>
       <use xlink:href="#DejaVuSans-34" x="95.410156"/>
      </g>
     </g>
    </g>
    <g id="text_15">
     <!-- Feinstaubkonzentration [µg/m^3] -->
     <g transform="translate(26.85625 446.835312) rotate(-90) scale(0.2 -0.2)">
      <defs>
       <path id="DejaVuSans-46" d="M 628 4666 
L 3309 4666 
L 3309 4134 
L 1259 4134 
L 1259 2759 
L 3109 2759 
L 3109 2228 
L 1259 2228 
L 1259 0 
L 628 0 
L 628 4666 
z
" transform="scale(0.015625)"/>
       <path id="DejaVuSans-6e" d="M 3513 2113 
L 3513 0 
L 2938 0 
L 2938 2094 
Q 2938 2591 2744 2837 
Q 2550 3084 2163 3084 
Q 1697 3084 1428 2787 
Q 1159 2491 1159 1978 
L 1159 0 
L 581 0 
L 581 3500 
L 1159 3500 
L 1159 2956 
Q 1366 3272 1645 3428 
Q 1925 3584 2291 3584 
Q 2894 3584 3203 3211 
Q 3513 2838 3513 2113 
z
" transform="scale(0.015625)"/>
       <path id="DejaVuSans-61" d="M 2194 1759 
Q 1497 1759 1228 1600 
Q 959 1441 959 1056 
Q 959 750 1161 570 
Q 1363 391 1709 391 
Q 2188 391 2477 730 
Q 2766 1069 2766 1631 
L 2766 1759 
L 2194 1759 
z
M 3341 1997 
L 3341 0 
L 2766 0 
L 2766 531 
Q 2569 213 2275 61 
Q 1981 -91 1556 -91 
Q 1019 -91 701 211 
Q 384 513 384 1019 
Q 384 1609 779 1909 
Q 1175 2209 1959 2209 
L 2766 2209 
L 2766 2266 
Q 2766 2663 2505 2880 
Q 2244 3097 1772 3097 
Q 1472 3097 1187 3025 
Q 903 2953 641 2809 
L 641 3341 
Q 956 3463 1253 3523 
Q 1550 3584 1831 3584 
Q 2591 3584 2966 3190 
Q 3341 2797 3341 1997 
z
" transform="scale(0.015625)"/>
       <path id="DejaVuSans-75" d="M 544 1381 
L 544 3500 
L 1119 3500 
L 1119 1403 
Q 1119 906 1312 657 
Q 1506 409 1894 409 
Q 2359 409 2629 706 
Q 2900 1003 2900 1516 
L 2900 3500 
L 3475 3500 
L 3475 0 
L 2900 0 
L 2900 538 
Q 2691 219 2414 64 
Q 2138 -91 1772 -91 
Q 1169 -91 856 284 
Q 544 659 544 1381 
z
M 1991 3584 
L 1991 3584 
z
" transform="scale(0.015625)"/>
       <path id="DejaVuSans-62" d="M 3116 1747 
Q 3116 2381 2855 2742 
Q 2594 3103 2138 3103 
Q 1681 3103 1420 2742 
Q 1159 2381 1159 1747 
Q 1159 1113 1420 752 
Q 1681 391 2138 391 
Q 2594 391 2855 752 
Q 3116 1113 3116 1747 
z
M 1159 2969 
Q 1341 3281 1617 3432 
Q 1894 3584 2278 3584 
Q 2916 3584 3314 3078 
Q 3713 2572 3713 1747 
Q 3713 922 3314 415 
Q 2916 -91 2278 -91 
Q 1894 -91 1617 61 
Q 1341 213 1159 525 
L 1159 0 
L 581 0 
L 581 4863 
L 1159 4863 
L 1159 2969 
z
" transform="scale(0.015625)"/>
       <path id="DejaVuSans-6b" d="M 581 4863 
L 1159 4863 
L 1159 1991 
L 2875 3500 
L 3609 3500 
L 1753 1863 
L 3688 0 
L 2938 0 
L 1159 1709 
L 1159 0 
L 581 0 
L 581 4863 
z
" transform="scale(0.015625)"/>
       <path id="DejaVuSans-6f" d="M 1959 3097 
Q 1497 3097 1228 2736 
Q 959 2375 959 1747 
Q 959 1119 1226 758 
Q 1494 397 1959 397 
Q 2419 397 2687 759 
Q 2956 1122 2956 1747 
Q 2956 2369 2687 2733 
Q 2419 3097 1959 3097 
z
M 1959 3584 
Q 2709 3584 3137 3096 
Q 3566 2609 3566 1747 
Q 3566 888 3137 398 
Q 2709 -91 1959 -91 
Q 1206 -91 779 398 
Q 353 888 353 1747 
Q 353 2609 779 3096 
Q 1206 3584 1959 3584 
z
" transform="scale(0.015625)"/>
       <path id="DejaVuSans-7a" d="M 353 3500 
L 3084 3500 
L 3084 2975 
L 922 459 
L 3084 459 
L 3084 0 
L 275 0 
L 275 525 
L 2438 3041 
L 353 3041 
L 353 3500 
z
" transform="scale(0.015625)"/>
       <path id="DejaVuSans-72" d="M 2631 2963 
Q 2534 3019 2420 3045 
Q 2306 3072 2169 3072 
Q 1681 3072 1420 2755 
Q 1159 2438 1159 1844 
L 1159 0 
L 581 0 
L 581 3500 
L 1159 3500 
L 1159 2956 
Q 1341 3275 1631 3429 
Q 1922 3584 2338 3584 
Q 2397 3584 2469 3576 
Q 2541 3569 2628 3553 
L 2631 2963 
z
" transform="scale(0.015625)"/>
       <path id="DejaVuSans-b5" d="M 544 -1331 
L 544 3500 
L 1119 3500 
L 1119 1325 
Q 1119 872 1334 640 
Q 1550 409 1972 409 
Q 2434 409 2667 671 
Q 2900 934 2900 1459 
L 2900 3500 
L 3475 3500 
L 3475 806 
Q 3475 619 3529 530 
Q 3584 441 3700 441 
Q 3728 441 3778 458 
Q 3828 475 3916 513 
L 3916 50 
Q 3788 -22 3673 -56 
Q 3559 -91 3450 -91 
Q 3234 -91 3106 31 
Q 2978 153 2931 403 
Q 2775 156 2548 32 
Q 2322 -91 2016 -91 
Q 1697 -91 1473 31 
Q 1250 153 1119 397 
L 1119 -1331 
L 544 -1331 
z
" transform="scale(0.015625)"/>
       <path id="DejaVuSans-67" d="M 2906 1791 
Q 2906 2416 2648 2759 
Q 2391 3103 1925 3103 
Q 1463 3103 1205 2759 
Q 947 2416 947 1791 
Q 947 1169 1205 825 
Q 1463 481 1925 481 
Q 2391 481 2648 825 
Q 2906 1169 2906 1791 
z
M 3481 434 
Q 3481 -459 3084 -895 
Q 2688 -1331 1869 -1331 
Q 1566 -1331 1297 -1286 
Q 1028 -1241 775 -1147 
L 775 -588 
Q 1028 -725 1275 -790 
Q 1522 -856 1778 -856 
Q 2344 -856 2625 -561 
Q 2906 -266 2906 331 
L 2906 616 
Q 2728 306 2450 153 
Q 2172 0 1784 0 
Q 1141 0 747 490 
Q 353 981 353 1791 
Q 353 2603 747 3093 
Q 1141 3584 1784 3584 
Q 2172 3584 2450 3431 
Q 2728 3278 2906 2969 
L 2906 3500 
L 3481 3500 
L 3481 434 
z
" transform="scale(0.015625)"/>
       <path id="DejaVuSans-2f" d="M 1625 4666 
L 2156 4666 
L 531 -594 
L 0 -594 
L 1625 4666 
z
" transform="scale(0.015625)"/>
       <path id="DejaVuSans-6d" d="M 3328 2828 
Q 3544 3216 3844 3400 
Q 4144 3584 4550 3584 
Q 5097 3584 5394 3201 
Q 5691 2819 5691 2113 
L 5691 0 
L 5113 0 
L 5113 2094 
Q 5113 2597 4934 2840 
Q 4756 3084 4391 3084 
Q 3944 3084 3684 2787 
Q 3425 2491 3425 1978 
L 3425 0 
L 2847 0 
L 2847 2094 
Q 2847 2600 2669 2842 
Q 2491 3084 2119 3084 
Q 1678 3084 1418 2786 
Q 1159 2488 1159 1978 
L 1159 0 
L 581 0 
L 581 3500 
L 1159 3500 
L 1159 2956 
Q 1356 3278 1631 3431 
Q 1906 3584 2284 3584 
Q 2666 3584 2933 3390 
Q 3200 3197 3328 2828 
z
" transform="scale(0.015625)"/>
       <path id="DejaVuSans-5e" d="M 2988 4666 
L 4684 2925 
L 4056 2925 
L 2681 4159 
L 1306 2925 
L 678 2925 
L 2375 4666 
L 2988 4666 
z
" transform="scale(0.015625)"/>
      </defs>
      <use xlink:href="#DejaVuSans-46"/>
      <use xlink:href="#DejaVuSans-65" x="52.019531"/>
      <use xlink:href="#DejaVuSans-69" x="113.542969"/>
      <use xlink:href="#DejaVuSans-6e" x="141.326172"/>
      <use xlink:href="#DejaVuSans-73" x="204.705078"/>
      <use xlink:href="#DejaVuSans-74" x="256.804688"/>
      <use xlink:href="#DejaVuSans-61" x="296.013672"/>
      <use xlink:href="#DejaVuSans-75" x="357.292969"/>
      <use xlink:href="#DejaVuSans-62" x="420.671875"/>
      <use xlink:href="#DejaVuSans-6b" x="484.148438"/>
      <use xlink:href="#DejaVuSans-6f" x="538.433594"/>
      <use xlink:href="#DejaVuSans-6e" x="599.615234"/>
      <use xlink:href="#DejaVuSans-7a" x="662.994141"/>
      <use xlink:href="#DejaVuSans-65" x="715.484375"/>
      <use xlink:href="#DejaVuSans-6e" x="777.007812"/>
      <use xlink:href="#DejaVuSans-74" x="840.386719"/>
      <use xlink:href="#DejaVuSans-72" x="879.595703"/>
      <use xlink:href="#DejaVuSans-61" x="920.708984"/>
      <use xlink:href="#DejaVuSans-74" x="981.988281"/>
      <use xlink:href="#DejaVuSans-69" x="1021.197266"/>
      <use xlink:href="#DejaVuSans-6f" x="1048.980469"/>
      <use xlink:href="#DejaVuSans-6e" x="1110.162109"/>
      <use xlink:href="#DejaVuSans-20" x="1173.541016"/>
      <use xlink:href="#DejaVuSans-5b" x="1205.328125"/>
      <use xlink:href="#DejaVuSans-b5" x="1244.341797"/>
      <use xlink:href="#DejaVuSans-67" x="1307.964844"/>
      <use xlink:href="#DejaVuSans-2f" x="1371.441406"/>
      <use xlink:href="#DejaVuSans-6d" x="1405.132812"/>
      <use xlink:href="#DejaVuSans-5e" x="1502.544922"/>
      <use xlink:href="#DejaVuSans-33" x="1586.333984"/>
      <use xlink:href="#DejaVuSans-5d" x="1649.957031"/>
     </g>
    </g>
   </g>
   <g id="line2d_14">
    <path d="M 100.14 233.26801 
L 109.357552 233.26801 
L 111.201063 227.311744 
L 113.044573 218.377346 
L 114.888084 212.421081 
L 116.731594 209.442948 
L 118.575105 209.442948 
L 120.416884 212.421081 
L 122.260394 218.377346 
L 124.103905 221.355479 
L 127.789195 239.224275 
L 129.632705 245.180541 
L 131.476216 167.749091 
L 133.319726 129.033366 
L 135.164968 84.361376 
L 137.006747 63.514447 
L 138.850258 57.558182 
L 140.693768 60.536314 
L 144.380789 78.405111 
L 146.224299 96.273907 
L 151.756562 114.142703 
L 153.600072 123.077101 
L 155.443583 134.989631 
L 157.287093 149.880295 
L 159.130604 161.792826 
L 164.661135 206.464816 
L 166.504645 212.421081 
L 170.191666 230.289877 
L 173.878687 254.114939 
L 175.722198 260.071204 
L 179.409219 254.114939 
L 183.09797 254.114939 
L 188.626771 245.180541 
L 190.470281 245.180541 
L 192.313792 242.202408 
L 196.000813 242.202408 
L 197.844323 245.180541 
L 199.687834 245.180541 
L 203.374855 239.224275 
L 208.907117 248.158673 
L 210.750627 248.158673 
L 212.594138 251.136806 
L 216.281159 263.049337 
L 218.124669 266.027469 
L 219.96818 271.983735 
L 221.81169 274.961867 
L 223.656932 274.961867 
L 225.500442 269.005602 
L 227.343952 266.027469 
L 229.189194 266.027469 
L 231.030973 257.093071 
L 232.874484 257.093071 
L 234.719725 254.114939 
L 236.564967 254.114939 
L 238.408477 257.093071 
L 243.937278 274.961867 
L 245.780788 283.896265 
L 247.626029 283.896265 
L 253.156561 292.830663 
L 258.687092 292.830663 
L 260.532334 286.874398 
L 262.375844 283.896265 
L 264.219355 286.874398 
L 266.062865 286.874398 
L 273.436907 298.786929 
L 275.282148 298.786929 
L 277.125659 301.765061 
L 280.814411 313.677592 
L 284.499701 319.633857 
L 286.344942 319.633857 
L 288.186721 316.655725 
L 290.030232 307.721327 
L 291.873742 301.765061 
L 293.717253 292.830663 
L 295.562494 286.874398 
L 297.407736 283.896265 
L 299.251246 274.961867 
L 302.938267 269.005602 
L 304.781778 269.005602 
L 306.625288 266.027469 
L 308.468798 269.005602 
L 310.312309 266.027469 
L 312.155819 269.005602 
L 314.001061 263.049337 
L 315.844571 251.136806 
L 317.688082 248.158673 
L 323.216882 248.158673 
L 328.747413 257.093071 
L 330.590924 263.049337 
L 332.434434 266.027469 
L 336.123186 277.94 
L 337.966697 280.918133 
L 343.497228 298.786929 
L 345.340739 313.677592 
L 350.873001 331.546388 
L 352.718242 340.480786 
L 354.561753 343.458919 
L 358.250505 337.502654 
L 360.092284 337.502654 
L 367.468057 325.590123 
L 369.313298 328.568256 
L 373.000319 328.568256 
L 374.845561 325.590123 
L 378.530851 325.590123 
L 382.217872 319.633857 
L 384.061382 313.677592 
L 385.904893 310.699459 
L 389.591913 298.786929 
L 393.278934 292.830663 
L 395.122445 283.896265 
L 396.965955 277.94 
L 398.809466 274.961867 
L 400.652976 266.027469 
L 402.496487 263.049337 
L 404.339997 257.093071 
L 408.027018 257.093071 
L 411.71577 263.049337 
L 413.55928 263.049337 
L 417.246301 251.136806 
L 419.089812 242.202408 
L 420.933322 236.246143 
L 422.776833 233.26801 
L 428.307364 233.26801 
L 431.992654 245.180541 
L 435.679675 263.049337 
L 437.521454 269.005602 
L 439.366696 277.94 
L 443.051986 289.852531 
L 444.895496 289.852531 
L 452.269538 301.765061 
L 454.114779 307.721327 
L 455.95829 310.699459 
L 457.8018 307.721327 
L 459.647042 310.699459 
L 461.488821 310.699459 
L 463.332332 307.721327 
L 465.177573 307.721327 
L 467.021084 310.699459 
L 468.864594 304.743194 
L 476.238636 304.743194 
L 478.082146 307.721327 
L 481.772629 307.721327 
L 483.61614 310.699459 
L 485.461381 298.786929 
L 487.304892 295.808796 
L 489.148402 289.852531 
L 490.993643 280.918133 
L 492.838885 274.961867 
L 494.682395 266.027469 
L 496.525906 263.049337 
L 498.369416 257.093071 
L 500.214658 257.093071 
L 502.056437 254.114939 
L 503.899948 254.114939 
L 509.430479 245.180541 
L 511.273989 248.158673 
L 513.119231 248.158673 
L 514.962741 254.114939 
L 524.182025 269.005602 
L 526.027266 274.961867 
L 527.870777 277.94 
L 529.712556 283.896265 
L 531.556066 280.918133 
L 533.399577 280.918133 
L 535.244818 277.94 
L 538.931839 277.94 
L 540.77535 280.918133 
L 544.462371 292.830663 
L 548.149392 298.786929 
L 549.992902 304.743194 
L 551.838143 304.743194 
L 557.368675 313.677592 
L 559.212185 313.677592 
L 561.055696 316.655725 
L 562.899206 316.655725 
L 566.586227 322.61199 
L 570.273248 322.61199 
L 573.960269 328.568256 
L 575.803779 328.568256 
L 577.64729 331.546388 
L 590.555325 331.546388 
L 594.242346 337.502654 
L 597.929367 337.502654 
L 599.771146 331.546388 
L 601.614657 328.568256 
L 603.458167 313.677592 
L 612.677451 269.005602 
L 614.522692 263.049337 
L 618.209713 263.049337 
L 620.053223 266.027469 
L 621.896734 271.983735 
L 623.738513 274.961867 
L 625.582024 280.918133 
L 627.425534 289.852531 
L 629.269045 292.830663 
L 631.114286 292.830663 
L 632.957797 286.874398 
L 634.799576 283.896265 
L 640.331838 283.896265 
L 642.17708 277.94 
L 644.02059 274.961867 
L 645.864101 277.94 
L 649.551122 271.983735 
L 651.394632 271.983735 
L 653.238143 269.005602 
L 658.772136 277.94 
L 660.615646 283.896265 
L 662.459157 286.874398 
L 666.147909 298.786929 
L 673.521951 310.699459 
L 679.052482 328.568256 
L 680.895992 331.546388 
L 682.739503 337.502654 
L 686.426524 343.458919 
L 690.113545 343.458919 
L 691.957055 340.480786 
L 695.647538 328.568256 
L 697.492779 319.633857 
L 699.33629 313.677592 
L 701.1798 304.743194 
L 703.025042 298.786929 
L 706.712063 280.918133 
L 708.555573 277.94 
L 714.087836 260.071204 
L 715.931346 257.093071 
L 717.774856 257.093071 
L 719.620098 254.114939 
L 726.99414 254.114939 
L 730.682892 248.158673 
L 732.526402 248.158673 
L 736.213423 254.114939 
L 745.429244 239.224275 
L 749.114534 227.311744 
L 750.958045 224.333612 
L 752.801555 224.333612 
L 754.646797 221.355479 
L 758.332086 227.311744 
L 762.017376 227.311744 
L 763.860887 230.289877 
L 765.704397 236.246143 
L 767.549639 239.224275 
L 769.393149 248.158673 
L 780.454212 283.896265 
L 782.297722 292.830663 
L 784.142964 298.786929 
L 785.988205 307.721327 
L 787.831716 307.721327 
L 789.676957 310.699459 
L 791.520468 307.721327 
L 797.054461 307.721327 
L 798.897971 304.743194 
L 802.586723 304.743194 
L 806.275475 310.699459 
L 813.652979 310.699459 
L 815.49649 307.721327 
L 817.34 307.721327 
L 817.34 307.721327 
" clip-path="url(#p2e2c4a0999)" style="fill: none; stroke: #1f77b4; stroke-width: 1.5; stroke-linecap: square"/>
   </g>
   <g id="line2d_15">
    <path d="M 100.14 453.649828 
L 111.201063 453.649828 
L 113.044573 450.671695 
L 120.416884 450.671695 
L 122.260394 453.649828 
L 125.947415 453.649828 
L 129.632705 459.606093 
L 131.476216 444.71543 
L 135.164968 426.846634 
L 138.850258 420.890369 
L 140.693768 423.868501 
L 142.537278 423.868501 
L 146.224299 429.824767 
L 148.06781 429.824767 
L 149.91132 432.802899 
L 151.756562 432.802899 
L 155.443583 438.759165 
L 157.287093 438.759165 
L 166.504645 453.649828 
L 168.348156 453.649828 
L 170.191666 456.627961 
L 172.035177 456.627961 
L 175.722198 462.584226 
L 177.565708 459.606093 
L 192.313792 459.606093 
L 194.157302 456.627961 
L 196.000813 456.627961 
L 197.844323 459.606093 
L 199.687834 459.606093 
L 201.531344 456.627961 
L 207.063606 456.627961 
L 208.907117 459.606093 
L 214.437648 459.606093 
L 216.281159 462.584226 
L 229.189194 462.584226 
L 231.030973 459.606093 
L 240.251988 459.606093 
L 242.095498 462.584226 
L 243.937278 462.584226 
L 245.780788 465.562359 
L 258.687092 465.562359 
L 260.532334 462.584226 
L 262.375844 462.584226 
L 264.219355 465.562359 
L 275.282148 465.562359 
L 277.125659 468.540491 
L 280.814411 468.540491 
L 282.65619 471.518624 
L 288.186721 471.518624 
L 290.030232 468.540491 
L 291.873742 468.540491 
L 293.717253 465.562359 
L 295.562494 465.562359 
L 297.407736 462.584226 
L 301.094757 462.584226 
L 302.938267 459.606093 
L 314.001061 459.606093 
L 315.844571 456.627961 
L 328.747413 456.627961 
L 330.590924 459.606093 
L 334.277945 459.606093 
L 336.123186 462.584226 
L 339.810207 462.584226 
L 341.653718 465.562359 
L 343.497228 465.562359 
L 347.18598 471.518624 
L 349.02949 471.518624 
L 350.873001 474.496757 
L 363.781036 474.496757 
L 365.624547 471.518624 
L 382.217872 471.518624 
L 384.061382 468.540491 
L 387.748403 468.540491 
L 389.591913 465.562359 
L 393.278934 465.562359 
L 395.122445 462.584226 
L 398.809466 462.584226 
L 400.652976 459.606093 
L 415.402791 459.606093 
L 417.246301 456.627961 
L 419.089812 456.627961 
L 420.933322 453.649828 
L 430.149143 453.649828 
L 431.992654 456.627961 
L 433.836164 456.627961 
L 435.679675 459.606093 
L 437.521454 459.606093 
L 439.366696 462.584226 
L 441.210206 462.584226 
L 443.051986 465.562359 
L 450.426027 465.562359 
L 452.269538 468.540491 
L 485.461381 468.540491 
L 487.304892 465.562359 
L 489.148402 465.562359 
L 490.993643 462.584226 
L 492.838885 462.584226 
L 494.682395 459.606093 
L 500.214658 459.606093 
L 502.056437 456.627961 
L 516.804521 456.627961 
L 518.648031 459.606093 
L 526.027266 459.606093 
L 527.870777 462.584226 
L 537.088329 462.584226 
L 538.931839 459.606093 
L 540.77535 462.584226 
L 544.462371 462.584226 
L 546.305881 465.562359 
L 553.679923 465.562359 
L 555.525164 468.540491 
L 568.429738 468.540491 
L 570.273248 471.518624 
L 592.398836 471.518624 
L 594.242346 474.496757 
L 597.929367 474.496757 
L 599.771146 471.518624 
L 601.614657 471.518624 
L 605.301678 465.562359 
L 607.145188 465.562359 
L 610.83394 459.606093 
L 614.522692 459.606093 
L 616.366202 456.627961 
L 618.209713 459.606093 
L 623.738513 459.606093 
L 625.582024 462.584226 
L 627.425534 462.584226 
L 629.269045 465.562359 
L 631.114286 465.562359 
L 632.957797 462.584226 
L 647.707611 462.584226 
L 649.551122 459.606093 
L 655.083384 459.606093 
L 656.926894 462.584226 
L 660.615646 462.584226 
L 662.459157 465.562359 
L 666.147909 465.562359 
L 667.99315 468.540491 
L 673.521951 468.540491 
L 675.365461 471.518624 
L 679.052482 471.518624 
L 680.895992 474.496757 
L 693.802297 474.496757 
L 695.647538 471.518624 
L 697.492779 471.518624 
L 699.33629 468.540491 
L 701.1798 468.540491 
L 703.025042 465.562359 
L 704.868552 465.562359 
L 706.712063 462.584226 
L 708.555573 462.584226 
L 710.400815 459.606093 
L 712.244325 459.606093 
L 714.087836 456.627961 
L 728.83765 456.627961 
L 730.682892 453.649828 
L 732.526402 453.649828 
L 734.369913 456.627961 
L 738.056933 456.627961 
L 739.900444 453.649828 
L 743.585734 453.649828 
L 745.429244 450.671695 
L 747.272755 450.671695 
L 749.114534 447.693563 
L 763.860887 447.693563 
L 765.704397 450.671695 
L 769.393149 450.671695 
L 771.23666 453.649828 
L 773.08017 453.649828 
L 774.923681 456.627961 
L 776.767191 456.627961 
L 778.610701 459.606093 
L 780.454212 459.606093 
L 782.297722 462.584226 
L 784.142964 462.584226 
L 785.988205 465.562359 
L 817.34 465.562359 
L 817.34 465.562359 
" clip-path="url(#p2e2c4a0999)" style="fill: none; stroke: #ff7f0e; stroke-width: 1.5; stroke-linecap: square"/>
   </g>
   <g id="line2d_16">
    <path d="M 100.14 477.474889 
L 111.201063 477.474889 
L 113.044573 474.496757 
L 120.416884 474.496757 
L 122.260394 477.474889 
L 125.947415 477.474889 
L 127.789195 480.453022 
L 129.632705 480.453022 
L 131.476216 471.518624 
L 133.319726 465.562359 
L 137.006747 459.606093 
L 142.537278 459.606093 
L 144.380789 462.584226 
L 146.224299 462.584226 
L 148.06781 465.562359 
L 153.600072 465.562359 
L 155.443583 468.540491 
L 157.287093 468.540491 
L 159.130604 471.518624 
L 160.974114 471.518624 
L 162.817624 474.496757 
L 164.661135 474.496757 
L 166.504645 477.474889 
L 170.191666 477.474889 
L 172.035177 480.453022 
L 218.124669 480.453022 
L 219.96818 483.431155 
L 225.500442 483.431155 
L 227.343952 480.453022 
L 242.095498 480.453022 
L 243.937278 483.431155 
L 277.125659 483.431155 
L 278.9709 486.409287 
L 290.030232 486.409287 
L 291.873742 483.431155 
L 297.407736 483.431155 
L 299.251246 480.453022 
L 314.001061 480.453022 
L 315.844571 477.474889 
L 328.747413 477.474889 
L 330.590924 480.453022 
L 337.966697 480.453022 
L 339.810207 483.431155 
L 343.497228 483.431155 
L 345.340739 486.409287 
L 349.02949 486.409287 
L 350.873001 489.38742 
L 363.781036 489.38742 
L 365.624547 486.409287 
L 371.156809 486.409287 
L 373.000319 489.38742 
L 374.845561 486.409287 
L 387.748403 486.409287 
L 389.591913 483.431155 
L 395.122445 483.431155 
L 396.965955 480.453022 
L 415.402791 480.453022 
L 417.246301 477.474889 
L 431.992654 477.474889 
L 433.836164 480.453022 
L 439.366696 480.453022 
L 441.210206 483.431155 
L 452.269538 483.431155 
L 454.114779 486.409287 
L 483.61614 486.409287 
L 485.461381 483.431155 
L 490.993643 483.431155 
L 492.838885 480.453022 
L 502.056437 480.453022 
L 503.899948 477.474889 
L 516.804521 477.474889 
L 518.648031 480.453022 
L 542.61886 480.453022 
L 544.462371 483.431155 
L 559.212185 483.431155 
L 561.055696 486.409287 
L 594.242346 486.409287 
L 596.084125 489.38742 
L 597.929367 486.409287 
L 603.458167 486.409287 
L 605.301678 483.431155 
L 607.145188 483.431155 
L 608.99043 480.453022 
L 614.522692 480.453022 
L 616.366202 477.474889 
L 618.209713 477.474889 
L 620.053223 480.453022 
L 625.582024 480.453022 
L 627.425534 483.431155 
L 632.957797 483.431155 
L 634.799576 480.453022 
L 658.772136 480.453022 
L 660.615646 483.431155 
L 667.99315 483.431155 
L 669.83493 486.409287 
L 679.052482 486.409287 
L 680.895992 489.38742 
L 693.802297 489.38742 
L 695.647538 486.409287 
L 699.33629 486.409287 
L 701.1798 483.431155 
L 704.868552 483.431155 
L 706.712063 480.453022 
L 712.244325 480.453022 
L 714.087836 477.474889 
L 739.900444 477.474889 
L 741.742223 474.496757 
L 749.114534 474.496757 
L 750.958045 471.518624 
L 763.860887 471.518624 
L 765.704397 474.496757 
L 771.23666 474.496757 
L 773.08017 477.474889 
L 778.610701 477.474889 
L 780.454212 480.453022 
L 784.142964 480.453022 
L 785.988205 483.431155 
L 817.34 483.431155 
L 817.34 483.431155 
" clip-path="url(#p2e2c4a0999)" style="fill: none; stroke: #2ca02c; stroke-width: 1.5; stroke-linecap: square"/>
   </g>
   <g id="line2d_17">
    <path d="M 100.14 492.365553 
L 125.947415 492.365553 
L 127.789195 495.343686 
L 129.632705 495.343686 
L 131.476216 489.38742 
L 133.319726 489.38742 
L 137.006747 483.431155 
L 142.537278 483.431155 
L 144.380789 486.409287 
L 151.756562 486.409287 
L 153.600072 489.38742 
L 159.130604 489.38742 
L 160.974114 492.365553 
L 168.348156 492.365553 
L 170.191666 495.343686 
L 253.156561 495.343686 
L 255.000071 498.321818 
L 256.845313 495.343686 
L 269.749886 495.343686 
L 271.593396 498.321818 
L 291.873742 498.321818 
L 293.717253 495.343686 
L 315.844571 495.343686 
L 317.688082 492.365553 
L 325.060393 492.365553 
L 326.903903 495.343686 
L 341.653718 495.343686 
L 343.497228 498.321818 
L 389.591913 498.321818 
L 391.435424 495.343686 
L 417.246301 495.343686 
L 419.089812 492.365553 
L 430.149143 492.365553 
L 431.992654 495.343686 
L 446.739007 495.343686 
L 448.582517 498.321818 
L 487.304892 498.321818 
L 489.148402 495.343686 
L 507.586969 495.343686 
L 509.430479 492.365553 
L 511.273989 492.365553 
L 513.119231 495.343686 
L 551.838143 495.343686 
L 553.679923 498.321818 
L 605.301678 498.321818 
L 607.145188 495.343686 
L 664.302667 495.343686 
L 666.147909 498.321818 
L 701.1798 498.321818 
L 703.025042 495.343686 
L 719.620098 495.343686 
L 721.463608 492.365553 
L 752.801555 492.365553 
L 754.646797 489.38742 
L 756.488576 489.38742 
L 758.332086 492.365553 
L 760.173866 489.38742 
L 762.017376 492.365553 
L 776.767191 492.365553 
L 778.610701 495.343686 
L 817.34 495.343686 
L 817.34 495.343686 
" clip-path="url(#p2e2c4a0999)" style="fill: none; stroke: #d62728; stroke-width: 1.5; stroke-linecap: square"/>
   </g>
   <g id="patch_3">
    <path d="M 64.28 520.36 
L 64.28 35.52 
" style="fill: none; stroke: #000000; stroke-width: 0.8; stroke-linejoin: miter; stroke-linecap: square"/>
   </g>
   <g id="patch_4">
    <path d="M 853.2 520.36 
L 853.2 35.52 
" style="fill: none; stroke: #000000; stroke-width: 0.8; stroke-linejoin: miter; stroke-linecap: square"/>
   </g>
   <g id="patch_5">
    <path d="M 64.28 520.36 
L 853.2 520.36 
" style="fill: none; stroke: #000000; stroke-width: 0.8; stroke-linejoin: miter; stroke-linecap: square"/>
   </g>
   <g id="patch_6">
    <path d="M 64.28 35.52 
L 853.2 35.52 
" style="fill: none; stroke: #000000; stroke-width: 0.8; stroke-linejoin: miter; stroke-linecap: square"/>
   </g>
   <g id="text_16">
    <!-- Feinstaubkonzentration im Innenraum -->
    <g transform="translate(229.94875 29.52) scale(0.24 -0.24)">
     <defs>
      <path id="DejaVuSans-49" d="M 628 4666 
L 1259 4666 
L 1259 0 
L 628 0 
L 628 4666 
z
" transform="scale(0.015625)"/>
     </defs>
     <use xlink:href="#DejaVuSans-46"/>
     <use xlink:href="#DejaVuSans-65" x="52.019531"/>
     <use xlink:href="#DejaVuSans-69" x="113.542969"/>
     <use xlink:href="#DejaVuSans-6e" x="141.326172"/>
     <use xlink:href="#DejaVuSans-73" x="204.705078"/>
     <use xlink:href="#DejaVuSans-74" x="256.804688"/>
     <use xlink:href="#DejaVuSans-61" x="296.013672"/>
     <use xlink:href="#DejaVuSans-75" x="357.292969"/>
     <use xlink:href="#DejaVuSans-62" x="420.671875"/>
     <use xlink:href="#DejaVuSans-6b" x="484.148438"/>
     <use xlink:href="#DejaVuSans-6f" x="538.433594"/>
     <use xlink:href="#DejaVuSans-6e" x="599.615234"/>
     <use xlink:href="#DejaVuSans-7a" x="662.994141"/>
     <use xlink:href="#DejaVuSans-65" x="715.484375"/>
     <use xlink:href="#DejaVuSans-6e" x="777.007812"/>
     <use xlink:href="#DejaVuSans-74" x="840.386719"/>
     <use xlink:href="#DejaVuSans-72" x="879.595703"/>
     <use xlink:href="#DejaVuSans-61" x="920.708984"/>
     <use xlink:href="#DejaVuSans-74" x="981.988281"/>
     <use xlink:href="#DejaVuSans-69" x="1021.197266"/>
     <use xlink:href="#DejaVuSans-6f" x="1048.980469"/>
     <use xlink:href="#DejaVuSans-6e" x="1110.162109"/>
     <use xlink:href="#DejaVuSans-20" x="1173.541016"/>
     <use xlink:href="#DejaVuSans-69" x="1205.328125"/>
     <use xlink:href="#DejaVuSans-6d" x="1233.111328"/>
     <use xlink:href="#DejaVuSans-20" x="1330.523438"/>
     <use xlink:href="#DejaVuSans-49" x="1362.310547"/>
     <use xlink:href="#DejaVuSans-6e" x="1391.802734"/>
     <use xlink:href="#DejaVuSans-6e" x="1455.181641"/>
     <use xlink:href="#DejaVuSans-65" x="1518.560547"/>
     <use xlink:href="#DejaVuSans-6e" x="1580.083984"/>
     <use xlink:href="#DejaVuSans-72" x="1643.462891"/>
     <use xlink:href="#DejaVuSans-61" x="1684.576172"/>
     <use xlink:href="#DejaVuSans-75" x="1745.855469"/>
     <use xlink:href="#DejaVuSans-6d" x="1809.234375"/>
    </g>
   </g>
   <g id="legend_1">
    <g id="patch_7">
     <path d="M 655.05625 168.945 
L 839.2 168.945 
Q 843.2 168.945 843.2 164.945 
L 843.2 49.52 
Q 843.2 45.52 839.2 45.52 
L 655.05625 45.52 
Q 651.05625 45.52 651.05625 49.52 
L 651.05625 164.945 
Q 651.05625 168.945 655.05625 168.945 
z
" style="fill: #ffffff; opacity: 0.8; stroke: #cccccc; stroke-linejoin: miter"/>
    </g>
    <g id="line2d_18">
     <path d="M 659.05625 61.716875 
L 679.05625 61.716875 
L 699.05625 61.716875 
" style="fill: none; stroke: #1f77b4; stroke-width: 1.5; stroke-linecap: square"/>
    </g>
    <g id="text_17">
     <!-- Bucket0,3-1 -->
     <g transform="translate(715.05625 68.716875) scale(0.2 -0.2)">
      <defs>
       <path id="DejaVuSans-42" d="M 1259 2228 
L 1259 519 
L 2272 519 
Q 2781 519 3026 730 
Q 3272 941 3272 1375 
Q 3272 1813 3026 2020 
Q 2781 2228 2272 2228 
L 1259 2228 
z
M 1259 4147 
L 1259 2741 
L 2194 2741 
Q 2656 2741 2882 2914 
Q 3109 3088 3109 3444 
Q 3109 3797 2882 3972 
Q 2656 4147 2194 4147 
L 1259 4147 
z
M 628 4666 
L 2241 4666 
Q 2963 4666 3353 4366 
Q 3744 4066 3744 3513 
Q 3744 3084 3544 2831 
Q 3344 2578 2956 2516 
Q 3422 2416 3680 2098 
Q 3938 1781 3938 1306 
Q 3938 681 3513 340 
Q 3088 0 2303 0 
L 628 0 
L 628 4666 
z
" transform="scale(0.015625)"/>
       <path id="DejaVuSans-63" d="M 3122 3366 
L 3122 2828 
Q 2878 2963 2633 3030 
Q 2388 3097 2138 3097 
Q 1578 3097 1268 2742 
Q 959 2388 959 1747 
Q 959 1106 1268 751 
Q 1578 397 2138 397 
Q 2388 397 2633 464 
Q 2878 531 3122 666 
L 3122 134 
Q 2881 22 2623 -34 
Q 2366 -91 2075 -91 
Q 1284 -91 818 406 
Q 353 903 353 1747 
Q 353 2603 823 3093 
Q 1294 3584 2113 3584 
Q 2378 3584 2631 3529 
Q 2884 3475 3122 3366 
z
" transform="scale(0.015625)"/>
       <path id="DejaVuSans-2c" d="M 750 794 
L 1409 794 
L 1409 256 
L 897 -744 
L 494 -744 
L 750 256 
L 750 794 
z
" transform="scale(0.015625)"/>
       <path id="DejaVuSans-2d" d="M 313 2009 
L 1997 2009 
L 1997 1497 
L 313 1497 
L 313 2009 
z
" transform="scale(0.015625)"/>
      </defs>
      <use xlink:href="#DejaVuSans-42"/>
      <use xlink:href="#DejaVuSans-75" x="68.603516"/>
      <use xlink:href="#DejaVuSans-63" x="131.982422"/>
      <use xlink:href="#DejaVuSans-6b" x="186.962891"/>
      <use xlink:href="#DejaVuSans-65" x="241.248047"/>
      <use xlink:href="#DejaVuSans-74" x="302.771484"/>
      <use xlink:href="#DejaVuSans-30" x="341.980469"/>
      <use xlink:href="#DejaVuSans-2c" x="405.603516"/>
      <use xlink:href="#DejaVuSans-33" x="437.390625"/>
      <use xlink:href="#DejaVuSans-2d" x="501.013672"/>
      <use xlink:href="#DejaVuSans-31" x="537.097656"/>
     </g>
    </g>
    <g id="line2d_19">
     <path d="M 659.05625 91.073125 
L 679.05625 91.073125 
L 699.05625 91.073125 
" style="fill: none; stroke: #ff7f0e; stroke-width: 1.5; stroke-linecap: square"/>
    </g>
    <g id="text_18">
     <!-- Bucket1-2,5 -->
     <g transform="translate(715.05625 98.073125) scale(0.2 -0.2)">
      <defs>
       <path id="DejaVuSans-35" d="M 691 4666 
L 3169 4666 
L 3169 4134 
L 1269 4134 
L 1269 2991 
Q 1406 3038 1543 3061 
Q 1681 3084 1819 3084 
Q 2600 3084 3056 2656 
Q 3513 2228 3513 1497 
Q 3513 744 3044 326 
Q 2575 -91 1722 -91 
Q 1428 -91 1123 -41 
Q 819 9 494 109 
L 494 744 
Q 775 591 1075 516 
Q 1375 441 1709 441 
Q 2250 441 2565 725 
Q 2881 1009 2881 1497 
Q 2881 1984 2565 2268 
Q 2250 2553 1709 2553 
Q 1456 2553 1204 2497 
Q 953 2441 691 2322 
L 691 4666 
z
" transform="scale(0.015625)"/>
      </defs>
      <use xlink:href="#DejaVuSans-42"/>
      <use xlink:href="#DejaVuSans-75" x="68.603516"/>
      <use xlink:href="#DejaVuSans-63" x="131.982422"/>
      <use xlink:href="#DejaVuSans-6b" x="186.962891"/>
      <use xlink:href="#DejaVuSans-65" x="241.248047"/>
      <use xlink:href="#DejaVuSans-74" x="302.771484"/>
      <use xlink:href="#DejaVuSans-31" x="341.980469"/>
      <use xlink:href="#DejaVuSans-2d" x="405.603516"/>
      <use xlink:href="#DejaVuSans-32" x="441.6875"/>
      <use xlink:href="#DejaVuSans-2c" x="505.310547"/>
      <use xlink:href="#DejaVuSans-35" x="537.097656"/>
     </g>
    </g>
    <g id="line2d_20">
     <path d="M 659.05625 120.429375 
L 679.05625 120.429375 
L 699.05625 120.429375 
" style="fill: none; stroke: #2ca02c; stroke-width: 1.5; stroke-linecap: square"/>
    </g>
    <g id="text_19">
     <!-- Bucket2,5-4 -->
     <g transform="translate(715.05625 127.429375) scale(0.2 -0.2)">
      <use xlink:href="#DejaVuSans-42"/>
      <use xlink:href="#DejaVuSans-75" x="68.603516"/>
      <use xlink:href="#DejaVuSans-63" x="131.982422"/>
      <use xlink:href="#DejaVuSans-6b" x="186.962891"/>
      <use xlink:href="#DejaVuSans-65" x="241.248047"/>
      <use xlink:href="#DejaVuSans-74" x="302.771484"/>
      <use xlink:href="#DejaVuSans-32" x="341.980469"/>
      <use xlink:href="#DejaVuSans-2c" x="405.603516"/>
      <use xlink:href="#DejaVuSans-35" x="437.390625"/>
      <use xlink:href="#DejaVuSans-2d" x="501.013672"/>
      <use xlink:href="#DejaVuSans-34" x="537.097656"/>
     </g>
    </g>
    <g id="line2d_21">
     <path d="M 659.05625 149.785625 
L 679.05625 149.785625 
L 699.05625 149.785625 
" style="fill: none; stroke: #d62728; stroke-width: 1.5; stroke-linecap: square"/>
    </g>
    <g id="text_20">
     <!-- Bucket4-10 -->
     <g transform="translate(715.05625 156.785625) scale(0.2 -0.2)">
      <use xlink:href="#DejaVuSans-42"/>
      <use xlink:href="#DejaVuSans-75" x="68.603516"/>
      <use xlink:href="#DejaVuSans-63" x="131.982422"/>
      <use xlink:href="#DejaVuSans-6b" x="186.962891"/>
      <use xlink:href="#DejaVuSans-65" x="241.248047"/>
      <use xlink:href="#DejaVuSans-74" x="302.771484"/>
      <use xlink:href="#DejaVuSans-34" x="341.980469"/>
      <use xlink:href="#DejaVuSans-2d" x="405.603516"/>
      <use xlink:href="#DejaVuSans-31" x="441.6875"/>
      <use xlink:href="#DejaVuSans-30" x="505.310547"/>
     </g>
    </g>
   </g>
  </g>
 </g>
 <defs>
  <clipPath id="p2e2c4a0999">
   <rect x="64.28" y="35.52" width="788.92" height="484.84"/>
  </clipPath>
 </defs>
</svg>
