<?xml version="1.0" encoding="utf-8" standalone="no"?>
<!DOCTYPE svg PUBLIC "-//W3C//DTD SVG 1.1//EN"
  "http://www.w3.org/Graphics/SVG/1.1/DTD/svg11.dtd">
<svg xmlns:xlink="http://www.w3.org/1999/xlink" width="864pt" height="576pt" viewBox="0 0 864 576" xmlns="http://www.w3.org/2000/svg" version="1.1">
 <metadata>
  <rdf:RDF xmlns:dc="http://purl.org/dc/elements/1.1/" xmlns:cc="http://creativecommons.org/ns#" xmlns:rdf="http://www.w3.org/1999/02/22-rdf-syntax-ns#">
   <cc:Work>
    <dc:type rdf:resource="http://purl.org/dc/dcmitype/StillImage"/>
    <dc:date>2023-12-21T14:19:13.595105</dc:date>
    <dc:format>image/svg+xml</dc:format>
    <dc:creator>
     <cc:Agent>
      <dc:title>Matplotlib v3.8.2, https://matplotlib.org/</dc:title>
     </cc:Agent>
    </dc:creator>
   </cc:Work>
  </rdf:RDF>
 </metadata>
 <defs>
  <style type="text/css">*{stroke-linejoin: round; stroke-linecap: butt}</style>
 </defs>
 <g id="figure_1">
  <g id="patch_1">
   <path d="M 0 576 
L 864 576 
L 864 0 
L 0 0 
z
" style="fill: #ffffff"/>
  </g>
  <g id="axes_1">
   <g id="patch_2">
    <path d="M 73.28 520.36 
L 853.2 520.36 
L 853.2 35.52 
L 73.28 35.52 
z
" style="fill: #ffffff"/>
   </g>
   <g id="matplotlib.axis_1">
    <g id="xtick_1">
     <g id="line2d_1">
      <defs>
       <path id="m6afb27d6b3" d="M 0 0 
L 0 3.5 
" style="stroke: #000000; stroke-width: 0.8"/>
      </defs>
      <g>
       <use xlink:href="#m6afb27d6b3" x="108.730909" y="520.36" style="stroke: #000000; stroke-width: 0.8"/>
      </g>
     </g>
     <g id="text_1">
      <!-- 0 -->
      <g transform="translate(104.277159 537.997813) scale(0.14 -0.14)">
       <defs>
        <path id="DejaVuSans-30" d="M 2034 4250 
Q 1547 4250 1301 3770 
Q 1056 3291 1056 2328 
Q 1056 1369 1301 889 
Q 1547 409 2034 409 
Q 2525 409 2770 889 
Q 3016 1369 3016 2328 
Q 3016 3291 2770 3770 
Q 2525 4250 2034 4250 
z
M 2034 4750 
Q 2819 4750 3233 4129 
Q 3647 3509 3647 2328 
Q 3647 1150 3233 529 
Q 2819 -91 2034 -91 
Q 1250 -91 836 529 
Q 422 1150 422 2328 
Q 422 3509 836 4129 
Q 1250 4750 2034 4750 
z
" transform="scale(0.015625)"/>
       </defs>
       <use xlink:href="#DejaVuSans-30"/>
      </g>
     </g>
    </g>
    <g id="xtick_2">
     <g id="line2d_2">
      <g>
       <use xlink:href="#m6afb27d6b3" x="279.855762" y="520.36" style="stroke: #000000; stroke-width: 0.8"/>
      </g>
     </g>
     <g id="text_2">
      <!-- 100 -->
      <g transform="translate(266.494512 537.997813) scale(0.14 -0.14)">
       <defs>
        <path id="DejaVuSans-31" d="M 794 531 
L 1825 531 
L 1825 4091 
L 703 3866 
L 703 4441 
L 1819 4666 
L 2450 4666 
L 2450 531 
L 3481 531 
L 3481 0 
L 794 0 
L 794 531 
z
" transform="scale(0.015625)"/>
       </defs>
       <use xlink:href="#DejaVuSans-31"/>
       <use xlink:href="#DejaVuSans-30" x="63.623047"/>
       <use xlink:href="#DejaVuSans-30" x="127.246094"/>
      </g>
     </g>
    </g>
    <g id="xtick_3">
     <g id="line2d_3">
      <g>
       <use xlink:href="#m6afb27d6b3" x="450.980616" y="520.36" style="stroke: #000000; stroke-width: 0.8"/>
      </g>
     </g>
     <g id="text_3">
      <!-- 200 -->
      <g transform="translate(437.619366 537.997813) scale(0.14 -0.14)">
       <defs>
        <path id="DejaVuSans-32" d="M 1228 531 
L 3431 531 
L 3431 0 
L 469 0 
L 469 531 
Q 828 903 1448 1529 
Q 2069 2156 2228 2338 
Q 2531 2678 2651 2914 
Q 2772 3150 2772 3378 
Q 2772 3750 2511 3984 
Q 2250 4219 1831 4219 
Q 1534 4219 1204 4116 
Q 875 4013 500 3803 
L 500 4441 
Q 881 4594 1212 4672 
Q 1544 4750 1819 4750 
Q 2544 4750 2975 4387 
Q 3406 4025 3406 3419 
Q 3406 3131 3298 2873 
Q 3191 2616 2906 2266 
Q 2828 2175 2409 1742 
Q 1991 1309 1228 531 
z
" transform="scale(0.015625)"/>
       </defs>
       <use xlink:href="#DejaVuSans-32"/>
       <use xlink:href="#DejaVuSans-30" x="63.623047"/>
       <use xlink:href="#DejaVuSans-30" x="127.246094"/>
      </g>
     </g>
    </g>
    <g id="xtick_4">
     <g id="line2d_4">
      <g>
       <use xlink:href="#m6afb27d6b3" x="622.105469" y="520.36" style="stroke: #000000; stroke-width: 0.8"/>
      </g>
     </g>
     <g id="text_4">
      <!-- 300 -->
      <g transform="translate(608.744219 537.997813) scale(0.14 -0.14)">
       <defs>
        <path id="DejaVuSans-33" d="M 2597 2516 
Q 3050 2419 3304 2112 
Q 3559 1806 3559 1356 
Q 3559 666 3084 287 
Q 2609 -91 1734 -91 
Q 1441 -91 1130 -33 
Q 819 25 488 141 
L 488 750 
Q 750 597 1062 519 
Q 1375 441 1716 441 
Q 2309 441 2620 675 
Q 2931 909 2931 1356 
Q 2931 1769 2642 2001 
Q 2353 2234 1838 2234 
L 1294 2234 
L 1294 2753 
L 1863 2753 
Q 2328 2753 2575 2939 
Q 2822 3125 2822 3475 
Q 2822 3834 2567 4026 
Q 2313 4219 1838 4219 
Q 1578 4219 1281 4162 
Q 984 4106 628 3988 
L 628 4550 
Q 988 4650 1302 4700 
Q 1616 4750 1894 4750 
Q 2613 4750 3031 4423 
Q 3450 4097 3450 3541 
Q 3450 3153 3228 2886 
Q 3006 2619 2597 2516 
z
" transform="scale(0.015625)"/>
       </defs>
       <use xlink:href="#DejaVuSans-33"/>
       <use xlink:href="#DejaVuSans-30" x="63.623047"/>
       <use xlink:href="#DejaVuSans-30" x="127.246094"/>
      </g>
     </g>
    </g>
    <g id="xtick_5">
     <g id="line2d_5">
      <g>
       <use xlink:href="#m6afb27d6b3" x="793.230322" y="520.36" style="stroke: #000000; stroke-width: 0.8"/>
      </g>
     </g>
     <g id="text_5">
      <!-- 400 -->
      <g transform="translate(779.869072 537.997813) scale(0.14 -0.14)">
       <defs>
        <path id="DejaVuSans-34" d="M 2419 4116 
L 825 1625 
L 2419 1625 
L 2419 4116 
z
M 2253 4666 
L 3047 4666 
L 3047 1625 
L 3713 1625 
L 3713 1100 
L 3047 1100 
L 3047 0 
L 2419 0 
L 2419 1100 
L 313 1100 
L 313 1709 
L 2253 4666 
z
" transform="scale(0.015625)"/>
       </defs>
       <use xlink:href="#DejaVuSans-34"/>
       <use xlink:href="#DejaVuSans-30" x="63.623047"/>
       <use xlink:href="#DejaVuSans-30" x="127.246094"/>
      </g>
     </g>
    </g>
    <g id="text_6">
     <!-- Zeit [s] -->
     <g transform="translate(427.347813 560.10625) scale(0.2 -0.2)">
      <defs>
       <path id="DejaVuSans-5a" d="M 359 4666 
L 4025 4666 
L 4025 4184 
L 1075 531 
L 4097 531 
L 4097 0 
L 288 0 
L 288 481 
L 3238 4134 
L 359 4134 
L 359 4666 
z
" transform="scale(0.015625)"/>
       <path id="DejaVuSans-65" d="M 3597 1894 
L 3597 1613 
L 953 1613 
Q 991 1019 1311 708 
Q 1631 397 2203 397 
Q 2534 397 2845 478 
Q 3156 559 3463 722 
L 3463 178 
Q 3153 47 2828 -22 
Q 2503 -91 2169 -91 
Q 1331 -91 842 396 
Q 353 884 353 1716 
Q 353 2575 817 3079 
Q 1281 3584 2069 3584 
Q 2775 3584 3186 3129 
Q 3597 2675 3597 1894 
z
M 3022 2063 
Q 3016 2534 2758 2815 
Q 2500 3097 2075 3097 
Q 1594 3097 1305 2825 
Q 1016 2553 972 2059 
L 3022 2063 
z
" transform="scale(0.015625)"/>
       <path id="DejaVuSans-69" d="M 603 3500 
L 1178 3500 
L 1178 0 
L 603 0 
L 603 3500 
z
M 603 4863 
L 1178 4863 
L 1178 4134 
L 603 4134 
L 603 4863 
z
" transform="scale(0.015625)"/>
       <path id="DejaVuSans-74" d="M 1172 4494 
L 1172 3500 
L 2356 3500 
L 2356 3053 
L 1172 3053 
L 1172 1153 
Q 1172 725 1289 603 
Q 1406 481 1766 481 
L 2356 481 
L 2356 0 
L 1766 0 
Q 1100 0 847 248 
Q 594 497 594 1153 
L 594 3053 
L 172 3053 
L 172 3500 
L 594 3500 
L 594 4494 
L 1172 4494 
z
" transform="scale(0.015625)"/>
       <path id="DejaVuSans-20" transform="scale(0.015625)"/>
       <path id="DejaVuSans-5b" d="M 550 4863 
L 1875 4863 
L 1875 4416 
L 1125 4416 
L 1125 -397 
L 1875 -397 
L 1875 -844 
L 550 -844 
L 550 4863 
z
" transform="scale(0.015625)"/>
       <path id="DejaVuSans-73" d="M 2834 3397 
L 2834 2853 
Q 2591 2978 2328 3040 
Q 2066 3103 1784 3103 
Q 1356 3103 1142 2972 
Q 928 2841 928 2578 
Q 928 2378 1081 2264 
Q 1234 2150 1697 2047 
L 1894 2003 
Q 2506 1872 2764 1633 
Q 3022 1394 3022 966 
Q 3022 478 2636 193 
Q 2250 -91 1575 -91 
Q 1294 -91 989 -36 
Q 684 19 347 128 
L 347 722 
Q 666 556 975 473 
Q 1284 391 1588 391 
Q 1994 391 2212 530 
Q 2431 669 2431 922 
Q 2431 1156 2273 1281 
Q 2116 1406 1581 1522 
L 1381 1569 
Q 847 1681 609 1914 
Q 372 2147 372 2553 
Q 372 3047 722 3315 
Q 1072 3584 1716 3584 
Q 2034 3584 2315 3537 
Q 2597 3491 2834 3397 
z
" transform="scale(0.015625)"/>
       <path id="DejaVuSans-5d" d="M 1947 4863 
L 1947 -844 
L 622 -844 
L 622 -397 
L 1369 -397 
L 1369 4416 
L 622 4416 
L 622 4863 
L 1947 4863 
z
" transform="scale(0.015625)"/>
      </defs>
      <use xlink:href="#DejaVuSans-5a"/>
      <use xlink:href="#DejaVuSans-65" x="68.505859"/>
      <use xlink:href="#DejaVuSans-69" x="130.029297"/>
      <use xlink:href="#DejaVuSans-74" x="157.8125"/>
      <use xlink:href="#DejaVuSans-20" x="197.021484"/>
      <use xlink:href="#DejaVuSans-5b" x="228.808594"/>
      <use xlink:href="#DejaVuSans-73" x="267.822266"/>
      <use xlink:href="#DejaVuSans-5d" x="319.921875"/>
     </g>
    </g>
   </g>
   <g id="matplotlib.axis_2">
    <g id="ytick_1">
     <g id="line2d_6">
      <defs>
       <path id="mced0b49ab8" d="M 0 0 
L -3.5 0 
" style="stroke: #000000; stroke-width: 0.8"/>
      </defs>
      <g>
       <use xlink:href="#mced0b49ab8" x="73.28" y="464.416923" style="stroke: #000000; stroke-width: 0.8"/>
      </g>
     </g>
     <g id="text_7">
      <!-- 0.25 -->
      <g transform="translate(35.108125 469.735829) scale(0.14 -0.14)">
       <defs>
        <path id="DejaVuSans-2e" d="M 684 794 
L 1344 794 
L 1344 0 
L 684 0 
L 684 794 
z
" transform="scale(0.015625)"/>
        <path id="DejaVuSans-35" d="M 691 4666 
L 3169 4666 
L 3169 4134 
L 1269 4134 
L 1269 2991 
Q 1406 3038 1543 3061 
Q 1681 3084 1819 3084 
Q 2600 3084 3056 2656 
Q 3513 2228 3513 1497 
Q 3513 744 3044 326 
Q 2575 -91 1722 -91 
Q 1428 -91 1123 -41 
Q 819 9 494 109 
L 494 744 
Q 775 591 1075 516 
Q 1375 441 1709 441 
Q 2250 441 2565 725 
Q 2881 1009 2881 1497 
Q 2881 1984 2565 2268 
Q 2250 2553 1709 2553 
Q 1456 2553 1204 2497 
Q 953 2441 691 2322 
L 691 4666 
z
" transform="scale(0.015625)"/>
       </defs>
       <use xlink:href="#DejaVuSans-30"/>
       <use xlink:href="#DejaVuSans-2e" x="63.623047"/>
       <use xlink:href="#DejaVuSans-32" x="95.410156"/>
       <use xlink:href="#DejaVuSans-35" x="159.033203"/>
      </g>
     </g>
    </g>
    <g id="ytick_2">
     <g id="line2d_7">
      <g>
       <use xlink:href="#mced0b49ab8" x="73.28" y="399.215202" style="stroke: #000000; stroke-width: 0.8"/>
      </g>
     </g>
     <g id="text_8">
      <!-- 0.50 -->
      <g transform="translate(35.108125 404.534108) scale(0.14 -0.14)">
       <use xlink:href="#DejaVuSans-30"/>
       <use xlink:href="#DejaVuSans-2e" x="63.623047"/>
       <use xlink:href="#DejaVuSans-35" x="95.410156"/>
       <use xlink:href="#DejaVuSans-30" x="159.033203"/>
      </g>
     </g>
    </g>
    <g id="ytick_3">
     <g id="line2d_8">
      <g>
       <use xlink:href="#mced0b49ab8" x="73.28" y="334.01348" style="stroke: #000000; stroke-width: 0.8"/>
      </g>
     </g>
     <g id="text_9">
      <!-- 0.75 -->
      <g transform="translate(35.108125 339.332387) scale(0.14 -0.14)">
       <defs>
        <path id="DejaVuSans-37" d="M 525 4666 
L 3525 4666 
L 3525 4397 
L 1831 0 
L 1172 0 
L 2766 4134 
L 525 4134 
L 525 4666 
z
" transform="scale(0.015625)"/>
       </defs>
       <use xlink:href="#DejaVuSans-30"/>
       <use xlink:href="#DejaVuSans-2e" x="63.623047"/>
       <use xlink:href="#DejaVuSans-37" x="95.410156"/>
       <use xlink:href="#DejaVuSans-35" x="159.033203"/>
      </g>
     </g>
    </g>
    <g id="ytick_4">
     <g id="line2d_9">
      <g>
       <use xlink:href="#mced0b49ab8" x="73.28" y="268.811759" style="stroke: #000000; stroke-width: 0.8"/>
      </g>
     </g>
     <g id="text_10">
      <!-- 1.00 -->
      <g transform="translate(35.108125 274.130665) scale(0.14 -0.14)">
       <use xlink:href="#DejaVuSans-31"/>
       <use xlink:href="#DejaVuSans-2e" x="63.623047"/>
       <use xlink:href="#DejaVuSans-30" x="95.410156"/>
       <use xlink:href="#DejaVuSans-30" x="159.033203"/>
      </g>
     </g>
    </g>
    <g id="ytick_5">
     <g id="line2d_10">
      <g>
       <use xlink:href="#mced0b49ab8" x="73.28" y="203.610038" style="stroke: #000000; stroke-width: 0.8"/>
      </g>
     </g>
     <g id="text_11">
      <!-- 1.25 -->
      <g transform="translate(35.108125 208.928944) scale(0.14 -0.14)">
       <use xlink:href="#DejaVuSans-31"/>
       <use xlink:href="#DejaVuSans-2e" x="63.623047"/>
       <use xlink:href="#DejaVuSans-32" x="95.410156"/>
       <use xlink:href="#DejaVuSans-35" x="159.033203"/>
      </g>
     </g>
    </g>
    <g id="ytick_6">
     <g id="line2d_11">
      <g>
       <use xlink:href="#mced0b49ab8" x="73.28" y="138.408316" style="stroke: #000000; stroke-width: 0.8"/>
      </g>
     </g>
     <g id="text_12">
      <!-- 1.50 -->
      <g transform="translate(35.108125 143.727223) scale(0.14 -0.14)">
       <use xlink:href="#DejaVuSans-31"/>
       <use xlink:href="#DejaVuSans-2e" x="63.623047"/>
       <use xlink:href="#DejaVuSans-35" x="95.410156"/>
       <use xlink:href="#DejaVuSans-30" x="159.033203"/>
      </g>
     </g>
    </g>
    <g id="ytick_7">
     <g id="line2d_12">
      <g>
       <use xlink:href="#mced0b49ab8" x="73.28" y="73.206595" style="stroke: #000000; stroke-width: 0.8"/>
      </g>
     </g>
     <g id="text_13">
      <!-- 1.75 -->
      <g transform="translate(35.108125 78.525501) scale(0.14 -0.14)">
       <use xlink:href="#DejaVuSans-31"/>
       <use xlink:href="#DejaVuSans-2e" x="63.623047"/>
       <use xlink:href="#DejaVuSans-37" x="95.410156"/>
       <use xlink:href="#DejaVuSans-35" x="159.033203"/>
      </g>
     </g>
    </g>
    <g id="text_14">
     <!-- Feinstaubkonzentration &lt;2,5µm und 1-2.5µm [µg/m^3] -->
     <g transform="translate(26.94875 557.755625) rotate(-90) scale(0.2 -0.2)">
      <defs>
       <path id="DejaVuSans-46" d="M 628 4666 
L 3309 4666 
L 3309 4134 
L 1259 4134 
L 1259 2759 
L 3109 2759 
L 3109 2228 
L 1259 2228 
L 1259 0 
L 628 0 
L 628 4666 
z
" transform="scale(0.015625)"/>
       <path id="DejaVuSans-6e" d="M 3513 2113 
L 3513 0 
L 2938 0 
L 2938 2094 
Q 2938 2591 2744 2837 
Q 2550 3084 2163 3084 
Q 1697 3084 1428 2787 
Q 1159 2491 1159 1978 
L 1159 0 
L 581 0 
L 581 3500 
L 1159 3500 
L 1159 2956 
Q 1366 3272 1645 3428 
Q 1925 3584 2291 3584 
Q 2894 3584 3203 3211 
Q 3513 2838 3513 2113 
z
" transform="scale(0.015625)"/>
       <path id="DejaVuSans-61" d="M 2194 1759 
Q 1497 1759 1228 1600 
Q 959 1441 959 1056 
Q 959 750 1161 570 
Q 1363 391 1709 391 
Q 2188 391 2477 730 
Q 2766 1069 2766 1631 
L 2766 1759 
L 2194 1759 
z
M 3341 1997 
L 3341 0 
L 2766 0 
L 2766 531 
Q 2569 213 2275 61 
Q 1981 -91 1556 -91 
Q 1019 -91 701 211 
Q 384 513 384 1019 
Q 384 1609 779 1909 
Q 1175 2209 1959 2209 
L 2766 2209 
L 2766 2266 
Q 2766 2663 2505 2880 
Q 2244 3097 1772 3097 
Q 1472 3097 1187 3025 
Q 903 2953 641 2809 
L 641 3341 
Q 956 3463 1253 3523 
Q 1550 3584 1831 3584 
Q 2591 3584 2966 3190 
Q 3341 2797 3341 1997 
z
" transform="scale(0.015625)"/>
       <path id="DejaVuSans-75" d="M 544 1381 
L 544 3500 
L 1119 3500 
L 1119 1403 
Q 1119 906 1312 657 
Q 1506 409 1894 409 
Q 2359 409 2629 706 
Q 2900 1003 2900 1516 
L 2900 3500 
L 3475 3500 
L 3475 0 
L 2900 0 
L 2900 538 
Q 2691 219 2414 64 
Q 2138 -91 1772 -91 
Q 1169 -91 856 284 
Q 544 659 544 1381 
z
M 1991 3584 
L 1991 3584 
z
" transform="scale(0.015625)"/>
       <path id="DejaVuSans-62" d="M 3116 1747 
Q 3116 2381 2855 2742 
Q 2594 3103 2138 3103 
Q 1681 3103 1420 2742 
Q 1159 2381 1159 1747 
Q 1159 1113 1420 752 
Q 1681 391 2138 391 
Q 2594 391 2855 752 
Q 3116 1113 3116 1747 
z
M 1159 2969 
Q 1341 3281 1617 3432 
Q 1894 3584 2278 3584 
Q 2916 3584 3314 3078 
Q 3713 2572 3713 1747 
Q 3713 922 3314 415 
Q 2916 -91 2278 -91 
Q 1894 -91 1617 61 
Q 1341 213 1159 525 
L 1159 0 
L 581 0 
L 581 4863 
L 1159 4863 
L 1159 2969 
z
" transform="scale(0.015625)"/>
       <path id="DejaVuSans-6b" d="M 581 4863 
L 1159 4863 
L 1159 1991 
L 2875 3500 
L 3609 3500 
L 1753 1863 
L 3688 0 
L 2938 0 
L 1159 1709 
L 1159 0 
L 581 0 
L 581 4863 
z
" transform="scale(0.015625)"/>
       <path id="DejaVuSans-6f" d="M 1959 3097 
Q 1497 3097 1228 2736 
Q 959 2375 959 1747 
Q 959 1119 1226 758 
Q 1494 397 1959 397 
Q 2419 397 2687 759 
Q 2956 1122 2956 1747 
Q 2956 2369 2687 2733 
Q 2419 3097 1959 3097 
z
M 1959 3584 
Q 2709 3584 3137 3096 
Q 3566 2609 3566 1747 
Q 3566 888 3137 398 
Q 2709 -91 1959 -91 
Q 1206 -91 779 398 
Q 353 888 353 1747 
Q 353 2609 779 3096 
Q 1206 3584 1959 3584 
z
" transform="scale(0.015625)"/>
       <path id="DejaVuSans-7a" d="M 353 3500 
L 3084 3500 
L 3084 2975 
L 922 459 
L 3084 459 
L 3084 0 
L 275 0 
L 275 525 
L 2438 3041 
L 353 3041 
L 353 3500 
z
" transform="scale(0.015625)"/>
       <path id="DejaVuSans-72" d="M 2631 2963 
Q 2534 3019 2420 3045 
Q 2306 3072 2169 3072 
Q 1681 3072 1420 2755 
Q 1159 2438 1159 1844 
L 1159 0 
L 581 0 
L 581 3500 
L 1159 3500 
L 1159 2956 
Q 1341 3275 1631 3429 
Q 1922 3584 2338 3584 
Q 2397 3584 2469 3576 
Q 2541 3569 2628 3553 
L 2631 2963 
z
" transform="scale(0.015625)"/>
       <path id="DejaVuSans-3c" d="M 4684 3150 
L 1459 2003 
L 4684 863 
L 4684 294 
L 678 1747 
L 678 2266 
L 4684 3719 
L 4684 3150 
z
" transform="scale(0.015625)"/>
       <path id="DejaVuSans-2c" d="M 750 794 
L 1409 794 
L 1409 256 
L 897 -744 
L 494 -744 
L 750 256 
L 750 794 
z
" transform="scale(0.015625)"/>
       <path id="DejaVuSans-b5" d="M 544 -1331 
L 544 3500 
L 1119 3500 
L 1119 1325 
Q 1119 872 1334 640 
Q 1550 409 1972 409 
Q 2434 409 2667 671 
Q 2900 934 2900 1459 
L 2900 3500 
L 3475 3500 
L 3475 806 
Q 3475 619 3529 530 
Q 3584 441 3700 441 
Q 3728 441 3778 458 
Q 3828 475 3916 513 
L 3916 50 
Q 3788 -22 3673 -56 
Q 3559 -91 3450 -91 
Q 3234 -91 3106 31 
Q 2978 153 2931 403 
Q 2775 156 2548 32 
Q 2322 -91 2016 -91 
Q 1697 -91 1473 31 
Q 1250 153 1119 397 
L 1119 -1331 
L 544 -1331 
z
" transform="scale(0.015625)"/>
       <path id="DejaVuSans-6d" d="M 3328 2828 
Q 3544 3216 3844 3400 
Q 4144 3584 4550 3584 
Q 5097 3584 5394 3201 
Q 5691 2819 5691 2113 
L 5691 0 
L 5113 0 
L 5113 2094 
Q 5113 2597 4934 2840 
Q 4756 3084 4391 3084 
Q 3944 3084 3684 2787 
Q 3425 2491 3425 1978 
L 3425 0 
L 2847 0 
L 2847 2094 
Q 2847 2600 2669 2842 
Q 2491 3084 2119 3084 
Q 1678 3084 1418 2786 
Q 1159 2488 1159 1978 
L 1159 0 
L 581 0 
L 581 3500 
L 1159 3500 
L 1159 2956 
Q 1356 3278 1631 3431 
Q 1906 3584 2284 3584 
Q 2666 3584 2933 3390 
Q 3200 3197 3328 2828 
z
" transform="scale(0.015625)"/>
       <path id="DejaVuSans-64" d="M 2906 2969 
L 2906 4863 
L 3481 4863 
L 3481 0 
L 2906 0 
L 2906 525 
Q 2725 213 2448 61 
Q 2172 -91 1784 -91 
Q 1150 -91 751 415 
Q 353 922 353 1747 
Q 353 2572 751 3078 
Q 1150 3584 1784 3584 
Q 2172 3584 2448 3432 
Q 2725 3281 2906 2969 
z
M 947 1747 
Q 947 1113 1208 752 
Q 1469 391 1925 391 
Q 2381 391 2643 752 
Q 2906 1113 2906 1747 
Q 2906 2381 2643 2742 
Q 2381 3103 1925 3103 
Q 1469 3103 1208 2742 
Q 947 2381 947 1747 
z
" transform="scale(0.015625)"/>
       <path id="DejaVuSans-2d" d="M 313 2009 
L 1997 2009 
L 1997 1497 
L 313 1497 
L 313 2009 
z
" transform="scale(0.015625)"/>
       <path id="DejaVuSans-67" d="M 2906 1791 
Q 2906 2416 2648 2759 
Q 2391 3103 1925 3103 
Q 1463 3103 1205 2759 
Q 947 2416 947 1791 
Q 947 1169 1205 825 
Q 1463 481 1925 481 
Q 2391 481 2648 825 
Q 2906 1169 2906 1791 
z
M 3481 434 
Q 3481 -459 3084 -895 
Q 2688 -1331 1869 -1331 
Q 1566 -1331 1297 -1286 
Q 1028 -1241 775 -1147 
L 775 -588 
Q 1028 -725 1275 -790 
Q 1522 -856 1778 -856 
Q 2344 -856 2625 -561 
Q 2906 -266 2906 331 
L 2906 616 
Q 2728 306 2450 153 
Q 2172 0 1784 0 
Q 1141 0 747 490 
Q 353 981 353 1791 
Q 353 2603 747 3093 
Q 1141 3584 1784 3584 
Q 2172 3584 2450 3431 
Q 2728 3278 2906 2969 
L 2906 3500 
L 3481 3500 
L 3481 434 
z
" transform="scale(0.015625)"/>
       <path id="DejaVuSans-2f" d="M 1625 4666 
L 2156 4666 
L 531 -594 
L 0 -594 
L 1625 4666 
z
" transform="scale(0.015625)"/>
       <path id="DejaVuSans-5e" d="M 2988 4666 
L 4684 2925 
L 4056 2925 
L 2681 4159 
L 1306 2925 
L 678 2925 
L 2375 4666 
L 2988 4666 
z
" transform="scale(0.015625)"/>
      </defs>
      <use xlink:href="#DejaVuSans-46"/>
      <use xlink:href="#DejaVuSans-65" x="52.019531"/>
      <use xlink:href="#DejaVuSans-69" x="113.542969"/>
      <use xlink:href="#DejaVuSans-6e" x="141.326172"/>
      <use xlink:href="#DejaVuSans-73" x="204.705078"/>
      <use xlink:href="#DejaVuSans-74" x="256.804688"/>
      <use xlink:href="#DejaVuSans-61" x="296.013672"/>
      <use xlink:href="#DejaVuSans-75" x="357.292969"/>
      <use xlink:href="#DejaVuSans-62" x="420.671875"/>
      <use xlink:href="#DejaVuSans-6b" x="484.148438"/>
      <use xlink:href="#DejaVuSans-6f" x="538.433594"/>
      <use xlink:href="#DejaVuSans-6e" x="599.615234"/>
      <use xlink:href="#DejaVuSans-7a" x="662.994141"/>
      <use xlink:href="#DejaVuSans-65" x="715.484375"/>
      <use xlink:href="#DejaVuSans-6e" x="777.007812"/>
      <use xlink:href="#DejaVuSans-74" x="840.386719"/>
      <use xlink:href="#DejaVuSans-72" x="879.595703"/>
      <use xlink:href="#DejaVuSans-61" x="920.708984"/>
      <use xlink:href="#DejaVuSans-74" x="981.988281"/>
      <use xlink:href="#DejaVuSans-69" x="1021.197266"/>
      <use xlink:href="#DejaVuSans-6f" x="1048.980469"/>
      <use xlink:href="#DejaVuSans-6e" x="1110.162109"/>
      <use xlink:href="#DejaVuSans-20" x="1173.541016"/>
      <use xlink:href="#DejaVuSans-3c" x="1205.328125"/>
      <use xlink:href="#DejaVuSans-32" x="1289.117188"/>
      <use xlink:href="#DejaVuSans-2c" x="1352.740234"/>
      <use xlink:href="#DejaVuSans-35" x="1384.527344"/>
      <use xlink:href="#DejaVuSans-b5" x="1448.150391"/>
      <use xlink:href="#DejaVuSans-6d" x="1511.773438"/>
      <use xlink:href="#DejaVuSans-20" x="1609.185547"/>
      <use xlink:href="#DejaVuSans-75" x="1640.972656"/>
      <use xlink:href="#DejaVuSans-6e" x="1704.351562"/>
      <use xlink:href="#DejaVuSans-64" x="1767.730469"/>
      <use xlink:href="#DejaVuSans-20" x="1831.207031"/>
      <use xlink:href="#DejaVuSans-31" x="1862.994141"/>
      <use xlink:href="#DejaVuSans-2d" x="1926.617188"/>
      <use xlink:href="#DejaVuSans-32" x="1962.701172"/>
      <use xlink:href="#DejaVuSans-2e" x="2026.324219"/>
      <use xlink:href="#DejaVuSans-35" x="2058.111328"/>
      <use xlink:href="#DejaVuSans-b5" x="2121.734375"/>
      <use xlink:href="#DejaVuSans-6d" x="2185.357422"/>
      <use xlink:href="#DejaVuSans-20" x="2282.769531"/>
      <use xlink:href="#DejaVuSans-5b" x="2314.556641"/>
      <use xlink:href="#DejaVuSans-b5" x="2353.570312"/>
      <use xlink:href="#DejaVuSans-67" x="2417.193359"/>
      <use xlink:href="#DejaVuSans-2f" x="2480.669922"/>
      <use xlink:href="#DejaVuSans-6d" x="2514.361328"/>
      <use xlink:href="#DejaVuSans-5e" x="2611.773438"/>
      <use xlink:href="#DejaVuSans-33" x="2695.5625"/>
      <use xlink:href="#DejaVuSans-5d" x="2759.185547"/>
     </g>
    </g>
   </g>
   <g id="line2d_13">
    <path d="M 108.730909 480.065336 
L 119.665787 480.065336 
L 121.488267 477.457267 
L 128.776474 477.457267 
L 130.598954 480.065336 
L 134.243913 480.065336 
L 137.887162 485.281474 
L 139.709641 472.24113 
L 143.356312 456.592717 
L 146.99956 451.376579 
L 148.82204 453.984648 
L 150.644519 453.984648 
L 154.289479 459.200785 
L 156.111958 459.200785 
L 157.934438 461.808854 
L 159.758629 461.808854 
L 163.403588 467.024992 
L 165.226068 467.024992 
L 174.338467 480.065336 
L 176.160946 480.065336 
L 177.983426 482.673405 
L 179.805906 482.673405 
L 183.450865 487.889543 
L 185.273345 485.281474 
L 199.853182 485.281474 
L 201.675662 482.673405 
L 203.498142 482.673405 
L 205.320621 485.281474 
L 207.143101 485.281474 
L 208.965581 482.673405 
L 214.434731 482.673405 
L 216.257211 485.281474 
L 221.72465 485.281474 
L 223.547129 487.889543 
L 236.30791 487.889543 
L 238.128678 485.281474 
L 247.244499 485.281474 
L 249.066979 487.889543 
L 250.887747 487.889543 
L 252.710227 490.497612 
L 265.469296 490.497612 
L 267.293487 487.889543 
L 269.115967 487.889543 
L 270.938446 490.497612 
L 281.875036 490.497612 
L 283.697515 493.10568 
L 287.344186 493.10568 
L 289.164954 495.713749 
L 294.632393 495.713749 
L 296.454873 493.10568 
L 298.277353 493.10568 
L 300.099832 490.497612 
L 301.924023 490.497612 
L 303.748214 487.889543 
L 307.393174 487.889543 
L 309.215653 485.281474 
L 320.152243 485.281474 
L 321.974722 482.673405 
L 334.730369 482.673405 
L 336.552849 485.281474 
L 340.197808 485.281474 
L 342.021999 487.889543 
L 345.666958 487.889543 
L 347.489438 490.497612 
L 349.311918 490.497612 
L 352.958588 495.713749 
L 354.781068 495.713749 
L 356.603548 498.321818 
L 369.364328 498.321818 
L 371.186808 495.713749 
L 387.590836 495.713749 
L 389.413316 493.10568 
L 393.058275 493.10568 
L 394.880755 490.497612 
L 398.525714 490.497612 
L 400.348194 487.889543 
L 403.993153 487.889543 
L 405.815633 485.281474 
L 420.397182 485.281474 
L 422.219661 482.673405 
L 424.042141 482.673405 
L 425.864621 480.065336 
L 434.975308 480.065336 
L 436.797788 482.673405 
L 438.620267 482.673405 
L 440.442747 485.281474 
L 442.263515 485.281474 
L 444.087706 487.889543 
L 445.910186 487.889543 
L 447.730955 490.497612 
L 455.020873 490.497612 
L 456.843353 493.10568 
L 489.656544 493.10568 
L 491.479023 490.497612 
L 493.301503 490.497612 
L 495.125694 487.889543 
L 496.949885 487.889543 
L 498.772365 485.281474 
L 504.241515 485.281474 
L 506.062283 482.673405 
L 520.642121 482.673405 
L 522.4646 485.281474 
L 529.759653 485.281474 
L 531.582133 487.889543 
L 540.694531 487.889543 
L 542.517011 485.281474 
L 544.33949 487.889543 
L 547.98445 487.889543 
L 549.806929 490.497612 
L 557.096848 490.497612 
L 558.921039 493.10568 
L 571.678397 493.10568 
L 573.500877 495.713749 
L 595.374055 495.713749 
L 597.196535 498.321818 
L 600.841494 498.321818 
L 602.662263 495.713749 
L 604.484743 495.713749 
L 608.129702 490.497612 
L 609.952182 490.497612 
L 613.598852 485.281474 
L 617.245523 485.281474 
L 619.068003 482.673405 
L 620.890482 485.281474 
L 626.35621 485.281474 
L 628.17869 487.889543 
L 630.001169 487.889543 
L 631.823649 490.497612 
L 633.64784 490.497612 
L 635.47032 487.889543 
L 650.051869 487.889543 
L 651.874348 485.281474 
L 657.343499 485.281474 
L 659.165978 487.889543 
L 662.812649 487.889543 
L 664.635128 490.497612 
L 668.281799 490.497612 
L 670.10599 493.10568 
L 675.571718 493.10568 
L 677.394198 495.713749 
L 681.039157 495.713749 
L 682.861637 498.321818 
L 695.620706 498.321818 
L 697.444897 495.713749 
L 699.269088 495.713749 
L 701.091567 493.10568 
L 702.914047 493.10568 
L 704.738238 490.497612 
L 706.560718 490.497612 
L 708.383197 487.889543 
L 710.205677 487.889543 
L 712.029868 485.281474 
L 713.852348 485.281474 
L 715.674827 482.673405 
L 730.256376 482.673405 
L 732.080567 480.065336 
L 733.903047 480.065336 
L 735.725526 482.673405 
L 739.370486 482.673405 
L 741.192965 480.065336 
L 744.836213 480.065336 
L 746.658693 477.457267 
L 748.481173 477.457267 
L 750.301941 474.849198 
L 764.880068 474.849198 
L 766.702547 477.457267 
L 770.349218 477.457267 
L 772.171698 480.065336 
L 773.994177 480.065336 
L 775.816657 482.673405 
L 777.639137 482.673405 
L 779.461616 485.281474 
L 781.284096 485.281474 
L 783.106576 487.889543 
L 784.930767 487.889543 
L 786.754957 490.497612 
L 817.749091 490.497612 
L 817.749091 490.497612 
" clip-path="url(#pc074b7630e)" style="fill: none; stroke: #1f77b4; stroke-width: 1.5; stroke-linecap: square"/>
   </g>
   <g id="line2d_14">
    <path d="M 108.730909 237.514933 
L 110.5551 237.514933 
L 112.37758 240.123002 
L 114.200059 240.123002 
L 116.020828 237.514933 
L 117.843308 237.514933 
L 119.665787 232.298795 
L 123.310747 216.650382 
L 125.133226 214.042313 
L 126.955706 214.042313 
L 128.776474 216.650382 
L 132.421434 227.082657 
L 134.243913 234.906864 
L 136.064682 245.339139 
L 137.887162 253.163346 
L 139.709641 172.313211 
L 141.532121 130.58411 
L 143.356312 83.63887 
L 145.17708 62.77432 
L 146.99956 57.558182 
L 148.82204 60.166251 
L 150.644519 67.990457 
L 152.466999 78.422733 
L 154.289479 96.679215 
L 156.111958 104.503421 
L 157.934438 109.719559 
L 161.581109 125.367972 
L 165.226068 151.448661 
L 170.693507 198.3939 
L 172.515987 211.434244 
L 176.160946 227.082657 
L 179.805906 247.947208 
L 181.628385 260.987552 
L 183.450865 266.20369 
L 185.273345 263.595621 
L 187.095824 263.595621 
L 188.918304 260.987552 
L 190.742495 260.987552 
L 194.387454 255.771415 
L 196.208223 250.555277 
L 199.853182 250.555277 
L 201.675662 247.947208 
L 203.498142 247.947208 
L 207.143101 253.163346 
L 210.78806 247.947208 
L 212.61054 247.947208 
L 219.90217 258.379484 
L 227.192089 279.244034 
L 229.014568 281.852103 
L 230.838759 281.852103 
L 232.661239 276.635966 
L 236.30791 271.419828 
L 238.128678 263.595621 
L 239.951158 263.595621 
L 241.775349 260.987552 
L 243.59954 260.987552 
L 245.422019 263.595621 
L 247.244499 271.419828 
L 250.887747 281.852103 
L 252.710227 289.67631 
L 261.824337 302.716654 
L 263.648527 300.108585 
L 265.469296 300.108585 
L 267.293487 292.284379 
L 269.115967 292.284379 
L 270.938446 294.892448 
L 272.760926 294.892448 
L 283.697515 310.540861 
L 287.344186 320.973136 
L 289.164954 323.581205 
L 290.987434 328.797343 
L 292.811625 328.797343 
L 294.632393 326.189274 
L 296.454873 315.756998 
L 300.099832 300.108585 
L 303.748214 289.67631 
L 305.570694 281.852103 
L 307.393174 279.244034 
L 309.215653 274.027897 
L 311.038133 274.027897 
L 312.860613 271.419828 
L 314.683092 274.027897 
L 316.505572 271.419828 
L 318.328052 274.027897 
L 320.152243 268.811759 
L 321.974722 255.771415 
L 325.619682 250.555277 
L 327.44045 253.163346 
L 329.26293 253.163346 
L 332.907889 258.379484 
L 334.730369 263.595621 
L 336.552849 266.20369 
L 338.375328 271.419828 
L 340.197808 279.244034 
L 342.021999 284.460172 
L 343.844479 287.068241 
L 345.666958 292.284379 
L 347.489438 300.108585 
L 349.311918 305.324723 
L 351.134397 320.973136 
L 354.781068 336.621549 
L 356.603548 341.837687 
L 358.427739 349.661893 
L 360.250218 352.269962 
L 363.896889 347.053825 
L 365.717657 347.053825 
L 367.540137 341.837687 
L 371.186808 336.621549 
L 376.655958 336.621549 
L 378.478438 339.229618 
L 380.302629 336.621549 
L 383.945877 336.621549 
L 385.768356 331.405412 
L 387.590836 328.797343 
L 389.413316 320.973136 
L 391.235796 318.365067 
L 393.058275 313.14893 
L 394.880755 305.324723 
L 398.525714 300.108585 
L 402.170674 284.460172 
L 403.993153 281.852103 
L 405.815633 274.027897 
L 409.460592 263.595621 
L 411.283072 260.987552 
L 416.752222 268.811759 
L 418.574702 268.811759 
L 420.397182 260.987552 
L 422.219661 255.771415 
L 424.042141 247.947208 
L 427.6871 237.514933 
L 433.15454 237.514933 
L 434.975308 245.339139 
L 436.797788 250.555277 
L 438.620267 260.987552 
L 440.442747 266.20369 
L 447.730955 297.500516 
L 449.553434 297.500516 
L 455.020873 305.324723 
L 458.667544 315.756998 
L 460.490024 318.365067 
L 465.957463 318.365067 
L 467.779942 315.756998 
L 469.604133 315.756998 
L 471.426613 318.365067 
L 473.249093 313.14893 
L 480.539011 313.14893 
L 482.361491 315.756998 
L 486.009873 315.756998 
L 487.832353 318.365067 
L 489.656544 307.932792 
L 493.301503 297.500516 
L 498.772365 274.027897 
L 502.417324 263.595621 
L 506.062283 258.379484 
L 507.884763 258.379484 
L 513.352202 250.555277 
L 515.174682 253.163346 
L 516.998873 253.163346 
L 520.642121 263.595621 
L 526.111271 271.419828 
L 529.759653 281.852103 
L 531.582133 284.460172 
L 533.402901 289.67631 
L 537.04786 284.460172 
L 540.694531 284.460172 
L 542.517011 281.852103 
L 544.33949 284.460172 
L 546.16197 294.892448 
L 547.98445 297.500516 
L 549.806929 302.716654 
L 551.629409 305.324723 
L 553.451889 310.540861 
L 555.27608 313.14893 
L 557.096848 313.14893 
L 558.921039 318.365067 
L 560.743519 320.973136 
L 562.565999 320.973136 
L 568.031726 328.797343 
L 571.678397 328.797343 
L 577.145836 336.621549 
L 578.968316 336.621549 
L 580.790795 339.229618 
L 589.906616 339.229618 
L 591.729096 341.837687 
L 593.551576 339.229618 
L 599.017304 347.053825 
L 602.662263 341.837687 
L 604.484743 336.621549 
L 606.307222 320.973136 
L 609.952182 300.108585 
L 611.776373 292.284379 
L 613.598852 281.852103 
L 615.421332 274.027897 
L 617.245523 268.811759 
L 619.068003 266.20369 
L 622.712962 271.419828 
L 624.535442 276.635966 
L 626.35621 279.244034 
L 628.17869 284.460172 
L 630.001169 294.892448 
L 631.823649 300.108585 
L 635.47032 294.892448 
L 637.291088 289.67631 
L 642.760239 289.67631 
L 644.584429 284.460172 
L 646.406909 281.852103 
L 648.229389 281.852103 
L 650.051869 279.244034 
L 651.874348 279.244034 
L 653.696828 276.635966 
L 655.519308 276.635966 
L 660.990169 284.460172 
L 670.10599 310.540861 
L 673.750949 315.756998 
L 682.861637 341.837687 
L 684.684116 349.661893 
L 688.329076 354.878031 
L 690.151555 354.878031 
L 693.796515 349.661893 
L 695.620706 344.445756 
L 702.914047 313.14893 
L 704.738238 307.932792 
L 708.383197 287.068241 
L 710.205677 281.852103 
L 712.029868 279.244034 
L 713.852348 268.811759 
L 715.674827 266.20369 
L 717.497307 260.987552 
L 721.143978 260.987552 
L 722.966457 258.379484 
L 728.433896 258.379484 
L 732.080567 253.163346 
L 733.903047 253.163346 
L 737.548006 258.379484 
L 739.370486 255.771415 
L 741.192965 250.555277 
L 746.658693 242.73107 
L 748.481173 232.298795 
L 755.771092 221.86652 
L 759.41434 227.082657 
L 763.057588 227.082657 
L 764.880068 232.298795 
L 768.526738 237.514933 
L 770.349218 247.947208 
L 772.171698 255.771415 
L 773.994177 260.987552 
L 775.816657 268.811759 
L 779.461616 279.244034 
L 786.754957 310.540861 
L 790.401628 315.756998 
L 792.224108 313.14893 
L 797.694969 313.14893 
L 799.517449 310.540861 
L 803.16412 310.540861 
L 806.81079 315.756998 
L 814.104132 315.756998 
L 817.749091 310.540861 
L 817.749091 310.540861 
" clip-path="url(#pc074b7630e)" style="fill: none; stroke: #ff7f0e; stroke-width: 1.5; stroke-linecap: square"/>
   </g>
   <g id="patch_3">
    <path d="M 73.28 520.36 
L 73.28 35.52 
" style="fill: none; stroke: #000000; stroke-width: 0.8; stroke-linejoin: miter; stroke-linecap: square"/>
   </g>
   <g id="patch_4">
    <path d="M 853.2 520.36 
L 853.2 35.52 
" style="fill: none; stroke: #000000; stroke-width: 0.8; stroke-linejoin: miter; stroke-linecap: square"/>
   </g>
   <g id="patch_5">
    <path d="M 73.28 520.36 
L 853.2 520.36 
" style="fill: none; stroke: #000000; stroke-width: 0.8; stroke-linejoin: miter; stroke-linecap: square"/>
   </g>
   <g id="patch_6">
    <path d="M 73.28 35.52 
L 853.2 35.52 
" style="fill: none; stroke: #000000; stroke-width: 0.8; stroke-linejoin: miter; stroke-linecap: square"/>
   </g>
   <g id="text_15">
    <!-- Feinstaubkonzentration PM2.5 im Innenraum -->
    <g transform="translate(193.961875 29.52) scale(0.24 -0.24)">
     <defs>
      <path id="DejaVuSans-50" d="M 1259 4147 
L 1259 2394 
L 2053 2394 
Q 2494 2394 2734 2622 
Q 2975 2850 2975 3272 
Q 2975 3691 2734 3919 
Q 2494 4147 2053 4147 
L 1259 4147 
z
M 628 4666 
L 2053 4666 
Q 2838 4666 3239 4311 
Q 3641 3956 3641 3272 
Q 3641 2581 3239 2228 
Q 2838 1875 2053 1875 
L 1259 1875 
L 1259 0 
L 628 0 
L 628 4666 
z
" transform="scale(0.015625)"/>
      <path id="DejaVuSans-4d" d="M 628 4666 
L 1569 4666 
L 2759 1491 
L 3956 4666 
L 4897 4666 
L 4897 0 
L 4281 0 
L 4281 4097 
L 3078 897 
L 2444 897 
L 1241 4097 
L 1241 0 
L 628 0 
L 628 4666 
z
" transform="scale(0.015625)"/>
      <path id="DejaVuSans-49" d="M 628 4666 
L 1259 4666 
L 1259 0 
L 628 0 
L 628 4666 
z
" transform="scale(0.015625)"/>
     </defs>
     <use xlink:href="#DejaVuSans-46"/>
     <use xlink:href="#DejaVuSans-65" x="52.019531"/>
     <use xlink:href="#DejaVuSans-69" x="113.542969"/>
     <use xlink:href="#DejaVuSans-6e" x="141.326172"/>
     <use xlink:href="#DejaVuSans-73" x="204.705078"/>
     <use xlink:href="#DejaVuSans-74" x="256.804688"/>
     <use xlink:href="#DejaVuSans-61" x="296.013672"/>
     <use xlink:href="#DejaVuSans-75" x="357.292969"/>
     <use xlink:href="#DejaVuSans-62" x="420.671875"/>
     <use xlink:href="#DejaVuSans-6b" x="484.148438"/>
     <use xlink:href="#DejaVuSans-6f" x="538.433594"/>
     <use xlink:href="#DejaVuSans-6e" x="599.615234"/>
     <use xlink:href="#DejaVuSans-7a" x="662.994141"/>
     <use xlink:href="#DejaVuSans-65" x="715.484375"/>
     <use xlink:href="#DejaVuSans-6e" x="777.007812"/>
     <use xlink:href="#DejaVuSans-74" x="840.386719"/>
     <use xlink:href="#DejaVuSans-72" x="879.595703"/>
     <use xlink:href="#DejaVuSans-61" x="920.708984"/>
     <use xlink:href="#DejaVuSans-74" x="981.988281"/>
     <use xlink:href="#DejaVuSans-69" x="1021.197266"/>
     <use xlink:href="#DejaVuSans-6f" x="1048.980469"/>
     <use xlink:href="#DejaVuSans-6e" x="1110.162109"/>
     <use xlink:href="#DejaVuSans-20" x="1173.541016"/>
     <use xlink:href="#DejaVuSans-50" x="1205.328125"/>
     <use xlink:href="#DejaVuSans-4d" x="1265.630859"/>
     <use xlink:href="#DejaVuSans-32" x="1351.910156"/>
     <use xlink:href="#DejaVuSans-2e" x="1415.533203"/>
     <use xlink:href="#DejaVuSans-35" x="1447.320312"/>
     <use xlink:href="#DejaVuSans-20" x="1510.943359"/>
     <use xlink:href="#DejaVuSans-69" x="1542.730469"/>
     <use xlink:href="#DejaVuSans-6d" x="1570.513672"/>
     <use xlink:href="#DejaVuSans-20" x="1667.925781"/>
     <use xlink:href="#DejaVuSans-49" x="1699.712891"/>
     <use xlink:href="#DejaVuSans-6e" x="1729.205078"/>
     <use xlink:href="#DejaVuSans-6e" x="1792.583984"/>
     <use xlink:href="#DejaVuSans-65" x="1855.962891"/>
     <use xlink:href="#DejaVuSans-6e" x="1917.486328"/>
     <use xlink:href="#DejaVuSans-72" x="1980.865234"/>
     <use xlink:href="#DejaVuSans-61" x="2021.978516"/>
     <use xlink:href="#DejaVuSans-75" x="2083.257812"/>
     <use xlink:href="#DejaVuSans-6d" x="2146.636719"/>
    </g>
   </g>
   <g id="legend_1">
    <g id="patch_7">
     <path d="M 655.05625 110.2325 
L 839.2 110.2325 
Q 843.2 110.2325 843.2 106.2325 
L 843.2 49.52 
Q 843.2 45.52 839.2 45.52 
L 655.05625 45.52 
Q 651.05625 45.52 651.05625 49.52 
L 651.05625 106.2325 
Q 651.05625 110.2325 655.05625 110.2325 
z
" style="fill: #ffffff; opacity: 0.8; stroke: #cccccc; stroke-linejoin: miter"/>
    </g>
    <g id="line2d_15">
     <path d="M 659.05625 61.716875 
L 679.05625 61.716875 
L 699.05625 61.716875 
" style="fill: none; stroke: #1f77b4; stroke-width: 1.5; stroke-linecap: square"/>
    </g>
    <g id="text_16">
     <!-- Bucket1-2,5 -->
     <g transform="translate(715.05625 68.716875) scale(0.2 -0.2)">
      <defs>
       <path id="DejaVuSans-42" d="M 1259 2228 
L 1259 519 
L 2272 519 
Q 2781 519 3026 730 
Q 3272 941 3272 1375 
Q 3272 1813 3026 2020 
Q 2781 2228 2272 2228 
L 1259 2228 
z
M 1259 4147 
L 1259 2741 
L 2194 2741 
Q 2656 2741 2882 2914 
Q 3109 3088 3109 3444 
Q 3109 3797 2882 3972 
Q 2656 4147 2194 4147 
L 1259 4147 
z
M 628 4666 
L 2241 4666 
Q 2963 4666 3353 4366 
Q 3744 4066 3744 3513 
Q 3744 3084 3544 2831 
Q 3344 2578 2956 2516 
Q 3422 2416 3680 2098 
Q 3938 1781 3938 1306 
Q 3938 681 3513 340 
Q 3088 0 2303 0 
L 628 0 
L 628 4666 
z
" transform="scale(0.015625)"/>
       <path id="DejaVuSans-63" d="M 3122 3366 
L 3122 2828 
Q 2878 2963 2633 3030 
Q 2388 3097 2138 3097 
Q 1578 3097 1268 2742 
Q 959 2388 959 1747 
Q 959 1106 1268 751 
Q 1578 397 2138 397 
Q 2388 397 2633 464 
Q 2878 531 3122 666 
L 3122 134 
Q 2881 22 2623 -34 
Q 2366 -91 2075 -91 
Q 1284 -91 818 406 
Q 353 903 353 1747 
Q 353 2603 823 3093 
Q 1294 3584 2113 3584 
Q 2378 3584 2631 3529 
Q 2884 3475 3122 3366 
z
" transform="scale(0.015625)"/>
      </defs>
      <use xlink:href="#DejaVuSans-42"/>
      <use xlink:href="#DejaVuSans-75" x="68.603516"/>
      <use xlink:href="#DejaVuSans-63" x="131.982422"/>
      <use xlink:href="#DejaVuSans-6b" x="186.962891"/>
      <use xlink:href="#DejaVuSans-65" x="241.248047"/>
      <use xlink:href="#DejaVuSans-74" x="302.771484"/>
      <use xlink:href="#DejaVuSans-31" x="341.980469"/>
      <use xlink:href="#DejaVuSans-2d" x="405.603516"/>
      <use xlink:href="#DejaVuSans-32" x="441.6875"/>
      <use xlink:href="#DejaVuSans-2c" x="505.310547"/>
      <use xlink:href="#DejaVuSans-35" x="537.097656"/>
     </g>
    </g>
    <g id="line2d_16">
     <path d="M 659.05625 91.073125 
L 679.05625 91.073125 
L 699.05625 91.073125 
" style="fill: none; stroke: #ff7f0e; stroke-width: 1.5; stroke-linecap: square"/>
    </g>
    <g id="text_17">
     <!-- PM2,5 -->
     <g transform="translate(715.05625 98.073125) scale(0.2 -0.2)">
      <use xlink:href="#DejaVuSans-50"/>
      <use xlink:href="#DejaVuSans-4d" x="60.302734"/>
      <use xlink:href="#DejaVuSans-32" x="146.582031"/>
      <use xlink:href="#DejaVuSans-2c" x="210.205078"/>
      <use xlink:href="#DejaVuSans-35" x="241.992188"/>
     </g>
    </g>
   </g>
  </g>
 </g>
 <defs>
  <clipPath id="pc074b7630e">
   <rect x="73.28" y="35.52" width="779.92" height="484.84"/>
  </clipPath>
 </defs>
</svg>
